/* XPM */
static char *_645a709654e466f8f5775bb4ee1cb38cwWIoGcQ2WjXd5GX[] = {
/* columns rows colors chars-per-pixel */
"64 64 233 2 ",
"   c #010000",
".  c #05080D",
"X  c #1E1C00",
"o  c #1C130B",
"O  c #0A0D13",
"+  c #060C15",
"@  c #0D121B",
"#  c #140E09",
"$  c #23180E",
"%  c #231B13",
"&  c #2A1E14",
"*  c #3B3604",
"=  c #2D241A",
"-  c #292B1A",
";  c #322519",
":  c #35281B",
">  c #352F11",
",  c #0D1522",
"<  c #0F192B",
"1  c #0E1826",
"2  c #131A25",
"3  c #141D2B",
"4  c #101620",
"5  c #121F34",
"6  c #1A2329",
"7  c #15243A",
"8  c #282923",
"9  c #372D22",
"0  c #3D342B",
"q  c #3A3427",
"w  c #293433",
"e  c #453B15",
"r  c #403E0C",
"t  c #44392E",
"y  c #43372A",
"u  c #453C32",
"i  c #493E32",
"p  c #34423B",
"a  c #5E5700",
"s  c #5F5800",
"d  c #5D5B15",
"f  c #4C4716",
"g  c #635F08",
"h  c #675C1E",
"j  c #726A00",
"k  c #786A0B",
"l  c #666517",
"z  c #7D7516",
"x  c #746C10",
"c  c #544926",
"v  c #595229",
"b  c #4D4235",
"n  c #424B3F",
"m  c #544A3E",
"M  c #554839",
"N  c #4A5538",
"B  c #52492B",
"V  c #63592A",
"C  c #635934",
"Z  c #646A2B",
"A  c #6F732A",
"S  c #777825",
"D  c #646939",
"F  c #6D7537",
"G  c #727A37",
"H  c #73672D",
"J  c #132644",
"K  c #162845",
"L  c #1A2B44",
"P  c #152B4C",
"I  c #192D4B",
"U  c #1E334B",
"Y  c #1E3047",
"T  c #162E53",
"R  c #182F53",
"E  c #173155",
"W  c #1C3354",
"Q  c #1B345B",
"!  c #19345C",
"~  c #0D254C",
"^  c #29354A",
"/  c #293948",
"(  c #213A5C",
")  c #273A56",
"_  c #323E4E",
"`  c #1C3963",
"'  c #233C63",
"]  c #324444",
"[  c #35464A",
"{  c #2B4458",
"}  c #354B56",
"|  c #344A51",
" . c #26416A",
".. c #2A4568",
"X. c #2B4977",
"o. c #594E42",
"O. c #4C5943",
"+. c #5E5447",
"@. c #645A4E",
"#. c #61564A",
"$. c #675E53",
"%. c #51634E",
"&. c #7C724C",
"*. c #6C6255",
"=. c #6B635A",
"-. c #71675A",
";. c #746B5D",
":. c #7C6E5D",
">. c #7B7257",
",. c #776D47",
"<. c #766D61",
"1. c #786F61",
"2. c #7B7264",
"3. c #7E7669",
"4. c #7F796D",
"5. c #87791B",
"6. c #8C7E0F",
"7. c #84772D",
"8. c #80754B",
"9. c #857B55",
"0. c #887D59",
"q. c #837955",
"w. c #817769",
"e. c #847B6C",
"r. c #897E6F",
"t. c #847965",
"y. c #867E71",
"u. c #897F71",
"i. c #7E8227",
"p. c #8D8509",
"a. c #9E9200",
"s. c #94881B",
"d. c #AA9D02",
"f. c #A2990C",
"g. c #A2940A",
"h. c #AB9E14",
"j. c #B3A40E",
"k. c #BBAB09",
"l. c #A9A41B",
"z. c #A7A219",
"x. c #BBAB14",
"c. c #B3AA17",
"v. c #AFA70F",
"b. c #83862B",
"n. c #988B2A",
"m. c #959423",
"M. c #999727",
"N. c #9F9138",
"B. c #828A36",
"V. c #A79A39",
"C. c #A69827",
"Z. c #AAA722",
"A. c #BAAC3A",
"S. c #B4A638",
"D. c #BFB23F",
"F. c #B9AE24",
"G. c #C3B501",
"H. c #C7BA0B",
"J. c #C6B818",
"K. c #D0BF09",
"L. c #CCBC24",
"P. c #CEBE29",
"I. c #C3B428",
"U. c #C7B831",
"Y. c #C9BA33",
"T. c #DBCA02",
"R. c #D3C20B",
"E. c #DDCF09",
"W. c #CBC114",
"Q. c #CEC418",
"!. c #DCCC15",
"~. c #DED00C",
"^. c #E1CF00",
"/. c #E4D303",
"(. c #E9D706",
"). c #ECDB03",
"_. c #E4D60A",
"`. c #ECDB0A",
"'. c #E7D90C",
"]. c #F1DF0D",
"[. c #F1DE03",
"{. c #E3D21A",
"}. c #EBD915",
"|. c #F0DE12",
" X c #F4E203",
".X c #FAE605",
"XX c #FFEC00",
"oX c #F4E20B",
"OX c #F9E60B",
"+X c #F5E311",
"@X c #EFE009",
"#X c #CFC029",
"$X c #D5C522",
"%X c #D3C32B",
"&X c #D8C928",
"*X c #D4C535",
"=X c #EEDD24",
"-X c #958A49",
";X c #8C8359",
":X c #90875E",
">X c #968C59",
",X c #9E9453",
"<X c #978D47",
"1X c #A89C45",
"2X c #A39857",
"3X c #ADA147",
"4X c #B1A543",
"5X c #B5AA49",
"6X c #B9AD4B",
"7X c #B4A74A",
"8X c #BFB141",
"9X c #B5AA52",
"0X c #8B836B",
"qX c #8C8363",
"wX c #958B63",
"eX c #938B69",
"rX c #9D926C",
"tX c #9A9063",
"yX c #8C8374",
"uX c #8E8679",
"iX c #8A8376",
"pX c #908675",
"aX c #938B7B",
"sX c #948A75",
"dX c #9C9378",
"fX c #A39871",
"gX c #A2966C",
"hX c #AAA06C",
"jX c #C1B351",
"kX c #C3B746",
"lX c #978E81",
"zX c #9C9384",
"xX c #A39A8B",
/* pixels */
"-.;.*.=.=.=.<.0 2 _ / / _ ^ Y L +.t.8.V.L.`.XXXXXXXXXXXXXXXXXXXXXXXXXXXXXXXXXXXXXXXX`.L.V.,.*.b $.yXe.@.2.uX2.$.L P P W P 7 ^ 7 ",
"uXzXxXaXuXaXzXi 2 ..X. . . .` Q @.aXfX6X%X].XXXXXXXXXXXXXXXXXXXXXXXXXXXXXXXXXXXXXXXX+X%X6XwXaXM @.2.yXaXaXw.;.2.W P R R ! `  .' ",
"yXyXaXyXyXw.2.q @ E ` ..{ } } ] D wX,XA.$X`.XXXXXXXXXXXXXXXXXXXXXXXXXXXXXXXXXXXXXXXXoX$XS.,XwXV C :XwXeXsX2.2.<.E P E P R E Q P ",
"r.yXyXr.r.yXaXi 1 Q ) } %.D G F n.6XA.L.!. XXXXXXXXXXXXXXXXXXXXXXXXXXXXXXXXXXXXXXXXXoX{.P.A.4Xs.n.6X1X2XtX0Xr.u.' R R E Q E ! E ",
"m r.yXyXu.aXaXi 1 Q { %.G M.Z.z.x.%X&X{.'..XXXXXXXXXXXXXXXXXXXXXXXXXXXXXXXXXXXXXXXXX.X`.{.$X%Xx.J.%XU.4X2XqXu.iX` ! W W E W Q 7 ",
"0 u.uXw.yXaXaXb 1 Q | D M.W._./.(.].]. X.XXXXXXXXXXXXXXXXXXXXXXXXXXXXXXXXXXXXXXXXXXXXX.XoX].].(.(.].{.U.3XrXr.e.' ` ` W R ! ` < ",
"u w.w.w.e.yXpXB 6 | N b.F.'.XXXXXXXXXXXXXXXXXXXXXXXXXXXXXXXXXXXXXXXXXXXXXXXXXXXXXXXXXXXXXXXXXXXXXXXX].$XS.2XwXqX{ Q Q Q R E ' 3 ",
"% ; ; ; ; ; > e r d k g.G.).XXXXXXXXXXXXXXXXXXXXXXXXXXXXXXXXXXXXXXXXXXXXXXXXXXXXXXXXXXXXXXXXXXXXXXXX X!.I.C.N.H q 6 + + < , @ O ",
"6 _ ^ ^ ^ ^ [ f 5.F.J.R._..XXXXXXXXXXXXXXXXXXXXXXXXXXXXXXXXXXXXXXXXXXXXXXXXXXXXXXXXXXXXXXXXXXXXXXXXX X~.H.j.M.l H 0.@.+.=.;.:.i ",
"7 .. .'  .' } l h.=X+XOX.XXXXXXXXXXXXXXXXXXXXXXXXXXXXXXXXXXXXXXXXXXXXXXXXXXXXXXXXXXXXXXXXXXXXXXXXXXXXX X).'.Q.p.z fXlXpXu.lXxX+.",
"1 R E U / / N z k.oXXXXXXXXXXXXXXXXX.X X)./.^.^.^.^./.). X.XXXXXXXXXXXXXXXXXXXXXXXXXXXXXXXXXXXXXXXXXXXXXXXXX'.j.s.2XwXqXeXaXsXb ",
"2 W U ] N D b.f.K.OXXXXXXXXXXXXXXXXX XT.G.d.a.a.a.a.d.G.T. XXXXXXXXXXXXXXXXXXXXXXXXXXXXXXXXXXXXXXXXXXXXXXXXX).G.x.D.7X2X>X0XpXb ",
"< Q / N A m.c.H./..XXXXXXXXXXXXXXXXX).G.a.j a s s a j a.G.).XXXXXXXXXXXXXXXXXXXXXXXXXXXXXXXXXXXXXXXXXXXXXXXX XT.R.&XY.6X2XrXlXM ",
"1 T ] D m.H.(.). XXXXXXXXXXXXXXXXXXX/.d.j * X X X X * j d./.XXXXXXXXXXXXXXXXXXXXXXXXXXXXXXXXXXXXXXXXXXXXXXXXXX X[.oX{.U.9XrXaXM ",
"3 K [ F l._.XXXXXXXXXXXXXXXXXXXXXXXX^.a.a X         X a a.^.XXXXXXXXXXXXXXXXXXXXXXXXXXXXXXXXXXXXXXXXXXXXXXXXXXXXXXXX].P.S.0.w.+.",
"+ + - l f.T.XXXXXXXXXXXXXXXXXXXXXXXX^.a.s X         X s a.^.XXXXXXXXXXXXXXXXXXXXXXXXXXXXXXXXXXXXXXXXXXXXXXXXXXXXXXXX/.j.z e ; : ",
"9 *.8.V.J.'.XXXXXXXXXXXXXXXXXXXXXXXX^.a.s X         X s a.^.XXXXXXXXXXXXXXXXXXXXXXXXXXXXXXXXXXXXXXXXXXXXXXXXXXXXXXXX`.x.z c +.= ",
"u yXwX5X%X].XXXXXXXXXXXXXXXXXXXXXXXX^.a.a X         X a a.^.XXXXXXXXXXXXXXXXXXXXXXXXXXXXXXXXXXXXXXXXXXXXXXXXXXXXXXXX+X&X4X:Xw.y ",
"c q.-XS.$X].XXXXXXXXXXXXXXXXXXXXXXXX/.d.j * X X X X * j d./.XXXXXXXXXXXXXXXXXXXXXXXXXXXXXXXXXX X[.oX].].].].].].].`.{.I.N.9.*.: ",
"5.4XS.#X{.oXXXXXXXXXXXXXXXXXXXXXXXXX).G.a.j a s s a j a.G.).XXXXXXXXXXXXXXXXXXXXXXXXXXXXXXXX XE.R.$X%X%X%X%X%X%X%XL.I.S.-X>.;.y ",
"j.P.$X{.|..XXXXXXXXXXXXXXXXXXXXXXXXX XT.G.d.a.a.a.a.d.G.T. XXXXXXXXXXXXXXXXXXXXXXXXXXXXXXXXX).H.x.A.5X5XjXjX6X5XV.V.1X2X;X;.2.i ",
"(.`.oXOX.XXXXXXXXXXXXXXXXXXXXXXXXXXX.X X)./.^.^.^.^./.). X.XXXXXXXXXXXXXXXXXXXXXXXXXXXXXXXXX'.c.m.2XwX:XrXfXrX9.&.8.;XeXt.;.2.u ",
"XXXXXXXXXXXXXXXXXXXXXXXXXXXXXXXXXXXXXXXXXXXXXXXXXXXXXXXXXXXXXXXXXXXXXX.XOXoXoXoX'._._._._._.W.s.7.wXw.w.r.u.uXw.*.2.;.e.w.;.;.t ",
"XXXXXXXXXXXXXXXXXXXXXXXXXXXXXXXXXXXXXXXXXXXXXXXXXXXXXXXXXXXXXXXXXXXX.X_.R.J.%Xx.f.Z.Z.Z.l.l.M.l H rXpX0Xr.;.e.w.2.;.;.1.2.r.w.y ",
"XXXXXXXXXXXXXXXXXXXXXXXXXXXXXXXXXXXXXXXXXXXXXXXXXXXXXXXXXXXXXXXXXXXX).H.l.b.G G V.6X5X4X4X4X1X7.V sXyXyXr.;.2.1.;.w.3.e.u.yXe.u ",
"XXXXXXXXXXXXXXXXXXXXXXXXXXXXXXXXXXXXXXXXXXXXXXXXXXXXXXXXXXXXXXXXXXXX'.F.B.%.} [ wXrXtXwXgXtXwX0.m yXw.u.;.-.<.2.;.3.pXyXw.3.2.t ",
"XXXXXXXXXXXXXXXXXXXXXXXXXXXXXXXXXXXXXXXXXXXXXXXXXXXXXX.XoX`.].(./._.W.M.D { ` 7 3.aXyXu.yXe.uX2.M yXr.2.2.;.;.<.2.w.sXyX2.;.w.i ",
"XXXXXXXXXXXXXXXXXXXXXXXXXXXXXXXXXXXXXXXXXXXXXXXXXXXX.X|.{.$X%Xx.f.l.m.G O.{ ` ( yXaXuXuXyXyXaXr.m yXe.w.<.;.2.;.2.<.2.2.;.2.;.9 ",
"XXXXXXXXXXXXXXXXXXXXXXXXXXXXXXXXXXXXXXXXXXXXXXXXXXXXOX!.P.A.5X5.l G D O.| ( ! ' yXyXyXyXyXt.w.t.#.yX1.3.2.;.t.1.;.yX<.<.1.2.@.= ",
"XXXXXXXXXXXXXXXXXXXXXXXXXXXXXXXXXXXXXXXXXXXXXXXXXXXXoX$XS.,XtXv 8 } } { ( ` ` ( uXdXuXuXyX2.2.;.#.u.<.2.;.<.;.-.2.w.2.3.;.$.M % ",
"XXXXXXXXXXXXXXXXXXXXXXXXXXXXXXXXXXXXXXXXXXXXXXXXXXXX].P.V.9.e.i , ( E W W W ( 7 1.zXaXpXuXaXuX-.m w.2.w.<.*.*.*.M m m +.i : y % ",
"XXXXXXXXXXXXXXXXXXXXXXXXXXXXXXXXXXXXXXXXXXXXXXXXXXXX/.d.k e ; % . O . O . O O . t iXyXu.e.4.y.+.= y q q 9 & % & o $ o o # # o # ",
"XXXXXXXXXXXXXXXXXXXXXXXXXXXXXXXXXXXXXXXXXXXXXXXXXXXX(.l.S n _ 2 q <.$.u =.=.*.o.L ( W Q Q L U L b *.#.+.#.o.+.=.b : 0 9 8 8 0 % ",
"XXXXXXXXXXXXXXXXXXXXXXXXXXXXXXXXXXXXXXXXXXXXXXXXXXXX_.Z.G } ..6 = ;.2.t.aXzXxXo.< ! E R W E R 7 m aXuXu.yXw.r.uXyXr.aXuXu.yX:.= ",
"XXXXXXXXXXXXXXXXXXXXXXXXXXXXXXXXXXXXXXXXXXXXXXXXXXXX(.c.S N w - c &.;XeX0XuXaXt @ Q E R J P I 5 u r.;.;.e.2.;.2.=.*.e.w.2.@.b = ",
"XXXXXXXXXXXXXXXXXXXXXXXXXXXXXXXXXXXXXXXXXXXXXXXXXXXX).W.Z.i.G l 5.6X9X,XtX0XuXi , E R E P J P 7 i r.w.2.2.2.r.2.2.e.u.3.2.2.;.% ",
"XXXXXXXXXXXXXXXXXXXXXXXXXXXXXXXXXXXXXXXXXXXXXXXXXXXX XE.W.c.l.f.j.#XU.4X<Xt.e.t , I J R R J P K u 3.w.e.3.t.w.uXaXuX3.3.2.2.*.% ",
"XXXXXXXXXXXXXXXXXXXXXXXXXXXXXXXXXXXXXXXXXXXXXXXXXXXX.X X)._._./.(.].{.U.1XqXyXi , P J J J J P 7 0 3.w.2.r.yXuXaXaXyXe.w.;.;.*.% ",
"XXXXXXXXXXXXXXXXXXXXXXXXXXXXXXXXXXXXXXXXXXXXXXXXXXXXXXXXXXXXXXXXXXXXoX$XA.<XwXv - p w ] ] ] [ 8 y ;.w.w.;.w.r.aXaXuXyXw.*.2.*.: ",
"XXXXXXXXXXXXXXXXXXXXXXXXXXXXXXXXXXXXXXXXXXXXXXXXXXXXXXXXXXXXXXXXXXXX[.R.j.6.5.k g g g l G G d * c >.e.2.;.2.2.xXlXaXaX3.1.<.2.i ",
"XXXXXXXXXXXXXXXXXXXXXXXXXXXXXXXXXXXXXXXXXXXXXXXXXXXXXXXXXXXXXXXXXXXX XE.H.v.z.f.j.J.x.x.L.#XF.5.h >.3.<.2.3.yXzXzXlXaXyX2.<.2.i ",
"XXXXXXXXXXXXXXXXXXXXXXXXXXXXXXXXXXXXXXXXXXXXXXXXXXXXXXXXXXXXXXXXXXXXXX X@X`.'./.'.+X+X+X].oX=Xl.x q.3.e.uXr.e.uXuXlXuXiXu.3.r.i ",
"(.].oXoX.XXXXXXXXXXXXXXXXXXXXXXXXXXXXXXXXXXXXXXXXXXXXXXXXXXXXXXXXXXXXXXXXXXXXXXXXXXXXXXXXXXXoXk.6.-XwX:X:X0.;XwX;X:XrXeX0XyXyXu ",
"x.%X&X{.|..XXXXXXXXXXXXXXXXXXXXXXXXXXXXXXXXXXXXXXXXXXXXXXXXXXXXXXXXXXXXXXXXXXXXXXXXXXXXXXXXXOXR.d.C.4X6X4XV.4X5X4X4X7X,X;XyX2.0 ",
"5.5X8X%X{.OXXXXXXXXXXXXXXXXXXXXXXXXXXXXXXXXXXXXXXXXXXXXXXXXXXXXXXXXXXXXXXXXXXXXXXXXXXXXXXXXX.X/.H.J.%X%X#X%X%X%XP.%X*X4X,XqX<.9 ",
"e 0.hXD.&XoXXXXXXXXXXXXXXXXXXXXXXXXXXXXXXXXXXXXXXXXXXXXXXXXXXXXXXXXXXXXXXXXXXXXXXXXXXXXXXXXXXX X).].oX].`.].oX].].].{.U.3XeX-.; ",
": $.9.4X%X].XXXXXXXXXXXXXXXXXXXXXXXXXXXXXXXXXXXXXXXXXXXXXXXXXXXXXXXXXXXXXXXXXXXXXXXXXXXXXXXXXXXXXXXXXXXXXXXXXXXXXXXX`.J.n.D m ; ",
"o $ * k j.(.XXXXXXXXXXXXXXXXXXXXXXXXXXXXXXXXXXXXXXXXXXXXXXXXXXXXXXXXXXXXXXXXXXXXXXXXXXXXXXXXXXXXXXXXXXXXXXXXXXXXXXXX/.d.j > $ o ",
"u =.&.N.J.].XXXXXXXXXXXXXXXXXXXXXXXXXXXXXXXXXXXXXXXXXXXXXXXXXXXXXXXXXXXXXXXXXXXXXXXXXXXXXXXXXXXXXXXXXXXXXXXXXXXXXXXX(.f.A O.6 2 ",
"u zXhXjX*XoXXXXXXXXXXXXXXXXXXXXXXXXXXXXXXXXXXXXXXXXXXXXXXXXXXXXXXXXXXXXXXXXXXXXXXXXXXXXXXXXXXXXXXXXXXXXXXXXXXXXXXXXX'.l.A p ) 7 ",
"9 ;.rX1XI.{.oX[. X.XXXXXXXXXXXXXXXXXXXXXXXXXXXXXXXXXXXXXXXXXXXXXXXXXXXXXXXXXXXXXXXXXXXXXXXXXXXXXXXXXXXXXXXXXXX X).(.H.m.Z 8 I 2 ",
"u r.eX-XV.I.$XR.T. XXXXXXXXXXXXXXXXXXXXXXXXXXXXXXXXXXXXXXXXXXXXXXXXXXXXXXXXXXXXXXXXXXXXXXXXXXXXXXXXXXXXXXXXX.X/.H.c.m.A O./ 7 3 ",
"i yXt.;X-X1XS.j.G.).XXXXXXXXXXXXXXXXXXXXXXXXXXXXXXXXXXXXXXXXXXXXXXXXXXXXXXXXXXXXXXXXXXXXXXXXXXXXXXXXXXXXXXXXOXR.f.b.Z N p Y K @ ",
"u u.2.0Xq.q.-Xs.d.'.XXXXXXXXXXXXXXXXXXXXXXXXXXXXXXXXXXXXXXXXXXXXXXXXXXXXXXXXXXXXXXXXXXXXXXXXXXXXXXXXXXXXXXXXoXH.z N / / Y E W 3 ",
"0 ;.w.r.w.*.8.5.p.W.(.). XXXXXXXXXXXXXXXXXXXXXXXXXXXXXXXXXXXXXXXXXXXXXXXXXXXXXXXXXXXXXXXXXXXXXXXXXXXXX.XOXoX}.h.d ] R K I W ) 2 ",
"% ; ; ; = $ > f g p.d.G.T. XXXXXXXXXXXXXXXXXXXXXXXXXXXXXXXXXXXXXXXXXXXXXXXXXXXXXXXXXXXXXXXXXXXXXXXXX X^.H.k.g.k f w + . . + . . ",
"3 / ^ ^ ) ^ [ q V <XV.I.!. XXXXXXXXXXXXXXXXXXXXXXXXXXXXXXXXXXXXXXXXXXXXXXXXXXXXXXXXXXXXXXXXXXXXXXXXX).W.l.b.G v ,.yX#.@.$.@.$.u ",
"3 ) ' ' X. ...6 B rX2XkX&XoXXXXXXXXXXXXXXXXXXXXXXXXXXXXXXXXXXXXXXXXXXXXXXXXXXXXXXXXXXXXXXXXXXXXXXXXX'.c.b.%.} | e.uXxXzXzXiXuXb ",
"@ K J J P P I @ 0 3.qX1XU.{.oX(./.`.oXoX.XXXXXXXXXXXXXXXXXXXXXXXXXXXXXXXXXXXXXXXXXXXXX.XoX].].'./._.W.m.D / ~ I 3.3.yXyXaX;.;.0 ",
"@ K J K P R W , 0 e.0X,X4XY.&Xx.d.L.&X{.|..XXXXXXXXXXXXXXXXXXXXXXXXXXXXXXXXXXXXXXXXX.X|.{.$X%Xx.z.Z.m.F O./ T L <.;.yXpXpX2.2.t ",
", I J J P P W , 0 yX0X:X,X3X6X5.k V.A.P.{.oXXXXXXXXXXXXXXXXXXXXXXXXXXXXXXXXXXXXXXXXXOX{.P.8X6Xn.A G D N ] W P K 2.2.e.uX0XyXw.y ",
"@ I J K P P W 2 t iXr.e.sXgXgXc e 8.2XD.&XoXXXXXXXXXXXXXXXXXXXXXXXXXXXXXXXXXXXXXXXXXoX&XA.,XwXD ] [ ] / U E J K 2.3.2.r.r.e.r.y ",
"4 I L 7 L I Y , 0 2.;.@.2.yXpXt u u.rX6X%XoXXXXXXXXXXXXXXXXXXXXXXXXXXXXXXXXXXXXXXXXX`.P.4X0.e.m J W R R P E P W 4.u.e.aXyX2.2.u ",
"O O O O O O @ O % 9 : % ; 9 b i = b v 5.j./.XXXXXXXXXXXXXXXXXXXXXXXXXXXXXXXXXXXXXXXX/.j.5.f 9 ; 7 R P < < J P 7 o.3.yX;.t 9 9 = "
};
