/* XPM */
static char *_5da89e29cf74bcaae27761fc017af24cDgYZIMUJWekXpFx[] = {
/* columns rows colors chars-per-pixel */
"64 64 228 2 ",
"   c #1E1D1B",
".  c #1A1917",
"X  c #2C190D",
"o  c #2C1407",
"O  c #351402",
"+  c #3A1701",
"@  c #3B1A02",
"#  c #36180B",
"$  c #390B1D",
"%  c #2D1C12",
"&  c #211F1D",
"*  c #281C19",
"=  c #361817",
"-  c #300F00",
";  c #22211F",
":  c #2B231D",
">  c #3A251A",
",  c #342318",
"<  c #3B0A24",
"1  c #3A0A27",
"2  c #361927",
"3  c #2C1D24",
"4  c #252422",
"5  c #282725",
"6  c #2A2926",
"7  c #2D2C2A",
"8  c #2E2729",
"9  c #312E2D",
"0  c #392926",
"q  c #32312E",
"w  c #3A322D",
"e  c #3D2731",
"r  c #353432",
"t  c #393634",
"y  c #3A3836",
"u  c #3D3C3A",
"i  c #421D02",
"p  c #4B1E06",
"a  c #471517",
"s  c #440B1F",
"d  c #442204",
"f  c #4D2600",
"g  c #4A2708",
"h  c #542B01",
"j  c #5A2A09",
"k  c #5D3304",
"l  c #5C350C",
"z  c #573008",
"x  c #462719",
"c  c #5A2717",
"v  c #5B3715",
"b  c #4D301D",
"n  c #623403",
"m  c #6B3C04",
"M  c #663809",
"N  c #633C13",
"B  c #663819",
"V  c #653014",
"C  c #470E27",
"Z  c #4A1323",
"A  c #4F1428",
"S  c #481A26",
"D  c #541929",
"F  c #531C37",
"G  c #441D34",
"H  c #582626",
"J  c #4E3323",
"K  c #533828",
"L  c #59283D",
"P  c #413F3C",
"I  c #4E3F35",
"U  c #4E2E32",
"Y  c #662C2B",
"T  c #642829",
"R  c #783F2F",
"E  c #743B2B",
"W  c #793E30",
"Q  c #6B3929",
"!  c #754505",
"~  c #7A4907",
"^  c #7C4B0A",
"/  c #74450A",
"(  c #6B4216",
")  c #744819",
"_  c #7D5119",
"`  c #6E4006",
"'  c #42413E",
"]  c #49433F",
"[  c #5C4334",
"{  c #7A4728",
"}  c #664A36",
"|  c #6C523A",
" . c #6D4833",
".. c #663652",
"X. c #653A4E",
"o. c #562140",
"O. c #3F4040",
"+. c #444342",
"@. c #494543",
"#. c #4E4D4A",
"$. c #494847",
"%. c #524D4A",
"&. c #545453",
"*. c #54524F",
"=. c #6B5448",
"-. c #745C4C",
";. c #776458",
":. c #777675",
">. c #676767",
",. c #804F0F",
"<. c #84520E",
"1. c #865412",
"2. c #885612",
"3. c #8B5A14",
"4. c #8D5B1A",
"5. c #875419",
"6. c #915E1A",
"7. c #824D1D",
"8. c #97641C",
"9. c #854B2D",
"0. c #864E29",
"q. c #875923",
"w. c #925C28",
"e. c #884D31",
"r. c #965C35",
"t. c #905733",
"y. c #8C553A",
"u. c #9A6826",
"i. c #9B6337",
"p. c #8B612D",
"a. c #A26E26",
"s. c #A67226",
"d. c #A87427",
"f. c #AA762A",
"g. c #AE792C",
"h. c #A3702D",
"j. c #B27D2E",
"k. c #A16936",
"l. c #AD7A32",
"z. c #AB7535",
"x. c #B27D32",
"c. c #B47D3B",
"v. c #8A6A50",
"b. c #927A79",
"n. c #8C7570",
"m. c #B68133",
"M. c #BB8636",
"N. c #BD863C",
"B. c #BF8939",
"V. c #BE8837",
"C. c #C38C3B",
"Z. c #C18A37",
"A. c #C7903D",
"S. c #C8913E",
"D. c #B8864F",
"F. c #98877C",
"G. c #B19878",
"H. c #C38D42",
"J. c #C69144",
"K. c #CA9343",
"L. c #CA974A",
"P. c #CC994B",
"I. c #CA9B54",
"U. c #D09C51",
"Y. c #D1A15B",
"T. c #D1A056",
"R. c #C49A67",
"E. c #D6AC6D",
"W. c #D5A966",
"Q. c #D7AF71",
"!. c #DBB57A",
"~. c #D9B275",
"^. c #CBA36B",
"/. c #947285",
"(. c #878687",
"). c #9B8B83",
"_. c #988588",
"`. c #9E9188",
"'. c #989897",
"]. c #A1938B",
"[. c #A89397",
"{. c #ADA098",
"}. c #B3A7A4",
"|. c #BAB1AC",
" X c #BCBBBA",
".X c #BDA8B4",
"XX c #B49EAA",
"oX c #DCB780",
"OX c #DEBD8A",
"+X c #DDB984",
"@X c #D5BB95",
"#X c #CAB08C",
"$X c #C4BBB5",
"%X c #E1BD86",
"&X c #DEC296",
"*X c #E2C496",
"=X c #E3C79B",
"-X c #CAC2BD",
";X c #E6CDA4",
":X c #E7CFA8",
">X c #E8CFA9",
",X c #E8D0AB",
"<X c #EFD7B2",
"1X c #C9BBC2",
"2X c #CCC5C3",
"3X c #CDC8C7",
"4X c #D2CBCA",
"5X c #D6D2CE",
"6X c #DAD6D2",
"7X c #DEDCDA",
"8X c #D9D6D3",
"9X c #E1DEDB",
"0X c #E0DBD7",
"qX c #E4E1DE",
"wX c #E6E4E2",
"eX c #E9E6E3",
"rX c #EBE9E5",
"tX c #EDECEB",
"yX c #F1EEEC",
"uX c #F2F1EF",
"iX c #F4F3F3",
"pX c #F8F7F5",
"aX c #F9F9F6",
"sX c white",
"dX c #FEFEFE",
"fX c #FEFEFD",
"gX c #FEFEFE",
"hX c #F2EEF0",
/* pixels */
"6 5 6 9 y t q 6 q 7 6 4 6 y t r iXsXsXsXsXsXsXfXsXsXaXaXaXaXtX7Xt 5 6 5 4 4 7 y 6 4 4 ; 4 6 4 9 qXaXsXsXsXsXtXaXsXsXsXsXwXsXaXsX",
"y 9 r @.u r 7 4 4 4 4 4 7 6 4 t iXsXsXsXsXsXsXsXsXuX-X{.[.[._.[.G 2 e e , : w +.$.y t 6 q t 5 9 qXfXsXsXsXsXiXuXfXsXsXsXsXsXsXiX",
"y 7 7 7 5 4 4 5 4 4 4 6 6 6 4 7 9XsXsXsXsXfXpXiXpXwXF.b S F F F C C C s # > t +.#.u u r 6 4 & 9 eXsXsXsXsXiXeXiXqXsXsXsXsXsXfXyX",
"7 7 7 7 7 4 4 4 6 7 t 7 4 4 ; r uXsXsXiXiXpX$X).b./.v.q.0.9.9.9.e.e.e.0.q.B 2 = % * 4 4 ; ; ; 6 7XsXsXsXsXiX3XuXsXsXsXiXsXsXsXsX",
"7 q r q y y y P +.u r 7 4 4 ; r 7XaXsX9XtXuX`.b a D y.J.K.K.K.K.K.J.J.K.L.i.D $ + % 5 5 4 4   q uXsXsXsXsXaXaXaXfXsXtXqXsXsXsXsX",
"5 6 q 6 7 q t +.P ' u 9 7 4   r qXfXsX2X2X).| l N t.D.!.oXoXoXoXoXoXoXoXoXR.i.) h d % : 4 4 4 r iXsXsXsXsXsXaXsXsXsXrXrXsXsXsXsX",
"6 q q 6 6 6 5 5 6 y u +.t t r q wXsXsXaX$XK i / u.L.!.:X,X,X,X,X,X,X,X,X,XOXU.f.^ h O , 6 5 5 q iXsXsXsXsXsXsXsXsXsXqXyXsXsXsXsX",
"7 q 6 6 6 6 7 6 7 y r q 7 y u u eXsXaXaX1XL c h.I.oX=X:X,X,X,X,X,X,X,X,X,X=XOXI.f.E $ * 6 5 ; q tXsXsXtXaXsXsXsXsXsXsXqXuXsXsXsX",
"r P y q 6 6 5 5 6 5 6 4 4 4 & r iXsXpX6X{.L E N.Q.;X,X,X,X,X,X,X,X,X,X,X,X,X:X!.H.e.Z = * 4 ; t 5XwXiXuXaXsXsXsXpXfXsXeX4X5XaXsX",
"y r 9 t r 9 7 6 4 4 4 4 4 4   q iXsX6Xn.[ V 5.N.Q.;X,X,X,X,X,X,X,X,X,X,X,X,X:X!.H.w.l d X * 4 y 4XiXsXsXsXsXsXsXsXsXsXsXtXtXfXuX",
"7 6 7 7 q 7 6 7 6 6 5 5 4 6 & q pXaX-XI i ^ 8.Z.W.OX=X:X,X,X,X,X,X,X,X,X,X;X*XE.J.s.,.j o * 4 q iXsXsXsXsXsXsXsXsXsXsXsXsXsXsXsX",
"4 4 4 5 4 5 5 ; ; ; 4 5 4 5 4 t pXsX3XX.H h.Z.C.L.U.!.:X,X,X,X,X,X,X,X,X,XOXY.L.A.Z.l.E $ 3 4 r iXsXsXsXsXsXsXsXsXsXsXsXsXsXsXsX",
"4 4 4 4 ; 4 4 7 6 7 4 ; ; 6 7 q iXsX2X..T c.K.A.S.K.W.OXOXOXOXOXOXOXOXOXOXE.L.C.A.S.N.W 1 3 4 q iXsXsXsXsXsXsXsXaX5X8XpXsXaXsXsX",
"4 4 ; ; 4     4 6 5 6 5 4 5 & 7 iXsX4X..T c.S.A.S.S.L.P.P.P.P.P.P.P.P.P.P.L.S.S.A.S.N.R 1 2 4 q iXsXsXsXsXsXsXsX9X6XfXaXfXeXwXfX",
"4 7 5 . .   . .     4 &     . 6 iXsX4X..T c.S.A.S.S.S.A.A.A.A.A.A.A.A.A.A.S.S.S.A.S.N.W 1 3 5 r iXsXsXsXsXsXsXsXuXaXsXsXsXsXsXpX",
"7 7 u q 7 6 7 7 6 6 7 r r 7 7 u eXpX1X..T c.S.A.S.S.S.S.S.S.S.S.S.S.S.S.S.S.S.S.A.S.N.R 1 e u ' 7XiXiXiXiXiXiXtX9XiXiXiXiXiXiXiX",
"iXtXiXiXuXiXiXiXuXiXiXhXiXiXpXrXy 7 e 1 Y c.S.A.S.S.S.S.S.S.S.S.S.S.S.S.S.S.S.S.A.S.N.E F XXaXeX' y r r q q q u r q r 7 r 7 r q ",
"pXsXaXsXsXsXsXfXaXuXsXsXsXsXsXiXr   * < Y c.S.A.S.S.S.S.S.S.S.S.S.S.S.S.S.S.S.S.A.S.N.E L .XsXiXr 5 6 4 4 4 6 r 5 4 ; &         ",
"iXsXsXiXsXsXsXtXpXpXfXsXsXaXsXuXr 4 3 1 Y c.K.A.S.S.S.S.S.S.S.S.S.S.S.S.S.S.S.S.A.S.N.E o..XsXiXP y r 9 4 ; 4 5 6 5 5 5 4 4 5 5 ",
"fXiXaX8XeXsXsXwXpXsXfXsXsXpXiXeX7 6 e < Y c.K.A.S.S.S.S.S.S.S.S.S.S.S.S.S.S.S.S.A.S.N.E F }.sXiXr 7 r 7 5 ; 4 4 5 & ; & ; 4     ",
"uXiXsXpX3XsXsXrXpXfXsXsXpX X(.(.t r e = V c.K.A.S.S.S.S.S.S.S.S.S.S.S.S.S.S.S.S.A.S.B.) S _.sXpXr 7 7 4 4 5 4 9 u q r y t r t 7 ",
"sXsXsXsXyXaXsXsXsXsXsXpX7X(.u +.$.O.w # l f.C.C.S.S.S.S.S.S.S.S.S.S.S.S.S.S.S.S.A.C.x.N J ].aXpXr 5 5 5 6 4 6 y y u r r t r +.t ",
"sXsXaXrXsXsXsXsXsXsXaX X:.&.+.>.:.#.w # f ^ a.B.S.S.S.S.S.S.S.S.S.S.S.S.S.S.S.S.C.f.1.h x |.aX4X9 5 5 5 6 5 r #.u u 7 7 7 ; 7 4 ",
"fXqX2XpXsXsXsXsXaXpXpX'.+.+.&.(.'.>.P > d k 5.M.S.A.S.S.S.S.S.S.S.S.S.S.S.S.S.S.C.u.M v =.$XaX Xt 7 7 7 6 ; 7 ' r q 5 5 4 5 5 5 ",
"6XrX7XaXsXsXsXsXiXtXpX'.$.>.(.'.'.(.:.] 0 a { M.S.S.S.S.S.S.S.S.S.S.S.S.S.S.S.S.C.0.H b.4XrXsXiXy 5 q r r q r u q ; 4   4 4 6 7 ",
"yXaXsXsXsXsXsXsXsXsXpX'.$.>.(.'.'.'.:.@.0 < T i.z.x.V.A.S.S.S.S.S.S.S.S.S.Z.x.l.k.Q S n.2XrXsXiXr 5 6 7 7 r u r 7 5 ; & 4 5 5 & ",
"sXpXfXsXsXsXsXsXpXeXpX'.+.+.&.(.'.:.%.> O O a D B ,.s.A.S.S.S.S.S.S.S.S.S.g.1.B D a # x [ $XsXpX+.t P r y t 4 4 5 6 4 4 4   &   ",
"sXsXsXsXsXsXsXsXyXeXfX X:.&.+.>.:.%.I } } }  .Y c V 5.g.V.S.S.S.S.S.S.B.j.6.M c Y Q } } | ).3X9X#.*.@.r y r q 5 5 5 5 5 6 6 6 6 ",
"sXsXsXsXsXsXsXaXaXuXfXpX7X(.u $.] > K G.@X@X^.D.9.Z c ^ d.S.S.S.S.S.S.j.<.V a R c.R.@X@X#X-.=.|.+.y 7 q r y y q 7 7 r r q 7 7 6 ",
"sXsXsXsXsXsXsXsXaX5XsXsXpX X:.%.0 v p.#X<X,X%XP.k.R { 4.w.r.r.r.r.r.r.w.4.7.R r.J.!.,X<X&Xv.{ n.t 6 r y ' r 6 6 7 7 7 6 4     ; ",
"sXsXsXsXsXsXsXsXsXsXsXsXsXaX6X;.g u.I.&X,X:X+XL.Z.N.B.m.{ A A A A A A E x.Z.N.Z.K.~.;X,X=XY.z.B X * 4 7 y 7 r 7 7 4 4 4 4 4     ",
"iXtXiXiXiXuXiXiXiX4XrXiXiXpX5X;.g h.Y.*X,X,X+XP.S.S.S.C.i.R R R R R R t.N.S.S.S.K.~.:X,X=XW.x.l o 0 t t r r t t P ' r t P u q q ",
"7 r r t r 9 7 q q 7 q r t y w % g h.T.&X;X;XoXL.A.S.K.K.H.H.H.H.H.H.H.H.K.K.S.S.K.Q.;X;X=XW.l.l [ $X7X7XpXiXhXiXuXiXiXiXyXtXiXiX",
"4     4 & ; ; 5 ; 4 5 4 6 * X d M f.P.W.E.E.Y.L.S.K.Y.~.!.!.!.!.!.!.!.!.!.W.L.S.K.Y.E.Q.W.U.m./ v n.`.eXsXsXsXsXsXsXsXsXsXsXsXfX",
"6 & & & & ; 5 6 4 4 4 9 6 % + h ^ f.C.A.K.K.C.Z.C.K.~.;X:X:X:X:X:X:X:X;X:X+XL.C.Z.C.S.K.A.C.j.<.n i } 7XsXsXsXsXsXsXsXsXsXuXuXuX",
"4 r u t 6 7 q 4 4 4 4 6 5 X + h ! 1.u.V.K.S.m.8.d.J.~.>X,X,X,X,X,X,X,X,X,X+XL.g.8.g.S.K.C.s.2.! k + =.9XsXsXsXsXsXsXsXsXsXiXpXsX",
"4 7 u y r r 5 & 4 5 5 4 : X i n ~ ! 2.g.Z.V.u.! 4.C.E.=X;X,X,X,X,X,X,X;X;X!.L.u.! 8.M.Z.m.6.! ~ m d =.2XiXaXsXsXsXsXsXsXsXsXsXsX",
"4 ;     & 4 4 ; 4 & ; * # d n 4.f.f.a.6.2.3./ h _ C.P.W.OX,X,X,X,X,X,X*XE.U.K.w.h m 3.2.3.u.f.f.8.m N =.[.yXyXuXsXsXsXsXsXsXsXsX",
";   7 u r 6 7 9 r r 6 X + k 2.g.S.S.m.3.! ! h + ( x.Z.K.Q.*X*X*X*X*X=X!.L.Z.m._ @ f m ! 1.g.S.S.m.3.M + ;.7XqX7XsXsXsXsXsXsXsXsX",
"4 6 t $.t 6 4 y +.' w % @ _ j.B.S.S.Z.m.8.~ h + h 1.d.A.P.Y.Y.Y.Y.Y.Y.U.K.j.3.l + f ! 8.j.B.S.S.Z.m.q.d ;.5XsXuXsXsXsXsXsXsXsXsX",
"5 t P t r r 4 q q 5 4 % @ q.S.S.S.S.S.K.g.^ h + h 1.s.C.S.A.A.A.A.A.A.S.S.g.2.k + f ! a.S.S.S.S.S.K.u.d ;.eXpXpXsXsXsXsXsXsXuXiX",
"y %.y 5 u ' 7 9 9 5 4 % @ q.S.S.S.S.S.S.g.^ h @ ( x.Z.A.S.S.S.S.S.S.S.S.S.C.m._ @ f ! a.S.S.S.S.S.S.u.d ;.eXfXaXsXsXsXsXfXaXpXeX",
"$.$.7 6 r r u P 4 4 4 % @ _ j.V.S.S.S.S.g.^ h @ ) C.S.A.S.S.S.S.S.S.S.S.S.K.C.q.@ f ! a.S.S.S.S.Z.x.4.d ;.qXsXsXsXsXsXsXfXaXsXsX",
"$.9 6 4 4 4 5 ' 9 4 4 % + k <.f.S.S.S.S.g.^ h + ) Z.S.A.S.S.S.S.S.S.S.S.S.S.C.q.@ f ! a.S.S.S.S.m.3.n + ;.eXsXsXsXsXsXuXfXsXsXsX",
"6 4 4 4 6 5 4 q 7 6 5 : % d n 4.s.s.s.d.6.n k ( p.C.S.S.S.S.S.S.S.S.S.S.S.S.C.u.( l k 1.s.s.s.f.8.M N ;.{.tXsXsXsXfXfXsXsXsXsXsX",
"5 5 5 5 5 6 6 9 7 r r r 9 > @ k ! ! ! ! M i N l.C.A.S.S.S.S.S.S.C.C.A.S.S.S.A.C.m._ d k ! ! ! ! m d =.-XpXfXsXsXsXsXsXuXsXsXsXsX",
"r r 4 & 7 7 7 t r q 7 6 7 0 , d h h h h k ( p.Z.S.A.S.S.S.S.S.N.i.i.N.S.S.S.S.S.C.u.) l h h h h v v.}.uX5X6XsXsXsXsXsXsXsXsXsXsX",
"&.#.y y #.&.u y t u ' q u u w > @ + + + N l.C.C.S.S.S.S.S.S.C.z.Y T z.A.C.S.S.S.A.C.m.) + + + O | $XtXuX6X7XiXiXuXtXpXiXuXiXwXwX",
"uXrXuXpXpXpXiXyXeXrXqX7XiXiXeX}.0 # + f ) M.K.A.S.S.S.S.S.C.f.5.c a 5.d.Z.S.S.S.A.S.B.5.f + x ;.w t u y u ' y t y y y y u y r t ",
"sXsXsXaXsXsXsXaXsXsXsXsXsXsXsXiXP % i n 1.x.C.A.S.S.S.A.C.m.3.n i i n 1.x.C.A.S.S.S.Z.8.m d K }.t 4 q t q r 7 4 5 4 4 4 6 7 5 5 ",
"wXsXaXtXsXfXpXsXsXsXsXfXfXsXsXiX9 $ a n ~ 2.a.Z.S.A.S.C.f.5.B a O O a V 5.s.Z.S.S.S.C.m.u.c S =., 9 u y r t y r 7 7 7 6 q 9 5 6 ",
"sXsXsXsXsXsXiXsXsXsXsXsXsXpXpXeX0 Z H m ~ ! 8.B.S.A.S.Z.8.M a $ x x C a n 3.V.S.A.S.A.S.N.{ Z O o * r y u y y q 6 7 7 9 r 6 5 5 ",
"wXsXsXsXsXpXtXsXfXsXsXsXfXwX4X).x { k.h.f.f.x.C.S.A.S.Z.8.m p # b.].U i m 6.V.S.A.S.S.S.C.z.0.g o * 5 9 r 7 7 7 6 7 6 5 4 6 6 7 ",
"wXsXsXsXsXuXiXsXsXsXsXsXsX8X6X;.g h.S.S.S.S.S.S.S.S.S.B.4.n d , -X5X[ @ k 3.V.S.A.S.S.S.A.S.x.l o : r 7 r 5 4 7 r q 6 5 4 4 5 7 ",
"aXsXsXsXsXfXsXsXsXsXsXsXfXsX5X=.g h.K.A.S.S.S.S.S.S.K.N.9.a = 9 eX4X[ - i ) M.S.A.S.S.S.A.K.l.l o : 6 4 5 4 6 4 4 5 5 5 5 5 7 q ",
"uXiXsXsXsXfXsXsXsXsXsXsXsXsX0X-.d p.M.C.S.S.S.A.V.j.j.f.Q < 8 u pX0X;.J # N m.S.A.S.S.S.A.K.l.l o : 4 5 5 4 4 6 7 6 5 4 4 7 r y ",
"iX6XaXsXsXsXsXsXfXsXsXsXsXsXwX;.@ m 6.M.S.S.S.S.d.<.^ ^ j o 0 %.iXsX|.;.J N M.S.S.S.S.S.S.K.l.l o * 5 6 5 7 5 6 7 5 5 4 5 7 6 ' ",
"sX3XrXsXaXiXsXsXsXsXpXfXsXsXyX`.# f m w.k.i.i.i.0.l k h d % 0 &.pXsXqX).K z a.j.f.g.g.g.g.g.u.z o : 4 4 4 4 5 4 4 5 7 r 7 4 4 5 ",
"sXtX7XsXiXuXsXfXsXsXfXiXpXsXsXwX0 # @ Z A A A A Z s a + , 6 6 +.pXsXaX|.K i / ~ ~ ~ ~ ~ ~ ~ ` i o *   4 4 4 4 4 5 t 7 4 5 4 4 4 ",
"sXiX5XsXwXyXsXpXfXsXsXsX9XpXsXiXt > > 2 1 1 2 G G 2 = X : 6 4 t iXsXpX-XF.| l h j j j j j h l =.% & ; 5 4 4 4 4 4 5 ; 5 r r 5 5 ",
"sXsXaXsXiXyXsXsXsXaXfXiXyXtXsXiXr r t 9 8 8 9 y @.@.y 9 6 7 5 r iXsXaXeXiX{.J = Z C C C Z # [ }.7 . ; & ; ; 4 5 6 r t 7 y @.7 5 ",
"sXsXaXpXpXfXsXsXsXsXsXaXaXaXsXiXu 7 7 6 6 7 7 7 y y y u 7 9 5 r iXsXaXyXsX5X).n./././././.n.].5X9 . ; 4 5 4 6 u @.u ' r 7 y r 6 ",
"fXsXuXqXaXsXsXfXsXsXsXsXsXsXsXiX+.r q 7 6 6 7 q t #.' 7 7 7 4 r iXsXsXaXsXaXiXyXeXiXhXhXtXyXpXtX7   4 7 7 q r u t t r 4 6 r u 7 ",
"sXsXsXfXsXuXfXfXrX7XuXrXfXpXsXiXr 5 q r r 5 5 6 6 t #.r 7 6 5 q uXsXsXsXsXsXsXsXsXsXfXpXsXsXsXiX7 ; 6 5 4 6 r r 7 5 7 5 7 7 r 4 "
};
