/* XPM */
static char *_04de4ba555546528dcbd3a23ee268d4DaLonNz8PkesrcXR[] = {
/* columns rows colors chars-per-pixel */
"64 64 225 2 ",
"   c #1E1D1B",
".  c #1A1917",
"X  c #360D09",
"o  c #2E180B",
"O  c #331403",
"+  c #391701",
"@  c #3C1A02",
"#  c #3C130C",
"$  c #351A09",
"%  c #3A0B15",
"&  c #2C1C14",
"*  c #201F1E",
"=  c #2A1719",
"-  c #341816",
";  c #2E0F00",
":  c #22211F",
">  c #2C211B",
",  c #33241B",
"<  c #3A2519",
"1  c #3F2106",
"2  c #3B0A25",
"3  c #351726",
"4  c #341E2A",
"5  c #252422",
"6  c #292625",
"7  c #2A2926",
"8  c #2D2C2A",
"9  c #312E2D",
"0  c #382826",
"q  c #32312F",
"w  c #3B322D",
"e  c #3C2A32",
"r  c #353432",
"t  c #383735",
"y  c #3A3937",
"u  c #3C3B3A",
"i  c #3A3838",
"p  c #451C04",
"a  c #491A0B",
"s  c #450D1C",
"d  c #4A1717",
"f  c #521A19",
"g  c #432105",
"h  c #4C2501",
"j  c #48250A",
"k  c #532A02",
"l  c #5A2A09",
"z  c #5D3202",
"x  c #5C340C",
"c  c #563109",
"v  c #482717",
"b  c #582515",
"n  c #5B3316",
"m  c #4F311C",
"M  c #633404",
"N  c #663901",
"B  c #6D3D01",
"V  c #63310B",
"C  c #683707",
"Z  c #703F00",
"A  c #703E0C",
"S  c #622C19",
"D  c #673913",
"F  c #703A11",
"G  c #440B23",
"H  c #470C26",
"J  c #4B1126",
"K  c #4A1428",
"L  c #51162B",
"P  c #571D26",
"I  c #4E1E32",
"U  c #5D212A",
"Y  c #5A2728",
"T  c #49362C",
"R  c #533726",
"E  c #58223A",
"W  c #413F3D",
"Q  c #4B3D34",
"!  c #583A31",
"~  c #46242D",
"^  c #60242C",
"/  c #63292C",
"(  c #672F2A",
")  c #6A3427",
"_  c #763C2D",
"`  c #6F440E",
"'  c #724102",
"]  c #72430C",
"[  c #7C4B0A",
"{  c #784805",
"}  c #7A4E1C",
"|  c #714315",
" . c #70471B",
".. c #42413E",
"X. c #48413D",
"o. c #5C4335",
"O. c #5A402E",
"+. c #7D4725",
"@. c #634A3B",
"#. c #71543B",
"$. c #70492C",
"%. c #5D3044",
"&. c #62304B",
"*. c #6C3D57",
"=. c #444342",
"-. c #484644",
";. c #4B4947",
":. c #4D4C4B",
">. c #545353",
",. c #5A5A5A",
"<. c #514F4D",
"1. c #68544A",
"2. c #715655",
"3. c #786458",
"4. c #6E5463",
"5. c #696969",
"6. c #747474",
"7. c #7B7B7A",
"8. c #786265",
"9. c #804E0B",
"0. c #895615",
"q. c #915E17",
"w. c #835015",
"e. c #946219",
"r. c #9A661E",
"t. c #99661C",
"y. c #82482C",
"u. c #8B5C23",
"i. c #875228",
"p. c #864B32",
"a. c #8E5533",
"s. c #955C34",
"d. c #8E6025",
"f. c #986628",
"g. c #9C6335",
"h. c #9E6A32",
"j. c #A16D26",
"k. c #AB752A",
"l. c #A97529",
"z. c #B27C2E",
"x. c #A36B36",
"c. c #AC7439",
"v. c #AC7837",
"b. c #B37E33",
"n. c #B17939",
"m. c #805D5A",
"M. c #9D6741",
"N. c #805961",
"B. c #85756B",
"V. c #867C76",
"C. c #816D69",
"Z. c #BC863B",
"A. c #BF883A",
"S. c #BA8535",
"D. c #C38C3B",
"F. c #C7903D",
"G. c #C9923E",
"H. c #BD8D45",
"J. c #94847B",
"K. c #C38D43",
"L. c #CA9442",
"P. c #CD9A4C",
"I. c #C8954A",
"U. c #CF9C53",
"Y. c #C29553",
"T. c #D19F51",
"R. c #D2A35B",
"E. c #CEA05B",
"W. c #C59E68",
"Q. c #D4A966",
"!. c #D7AF72",
"~. c #D8B075",
"^. c #DBB57C",
"/. c #D6B178",
"(. c #CCA466",
"). c #9D7E91",
"_. c #98788B",
"`. c #858585",
"'. c #8C8C8C",
"]. c #9C908E",
"[. c #A48A96",
"{. c #A99A92",
"}. c #AE94A4",
"|. c #B29EA5",
" X c #BAAFA9",
".X c #ADA099",
"XX c #DEBE8B",
"oX c #D8B889",
"OX c #D3BA96",
"+X c #CEAF85",
"@X c #C5B4BC",
"#X c #C5B9B9",
"$X c #DFC091",
"%X c #E1C292",
"&X c #E4C89C",
"*X c #E0C08D",
"=X c #C9C2BF",
"-X c #E6CDA5",
";X c #E7CFA8",
":X c #E8D1AB",
">X c #EDD5B0",
",X c #CCC9C5",
"<X c #CCC8C5",
"1X c #D3CCCA",
"2X c #D5D1CD",
"3X c #D6D4D1",
"4X c #DAD5D3",
"5X c #DCD9D6",
"6X c #DDDCD9",
"7X c #DED4D9",
"8X c #DACED3",
"9X c #E1DEDB",
"0X c #E0D5DA",
"qX c #E4E2DE",
"wX c #E6E4E2",
"eX c #E9E6E3",
"rX c #EBE9E6",
"tX c #EDECEA",
"yX c #F1EFEC",
"uX c #F2F1EF",
"iX c #F3F3F2",
"pX c #F8F7F5",
"aX c #FAF8F6",
"sX c #FEFEFE",
"dX c #F7F8F7",
/* pixels */
"7 6 7 9 y t q 7 q 8 7 5 7 y t r iXsXsXsXsXsXsXsXsXaXpXaXaXaXtX5Xt 6 7 6 5 5 8 y 7 : 5 : 5 7 5 9 qXaXsXsXsXsXtXaXsXsXsXsXwXsXaXsX",
"y 9 r -.u r 8 5 5 5 5 5 8 7 5 t iXsXsXsXsXsXsXsX9X.X[.}.}.[.[.[.~ 4 e e 0 > 9 =.=.y r 7 q t 6 9 qXsXsXsXsXsXpXuXsXsXsXsXsXsXsXiX",
"y 8 8 8 6 5 5 6 5 5 5 7 7 7 5 8 9XsXsXsXsXsXpXpX XO.~ E E E E E J H H K # < w =.:.u u r 7 5 * 9 eXsXsXsXsXiXeXpXqXsXsXsXsXsXsXyX",
"8 8 8 8 8 5 5 5 7 8 t 8 5 5 : r uXsXsXuXiXpX<X}.m.x V +.y.y.y.y.p.p.p.y.+. .~ 3 & & 5 5 : : : 7 6XsXsXsXsXpX,XuXsXsXsXpXsXsXsXsX",
"8 q r q y y y W =.u r 8 5 5 : r 6XaXsX9XyXpX|.&.b ] e.Z.K.K.K.K.K.K.K.K.K.x.Y % # o 6 6 5 5   q uXsXsXsXsXaXaXaXsXsXtXqXsXsXsXsX",
"6 7 q 7 8 q t =.W ..u 9 8 5   r qXsXsX,X4X}.N.n F f.H.!.^.^.^.^.^.^.^.^.^.W.M.+.x g $ > 5 6 5 r iXsXsXsXsXsXaXsXsXsXrXrXsXsXsXsX",
"7 q q 7 7 7 6 6 7 y u =.t t r q wXsXsXtX@X*.f A e.H.!.&X;X;X;X;X;X;X;X;X;X$XE.v.w.z + & 7 6 6 q iXsXsXsXsXsXsXsXsXsXqXyXsXsXsXsX",
"8 q 7 7 7 7 8 7 8 y r q 8 y u u wXsXwX[.2.) F f.H./.%X;X:X:X:X:X:X:X:X:X:X-XXX(.S.i.d = 6 6 : q tXsXsXtXaXsXsXsXsXsXsXqXuXsXsXsX",
"r W y q 7 7 6 6 7 6 7 5 5 5 * r iXsX7X*.s F e.S.Q.&X:X:X:X:X:X:X:X:X:X:X:X:X:XXXU.g.P - * 5 * t 2XwXiXuXaXsXsXsXpXsXsXeX1X3XaXsX",
"y r 9 t r 9 8 7 5 5 5 5 5 5 * q iXsX7X*.P f.S.D.Q.&X:X:X:X:X:X:X:X:X:X:X:X:X:XXXU.j.F j $ & : y ,XpXsXsXsXsXsXsXsXsXsXsXtXtXsXuX",
"8 7 8 8 q 8 7 8 7 7 6 6 5 7 * q iXaX1X*.U c.G.F.R.XX-X;X:X:X:X:X:X:X:X:X:X;X&X^.P.k.0.z # & 5 q iXsXsXsXsXsXsXsXsXsXsXsXsXsXsXsX",
"5 5 5 6 5 6 6 : : : 5 6 5 6 5 t iXsX8X*.U c.G.F.I.E.^.;X:X:X:X:X:X:X:X:X:X&XQ.U.L.A.z.+.s 3 : r iXsXsXsXsXsXsXsXsXsXsXsXsXsXsXsX",
"5 5 5 5 : 5 5 8 7 8 5 : : 7 8 q iXsX8X*.U c.G.F.G.G.Q.XX%X%X%X%X%X%X%X%X%X^.P.D.G.L.G.a.J 3 5 q iXsXsXsXsXsXsXsXaX2X5XiXsXaXsXsX",
"5 5 : : 5     5 7 6 7 6 5 6 * 8 iXsX7X*.U c.G.F.G.G.I.U.U.U.U.U.U.U.U.U.U.P.L.G.G.G.G.a.J 3 5 q iXsXsXsXsXsXsXsX9X3XsXaXsXeXwXsX",
"5 8 6 . .   . .     5 *     . 7 iXsX0X*.U c.G.F.G.G.G.F.F.F.F.F.F.F.F.F.F.G.G.G.G.G.G.a.J 3 6 r iXsXsXsXsXsXsXsXuXaXsXsXsXsXsXiX",
"8 8 u q 8 7 8 8 7 7 8 r r 8 8 u eXdX1X*.U c.G.F.G.G.G.G.G.G.G.G.G.G.G.G.G.G.G.G.G.G.G.a.J 4 u =.6XiXiXiXiXiXiXtX9XiXiXiXiXiXiXiX",
"iXtXiXiXuXiXiXiXuXiXiXiXiXiXiXrXy 8 9 2 ^ c.G.F.G.G.G.G.G.G.G.G.G.D.x.s.s.x.Z.G.F.G.L.a.L _.tXrXW y r r q q q u r q r 8 r 8 r q ",
"iXsXaXsXsXsXsXsXsXuXsXsXsXsXsXiXr   = 2 ^ c.G.F.G.G.G.G.G.G.G.F.G.Z._ L L ) c.G.F.G.L.a.L ).aXiXr 6 7 5 5 5 7 r 6 5 : *         ",
"pXsXsXiXsXsXsXtXpXpXsXsXsXaXsXyXr 5 6 2 U c.G.F.G.G.G.G.G.G.G.D.z.f.y._ _ +.p.x.Z.G.G.a.L ).pXiXW y r 9 5 : 5 6 7 6 6 6 5 5 6 6 ",
"sXiXaX5XeXsXsXwXiXsXsXsXsXsXsXiX7 5 e 2 ^ c.G.F.G.G.G.G.G.G.G.D.e.9.l.Z.Z.x./ ) n.G.D.a.L _.pXiXr 8 r 7 6 : 5 5 6 * : * : 5     ",
"uXiXsXiX,XsXsXrXiXsXsXsXsXsXsXiXr 5 e 2 ^ c.G.F.G.G.G.G.G.G.G.D.l.f.S.G.G.c.P / n.S.j.| d C.yX<Xr r r 6 5 6 5 9 u q r y t r t 8 ",
"sXsXsXsXyXaXsXsXsXsXsXsXsXsXsXiXy 7 6 2 ^ c.G.F.G.G.G.G.G.G.G.G.D.D.D.F.G.c.U / c.l.[ k j C.3X].u u t 8 7 5 7 y y u r r t r =.t ",
"sXsXaXrXsXsXsXsXsXsXsXsXsXsXsXuXq 7 0 2 ^ c.G.F.G.G.G.G.G.G.G.G.G.G.G.G.G.c.P P 0.} b v 0 ,.`.7.5.>.y t r 7 r :.u u 8 8 8 : 8 5 ",
"sXqX<XpXsXsXsXsXaXiXsXsXsXsXsXeXr 5 9 2 U c.G.F.G.G.G.G.G.G.G.G.G.F.D.A.A.x.U d V l G 4 u =.;.6.'.5.=.u y 6 8 ..r q 6 6 5 6 6 6 ",
"3XrX6XaXsXsXsXsXpXtXsXaXsXsXsXiXq 5 6 - b v.G.G.G.G.G.G.G.G.G.G.G.D.j.0._ ) S b f K e e u ,.7.5.5.6.6.>.y r r u q : 5   5 5 7 8 ",
"yXaXsXsXsXsXsXsXsXsXsXyXpXsXsXiXr 5 6 o c h.A.D.G.G.G.G.G.G.G.G.G.A.e.A Y P M V L ~ u u u 5.'.5.:.6.'.,.t t y r 8 6 : * 5 6 6 * ",
"sXiXsXsXsXsXsXsXaXwXsXsXsXpXsXiXr 6 9 7 < Y p.Z.G.G.G.G.G.G.G.G.G.D.z.l.x.i.c R 8.4.=.y u :.,.6.7.5.,.-.u t 5 6 6 7 5 5 5   *   ",
"sXsXsXsXsXsXsXsXyXeXsXsXsXsXrX5Xt 6 9 8 6 2 Y h.b.n.n.n.n.n.Z.F.G.G.P.U.T.n.x R B.6.>.-.u u u 5.`.,.y y y r q 6 6 6 6 6 7 7 7 7 ",
"sXsXsXsXsXsXsXaXsXuXsXsXsXsXsXiXy 5 8 q 9 0 0 n n / / / / ( g.D.G.I.!.XX*XW.} c R 1.V.5.=.y u ;.>.-.y t t y y q 8 8 r r q 8 8 7 ",
"sXsXsXsXsXsXsXsXaX2XsXsXsXsXsXrXr 5 7 r W 9 & O # U U U U / g.D.G.I.XX:X:X+Xh.C @ Q V.6.,.>.>.>.:.-.y y ..r 7 7 8 8 9 7 5     : ",
"sXsXsXsXsXsXsXsXsXsXsXsXsXsXsXiX9 5 8 7 6 o O O n h.c.c.c.c.Z.F.G.P.XX:X:XXXK.u.j < ;.5.`.'.'.'.`.,.t r t 8 r 8 8 5 5 5 5 5     ",
"iXtXiXiXiXuXiXiXiX1XrXiXiXtXrXrX=.y =.u 0 $ O O  .Y.Q.R.P.L.G.G.G.I.!.XXXX^.P.h.v - t ,.7.`.`.`.7.,.y y r r t t W ..r t W u q q ",
"8 r r t r 9 9 q q 8 q r t y r -.3XwXiXiX#XO.; O #.+X&X%XQ.L.G.G.G.L.P.P.U.P.L.h.P 3 i =.:.:.:.:.,..X,X3XiXuXiXiXuXiXiXiXyXtXiXiX",
"5     5 * : : 6 : 5 6 5 7 5 : q 3XsXiX<X].R X O #.OX>X;X/.L.G.G.G.G.G.G.G.G.G.x.S d 0 w y u y y `.5X6XiXsXsXsXsXsXsXsXsXsXsXsXsX",
"7 * * * * : 6 7 5 5 5 9 7 8 7 r yXsX5X3.v G % O #.OX:X;X/.L.G.G.G.G.G.G.G.G.G.k.[ k @ , y W y t 3XiX2XsXsXsXsXsXsXsXsXsXsXuXuXuX",
"5 r u t 7 8 q 5 5 5 5 6 6 6 5 r uXwX1X@.; f a O #.OX:X;X/.L.G.G.G.G.G.G.G.A.l.q.{ z # - r t q y iXsXaXsXsXsXsXsXsXsXsXsXsXiXpXsX",
"5 8 u y r r 6 * 5 6 7 5 5 6 : q iXaX2X@.@ M z + #.OX:X-X~.L.G.G.D.D.D.D.D.b.0.{ ' l s 3 8 r 8 r iXsXsXsXsXsXsXsXsXsXsXsXsXsXsXsX",
"5 :     * 5 5 : 5 * 5 5 5 6 7 r iXsX3Xo.@ N z + #.OX&X/.E.L.G.D.k.r.r.r.r.t.t.t.t.w.b a & 6 9 y iXsXsXsXsXsXrXuXsXsXsXsXsXsXsXsX",
":   8 u r 7 8 9 r r 7 5 : 5 6 y 5XsX3X@.@ N z + #.OX^.P.G.G.G.D.q.' ' { { 0.z.D.D.j.[ k + & 5 y ,XsXsXsXaXiX9X9XsXsXsXsXsXsXsXsX",
"5 7 t -.t 7 5 y =...r r 8 6 * 8 qXsX3X@.@ N z + $.W.R.L.G.F.G.A.+.b M { q.l.A.G.G.S.j.| @ & q ;.tXsXsXsXpXrXaXiXsXsXsXsXsXsXsXsX",
"6 t W t r r 5 q q 6 5 7 y t 9 q iXsX2X@.@ M z + D b.D.D.D.F.G.A.) s l [ z.G.F.G.G.F.F.u.@ < -.=.iXsXpXsXsXsXuXaXsXsXsXsXsXsXuXpX",
"y <.y 6 u ..8 9 9 6 5 5 q r 8 W uXsX3X@.O g p % b 0.e.e.k.D.G.Z.) # z [ z.G.G.G.G.G.G.u.@ & 5 t iXsXpXsXsXsXpXsXsXsXsXsXsXaXpXeX",
";.;.8 7 r r u W 5 5 5 7 q r r W qXsX5X3.v $ X s f C B ' t.D.G.Z.| @ z [ z.G.G.G.G.G.G.u.@ & 6 u pXsXsXsXsXsXsXsXsXsXsXsXsXaXsXsX",
";.9 7 5 5 5 6 ..9 5 5 8 t r 6 W tXsXiX<X].R + l V B B ' t.D.L.A.D + z 9.z.L.G.G.G.G.G.u.@ & 8 =.iXpXiXsXsXsXsXsXsXsXsXuXsXsXsXsX",
"7 5 5 5 7 6 5 q 8 7 7 6 q 8 r u iXsXsXsX1Xo.@ N ' B B ' e.b.D.A.} k z ] j.S.D.G.G.D.S.} @ & 5 y rXyXaXsXsXsXsXsXsXsXsXsXsXsXsXsX",
"6 6 6 6 6 7 7 9 8 r r r q u u ..iXsXsXsX1Xo.p N ' B B ' [ 0.k.D.v.d.x h ] t.S.G.G.z.q.C @ & 7 u rXsXsXiXsXsXsXsXsXsXsXuXsXsXsXsX",
"r r 5 * 8 8 8 t r q 8 7 8 ..q =.yXaXpX5X{.! p N ' B B B N C f.D.G.Z.} c z ] f.c.c.u.C h $ & 5 r iXsXsXsX,X4XsXsXsXsXsXsXsXsXsXsX",
">.:.y y :.>.u y t u ..q u u t :.5XiX1XB.! K d C ' B B B b f a.D.G.D.b.d.x p Y / / b p < w q q =.rXiXiXpX3X6XiXiXuXtXiXiXuXiXwXwX",
"uXrXuXiXiXiXiXyXeXrXqX6XpXiXiXwX<.X.T - X 2 d C ' B B B b H +.k.A.G.G.S.} n ( U G I 1.].eXtXiXrX-.t u t u ..y t y y y y u y r t ",
"sXsXsXaXsXsXsXaXsXsXsXsXsXsXsXiX.., o % 2 2 d C ' B B B b G S w.z.G.G.D.S.v.n.a.L 4.#XyXsXsXsXiXr 6 q t q r 8 5 6 5 5 5 7 8 6 6 ",
"wXsXaXtXsXsXpXsXsXsXsXsXsXsXsX=X, 1 h f f f b N ' Z B B l s l { j.G.G.G.G.D.z.u.S 1.{.3XiXiXsXiXr q u y r t y r 8 8 8 7 q 9 6 7 ",
"sXsXsXsXsXsXpXsXsXsXsXsXsXaXeXV.+ k N N C C N B B B B B k + k { j.G.G.G.G.b.0.' B x m J.yXsXsXiXq : r y u y y q 7 8 8 9 r 7 6 6 ",
"wXsXsXsXsXpXtXsXsXsXsXsXsXeX<X2.+ z ' ' Z Z ' B B B B B k + p V j.G.G.G.G.S.t.q.e.` + B.tXsXsXiX9 : 6 9 r 8 8 8 7 8 7 6 5 7 7 8 ",
"wXsXsXsXsXuXiXsXsXsXsXsXsX3X5X3.+ z B B Z Z Z Z B B B B k + % J s.G.G.G.G.F.D.D.D.d.g B.tXsXsXiX8 * r 8 r 6 5 8 r q 7 6 5 5 6 8 ",
"aXsXsXsXsXsXsXsXsXsXsXsXsXsX3X1.+ a l C Z Z Z Z C b b b a O % J s.G.G.G.G.G.G.G.L.f.g B.tXsXsXiX8 : 7 5 6 5 7 5 5 6 6 6 6 6 8 q ",
"uXpXsXsXsXsXsXsXsXsXsXsXsXsXqX3.O % s V B B B B l s G G % O % J s.G.G.G.G.G.F.F.G.f.g B.tXsXsXiX8 5 5 6 6 5 5 7 8 7 6 5 5 8 r y ",
"pX3XaXsXsXsXsXsXsXsXsXsXsXsXiX X, % # h h h h h p # % % - & - d f.G.G.G.G.G.G.G.L.f.g B.yXsXsXiXt : 6 7 6 8 6 7 8 6 6 5 6 8 7 ..",
"sX,XrXsXaXiXsXsXsXsXpXsXsXsXsXiXq o O O $ $ $ O O O O O , 9 & @ u.D.D.D.D.D.D.D.D.d.g B.tXsXsXiX8 : 5 5 5 5 6 5 5 6 8 r 8 5 5 6 ",
"sXtX5XsXiXuXsXsXsXsXsXiXaXsXsXiXt > > , , 0 T Q 0 , , > 6 7 & @ ` e.e.e.e.e.e.e.e.] @ 3.2XtX4X4Xr * * 5 5 5 5 5 6 t 8 5 6 5 5 5 ",
"sXiX3XsXwXyXsXpXsXsXsXsX9XpXsXiXy u =.8 7 7 u ,.:.t 7 6 7 6 & $ x N C C C C C C N x m B.wXuXwXtX8   5 6 5 5 5 5 5 6 : 6 r r 6 6 ",
"sXsXaXsXpXyXsXsXsXaXsXiXyXtXsXiXr t y 9 8 7 8 y ;.;.u q 7 7 > , @.p a d d d d a p #.{.3XaXsXsXiX7 . : * : : 5 6 7 r t 8 y -.8 6 ",
"sXsXaXpXiXsXsXsXsXsXsXaXaXaXsXiXu 7 7 7 7 8 8 8 y y y u 8 8 7 q V.! %.%.&.&.&.%.! J.rXsXsXsXsXiX8 . : 5 6 5 7 u -.u ..r 8 y r 7 ",
"sXsXuXqXaXsXsXsXsXsXsXsXsXsXsXiX=.r q 8 7 7 8 q t :...8 8 8 5 r ,X#X@X@X@X@X@X@X X3XiXsXaXsXsXiX8   5 8 8 q r u t t r 5 7 r u 8 ",
"sXsXsXsXsXuXsXsXrX6XuXrXsXpXsXiXr 6 q r r 6 6 7 7 t :.r 8 7 6 q uXsXsXsXsXsXsXsXsXsXsXiXsXsXsXiX8 : 7 6 5 7 r r 8 6 8 6 8 8 r 5 "
};
