/* XPM */
static char *_a2bdb2fef17496b9c270f5a488474950oge8IMAXn11MHGl[] = {
/* columns rows colors chars-per-pixel */
"64 64 221 2 ",
"   c #1E1D1B",
".  c #1A1917",
"X  c #2F0C00",
"o  c #350D08",
"O  c #2E1506",
"+  c #331504",
"@  c #391602",
"#  c #3C1B03",
"$  c #36180A",
"%  c #3B0918",
"&  c #211F1D",
"*  c #2D1D14",
"=  c #341915",
"-  c #21211F",
";  c #2C221C",
":  c #33241C",
">  c #382417",
",  c #3D220A",
"<  c #3A0925",
"1  c #2D1B24",
"2  c #361827",
"3  c #252422",
"4  c #292725",
"5  c #2A2926",
"6  c #2D2C2A",
"7  c #312F2D",
"8  c #372627",
"9  c #32312F",
"0  c #3C322C",
"q  c #3C2C33",
"w  c #353432",
"e  c #383735",
"r  c #3A3936",
"t  c #3D3C3A",
"y  c #3C3539",
"u  c #431D02",
"i  c #44190A",
"p  c #4B121C",
"a  c #4A191B",
"s  c #461516",
"d  c #541D14",
"f  c #420C1E",
"g  c #4D2501",
"h  c #43230C",
"j  c #4A2507",
"k  c #532902",
"l  c #59250D",
"z  c #5A2B08",
"x  c #5C3104",
"c  c #5A330D",
"v  c #592413",
"b  c #4F2E17",
"n  c #612E0C",
"m  c #643404",
"M  c #663900",
"N  c #6D3E01",
"B  c #66380A",
"V  c #622C17",
"C  c #673A15",
"Z  c #713B17",
"A  c #420B23",
"S  c #470D27",
"D  c #4E1329",
"F  c #4A1624",
"G  c #531929",
"H  c #521932",
"J  c #482A25",
"K  c #5E2427",
"L  c #543529",
"P  c #56223C",
"I  c #502735",
"U  c #413F3D",
"Y  c #453A32",
"T  c #4C2D35",
"R  c #652A2B",
"E  c #622728",
"W  c #763C2C",
"Q  c #763C2A",
"!  c #693132",
"~  c #6F4104",
"^  c #714101",
"/  c #7A4907",
"(  c #75440B",
")  c #7D4C0A",
"_  c #77480A",
"`  c #76451A",
"'  c #754B1B",
"]  c #42413E",
"[  c #5E473A",
"{  c #5D4437",
"}  c #794328",
"|  c #7B4030",
" . c #6B523C",
".. c #6C4B33",
"X. c #592742",
"o. c #513442",
"O. c #683952",
"+. c #444342",
"@. c #484644",
"#. c #4B4846",
"$. c #4C4B4A",
"%. c #514B46",
"&. c #545353",
"*. c #5A595A",
"=. c #57524E",
"-. c #6A5347",
";. c #6F584C",
":. c #766255",
">. c #646464",
",. c #6B6B6A",
"<. c #757474",
"1. c #7B7B7B",
"2. c #796F6A",
"3. c #83510E",
"4. c #845213",
"5. c #8B5913",
"6. c #895717",
"7. c #915F19",
"8. c #844E1D",
"9. c #95631A",
"0. c #9B681E",
"q. c #894F2F",
"w. c #885726",
"e. c #834932",
"r. c #844A32",
"t. c #8C5232",
"y. c #8B543A",
"u. c #90582F",
"i. c #9C6B27",
"p. c #9B6334",
"a. c #8C6431",
"s. c #A16D26",
"d. c #AB762A",
"f. c #AD792C",
"g. c #A67125",
"h. c #B17B2D",
"j. c #A56E37",
"k. c #AE7B33",
"l. c #AB7436",
"z. c #B27D33",
"x. c #B37B3A",
"c. c #947253",
"v. c #8C7975",
"b. c #907773",
"n. c #875E5E",
"m. c #B68234",
"M. c #BB8535",
"N. c #BD863C",
"B. c #BE883A",
"V. c #B48038",
"C. c #C38C3C",
"Z. c #C7903D",
"A. c #C8913E",
"S. c #AF8553",
"D. c #9B8063",
"F. c #928278",
"G. c #BF9A62",
"H. c #CA9443",
"J. c #CC984A",
"K. c #C89448",
"L. c #CC9C54",
"P. c #C9964E",
"I. c #D1A25B",
"U. c #CDA05D",
"Y. c #C99F61",
"T. c #D6AC6C",
"R. c #D4A764",
"E. c #DAB47A",
"W. c #D0A76A",
"Q. c #987989",
"!. c #887F83",
"~. c #848484",
"^. c #8D8D8C",
"/. c #9C8888",
"(. c #979796",
"). c #9A8E92",
"_. c #A3958E",
"`. c #A99A95",
"'. c #A48997",
"]. c #B1A49D",
"[. c #B6A3A9",
"{. c #BDA7B4",
"}. c #BBBAB8",
"|. c #B8B0AB",
" X c #B39EAA",
".X c #DDBA85",
"XX c #DEBC88",
"oX c #C5BDB8",
"OX c #DEC092",
"+X c #E3C699",
"@X c #C8C0BB",
"#X c #E6CCA3",
"$X c #E7CFA8",
"%X c #E8D0AB",
"&X c #EAD4B0",
"*X c #CBBBC3",
"=X c #CBC8C5",
"-X c #D4CECA",
";X c #D2C8C6",
":X c #D5D1CD",
">X c #D9D6D2",
",X c #DCD9D6",
"<X c #DDDCD9",
"1X c #D6D3D1",
"2X c #DACDD4",
"3X c #E1DEDB",
"4X c #E4E1DE",
"5X c #E5E4E2",
"6X c #E9E6E4",
"7X c #EBE9E6",
"8X c #EDECEA",
"9X c #F0EEEC",
"0X c #F3F1EF",
"qX c #F3F3F2",
"wX c #F8F7F5",
"eX c #FAF9F6",
"rX c white",
"tX c #FEFEFE",
"yX c #FEFEFD",
"uX c #FEFEFE",
"iX c #F7F9F8",
/* pixels */
"5 4 5 7 r e 9 5 9 6 5 3 5 r e w qXrXrXrXrXrXrXyXrXrXyXrXrXrX0X4Xe 4 5 4 3 4 6 r 5 3 3 - 3 5 3 7 4XeXrXrXrXrX8XeXrXrXrXrX5XrXeXrX",
"r 7 w @.t w 6 3 3 3 3 3 6 5 3 e qXrXrXrXrXrXrXrXrXqXqXeXeX9X5X8X+.e U t e 7 w +.+.t e 6 9 e 4 7 4XeXrXrXrXrXqX0XyXrXrXrXrXrXrXqX",
"r 6 6 6 4 3 3 4 3 3 3 5 5 5 3 6 3XrXrXrXrXyXyXrXrXeX=X/./.Q.'.Q.T 2 2 2 2 8 : 0 $.t U w 5 3 & 7 6XrXrXrXrXqX6XqX4XrXrXrXrXrXyX9X",
"6 6 6 6 6 3 3 3 5 6 e 6 3 3 - w 0XrXrXqXqX0X3XqXqX8X/.L F H H H D S D S A % + * 3 3 4 3 - - - 5 <XrXrXrXrXqX=X0XrXrXrXqXrXrXrXrX",
"6 9 w 9 r r r U +.t w 6 3 3 - w <XeXrX3XqXrXoXF.v.Q.n.w.w.q.q.q.t.t.t.t.t.} x h 2 1 5 4 3 3   9 0XrXrXrXrXeXeXeXyXrX8X4XrXrXrXrX",
"4 5 9 5 6 9 e +.U ] t 7 6 3   w 4XyXrX=X7XqX].b s G y.K.K.K.K.K.K.K.K.K.K.f.) v S 2 5 6 3 3 3 w qXrXrXrXrXrXeXrXrXrX7X7XrXrXrXrX",
"5 9 9 5 5 5 4 4 5 r t +.e e w 9 5XrXrXeX>XF. .c Z u.S.E..X.X.X.X.X.X.X.X.XY.k.8.n a < 8 5 4 4 7 qXrXrXrXrXrXrXrXrXrX4X9XrXrXrXrX",
"6 9 5 5 5 5 6 5 6 r w 9 6 r t t 6XrXeXeX@XL g ( s.P.E.$X%X%X%X%X%X%X%X%X%XXXI.f.3.V p 2 4 4 & 9 8XrXrX8XeXrXrXrXrXrXrX4X0XrXrXrX",
"w U r 9 5 5 4 4 5 4 5 3 3 3 & w qXrXrXyX*XX.V s.P..X+X$X%X%X%X%X%X%X%X%X%X+XOXY.z.8.n a < 1 - e :X5XqX0XeXrXrXrXwXyXrX6X-X1XeXrX",
"r w 7 e w 7 6 5 3 3 3 3 3 3 & 9 qXrXqX3X`.! Q N.T.#X%X%X%X%X%X%X%X%X%X%X%X%X%XE.K.g.4.v < 1 3 r =XqXrXrXrXrXrXrXrXrXrXrX8X8XyX0X",
"6 5 6 6 9 6 5 6 5 5 4 4 3 5 & 9 qXeX:Xv.{ n 8.M.T.#X%X%X%X%X%X%X%X%X%X%X%X%X%XE.K.M.k.Q A 1 3 9 qXrXrXrXrXrXrXrXrXrXrXrXrXrXrXrX",
"3 3 3 4 3 4 4 - - - 3 4 3 4 3 e qXrX;X%.i _ i.C.I..X+X$X%X%X%X%X%X%X%X%X%X+X+XT.K.Z.C.| A 2 3 w qXrXrXrXrXrXrXrXrXrXrXrXrXrXrXrX",
"3 3 3 3 - 3 3 6 5 6 3 - - 5 6 9 qXrX;XO.K j.C.C.K.L.E.$X%X%X%X%X%X%X%X%X%XXXI.K.H.Z.C.| A 1 3 9 qXrXrXrXrXrXrXrXeX:X,XqXrXeXrXrX",
"3 3 - - 3     3 5 4 5 4 3 4 & 6 qXrX2XO.E x.A.Z.Z.Z.R..X.X.X.X.X.X.X.X.X.XT.K.Z.Z.Z.C.| A 2 3 9 qXrXrXrXrXrXrXrX3X1XyXeXyX6X5XyX",
"3 6 4 . .   . .     3 &     . 5 qXrX2XO.E x.Z.Z.Z.Z.K.J.J.J.J.J.J.J.J.J.J.K.Z.Z.Z.Z.C.| A 1 4 w qXrXrXrXrXrXrXrX0XeXrXrXrXrXrXqX",
"6 6 t 9 6 5 6 6 5 5 6 w w 6 6 t 6XiX=XO.E x.Z.Z.Z.Z.Z.Z.Z.Z.Z.Z.Z.Z.Z.Z.Z.Z.Z.Z.Z.Z.C.| A q t ] <XqXqXqXqXqXqX8X3XqXqXqXqXqXqXqX",
"qX8XqXqX0XqXqXqX0XqXqXqXqXqXqX7Xr 6 8 < R x.Z.Z.Z.Z.C.C.C.C.Z.Z.Z.Z.Z.Z.Z.Z.Z.Z.Z.Z.C.W P  XeX6X] r w w 9 9 9 t w 9 w 6 w 6 w 9 ",
"qXrXeXrXrXrXrXyXeX0XrXrXrXrXrXqXw   & < R x.Z.Z.Z.Z.j.q.e.t.x.Z.Z.Z.Z.Z.Z.Z.Z.Z.Z.Z.C.W X.{.rXqXw 4 5 3 3 3 5 w 4 3 - &         ",
"qXrXrXqXrXrXrX8XwXwXyXrXrXeXrX8Xw 3 1 < R x.Z.Z.C.N.q.G D K p.C.C.Z.Z.Z.Z.Z.Z.Z.Z.Z.C.W X.{.rXqXU r w 7 3 - 3 4 5 4 4 4 3 3 4 4 ",
"yXqXeX,X6XrXrX5XqXrXyXrXrXrXrXqX5 3 q < R x.A.Z.j.e.e.t.t.t.w.i.M.Z.Z.Z.Z.Z.Z.Z.Z.Z.C.W P [.rXqXw 6 w 6 4 - 3 3 4 & - & - 3     ",
"0XqXrXqX=XrXrX7XqXeXrXrXrXqXqX5X9 3 q < E l.C.Z.u.G e.N.Z.M.7.3.h.Z.Z.Z.Z.Z.Z.Z.Z.Z.C.W P /.rXqXw 6 6 3 3 4 3 7 t 9 w r e w e 6 ",
"rXrXrXrX9XeXrXrXrXrXrXrXeX}.~.1.r 6 4 = j 4.g.C.u.D e.C.A.C.h.d.B.Z.Z.Z.Z.Z.Z.Z.Z.Z.C.Q X.'.eXqXw 4 4 4 5 3 5 r r t w w e w +.e ",
"rXrXeX7XrXrXrXrXrXrXrXqX<X~.+.+.+.e 5 * h x 4.h.q.D e.C.Z.Z.Z.Z.Z.Z.Z.Z.Z.Z.Z.Z.Z.Z.C.W P {.eX-X7 4 4 4 5 4 w $.t t 6 6 6 - 6 3 ",
"yX4X=XwXrXrXrXrXeXqXrX}.1.&.+.,.1.$.e 0 8 a V 4.C S e.C.A.Z.Z.Z.Z.Z.Z.Z.Z.Z.Z.Z.Z.Z.C.W X.{.eX}.e 6 6 6 5 - 6 ] w 9 4 4 3 4 4 4 ",
">X7X<XeXrXrXrXrXqX8XyX(.+.+.*.1.~.>.$.+.q 2 a n v p } j.z.m.C.Z.Z.Z.Z.Z.Z.Z.Z.Z.Z.Z.C.Q P [.rXqXr 4 9 w w 9 w t 9 - 3   3 3 5 6 ",
"9XeXrXrXrXrXrXrXrXrXeX(.#.>.~.>.*.1.1.$.y y J p d n V E Z 5.f.Z.Z.Z.Z.Z.Z.Z.Z.Z.Z.A.C.` J [.rXqXw 4 5 6 6 w t w 6 4 - & 3 4 4   ",
"rXqXeXrXrXrXrXrXqX5XyX(.#.>.~.>.*.1.<.$.r t o.o.L x V R ` 5.h.Z.Z.Z.Z.Z.Z.Z.Z.Z.Z.x.j. .-.@XrXqX+.e U w r e 3 3 4 5 3 3 3   &   ",
"rXrXrXrXrXrXrXrX9X6XrX(.+.+.&.1.~.>.#.+.r r *.!.;.h ` l.z.m.C.Z.Z.Z.Z.Z.Z.Z.Z.A.H.u.R b.@X9XrX0X$.&.@.w r w 9 4 4 4 4 4 5 5 5 5 ",
"rXrXrXrXrXrXrXeXeX0XeX=X1.&.+.,.<.$.r r +.&.>.2. .j a.U.R.I.J.Z.Z.N.j.p.p.p.p.p.i.y.n.*XrXrXrX6XU r 6 9 w r r 9 6 6 w w 9 6 6 5 ",
"rXrXrXrXrXrXrXrXeX:XrXiX5X~.+.+.+.] t r &.~.2.J j B S.OX#X+XR.Z.H.x.! D D D D a h F.3XwXrXrXeX,X+.5 w r ] w 5 5 6 6 7 5 3     - ",
"rXrXrXrXrXrXrXrXrXrXrXrXeX(.+.&.>.>.>.>.,.<.=.$ x 7.G.#X&X#XR.Z.Z.x.t.W W W W v $ -.`.,XrXrXrX8Xw & 3 6 r 6 w 6 6 3 3 3 3 3     ",
"qX8XqXqXqX0XqXqXqX-X7XqX6X^.$.<.(.(.(.(.1.&.0 $ ` V.T.+X%X+XR.Z.Z.C.B.N.N.N.S.w.# $ b `.qXqXqX7Xt 6 e e w w e e U ] w e U t 9 9 ",
"6 w w e w 7 7 9 9 6 9 w e w r *.,.,.<.<.>.+.8 % } B.I.T.E.T.L.Z.Z.Z.Z.J.T.E.E.c.h X + Y $.t w ] 7XqX4X<XqXqXqXqX0XqXqXqX9X8XqXqX",
"3     3 & - - 4 - 3 4 3 5 3 5 r #.+.+.+.U t q < | N.H.H.K.H.H.Z.Z.Z.Z.I.+X$X$Xc.h + + * 3 3   r qXrX,XqXrXrXrXrXrXrXrXrXrXrXrXyX",
"5 & & & & - 4 5 3 3 3 7 5 6 5 e (.*.e r 9 : h v w.C.H.Z.Z.Z.Z.Z.Z.Z.Z.I.+X%X%XD.h o % = * ; 4 9 6XrX:XrXrXrXrXrXrXrXrXrXrX0X0X0X",
"3 w t e 5 6 9 3 3 3 3 4 4 4 - e 1X<.#.&.U = g M 7.M.C.Z.Z.Z.Z.Z.Z.Z.Z.I.+X%X%XD.h o f o + 5 5 e qXrXeXrXrXrXrXrXrXrXrXrXrXqXwXrX",
"3 6 t r w w 4 & 3 4 5 3 3 4 & w 7X=X}.}.).I i M / 5.d.C.H.H.H.H.Z.Z.Z.I.+X%X%XD.h u l i + : 5 w qXrXrXrXrXrXrXrXrXrXrXrXrXrXrXrX",
"3 -     & 3 3 - 3 & 3 3 3 4 5 w qXrXeX=X`.O.d ( ) ) 0.m.M.M.M.M.C.Z.Z.L.XX#X$XD.h g M g + ; 9 r qXrXrXrXrXrX8X0XrXrXrXrXrXrXrXrX",
"-   6 t w 5 6 7 w w 6 3 - 3 4 r ,XrX3XF...V ` g.h.d.0.5.4.5.5.9.m.Z.Z.K.L.E.#XD.h g M g + * 3 r =XrXrXrXeXqX3X3XrXrXrXrXrXrXrXrX",
"3 5 e +.e 5 3 r +.] w w 6 4 & 6 4XrX-X[ u ( 0.B.A.C.g.3./ N m ( d.Z.Z.Z.Z.I.XXc.h g M g + ; w #.8XrXrXrXqX7XeXqXrXrXrXrXrXrXrXrX",
"4 e U e w w 3 9 9 4 3 5 r e 7 9 qXrX-X[ z i.M.C.Z.Z.M.h.5.N d K j.Z.Z.Z.Z.J.L.a.# k N g + 0 #.] qXrXwXrXrXrX0XeXrXrXrXrXrXrX0XqX",
"r $.r 4 t ] 6 7 7 4 3 3 9 w 6 U 9XrX-X[ c z.H.Z.Z.Z.Z.C.9.N s F p.Z.Z.C.z.f.h.' i u x g + : 3 e qXrXqXrXrXrXwXeXrXrXrXrXyXeXwX6X",
"#.#.6 5 w w t U 3 3 3 5 9 w w U 4XrX-X[ c k.Z.Z.Z.Z.Z.C.9.N u h i.Z.Z.z.5.) ) V f % # @ + ; 5 t qXrXeXrXrXyXeXrXrXrXrXrXeXeXrXrX",
"#.7 5 3 3 3 4 ] 7 3 3 6 e w 4 U 8XrX-X[ c k.Z.Z.Z.Z.Z.C.9.N g j i.Z.Z.h.) N N n d i + O * ; 6 +.qXwXqXrXrXrXrXrXrXrXrX0XyXrXrXrX",
"5 3 3 3 5 4 3 9 6 5 5 4 9 6 w t qXrX-X[ c k.Z.Z.Z.Z.Z.C.9.N g j i.Z.Z.h.) N N N M g @ * 5 6 3 e 7X9XeXrXrXrXrXrXrXeXeXrXrXrXrXrX",
"4 4 4 4 4 5 5 7 6 w w w 9 t t ] qXrX-X[ j 7.h.C.Z.Z.m.s._ x C ' z.C.f.9./ N N ^ N k @ ; 5 6 6 t 7XrXrXqXrXrXrXrXrXrXrX0XrXrXrXrX",
"w w 3 & 6 6 6 e w 9 6 5 6 ] 9 +.8XyX:X-.j N 7.M.C.C.i.( k j w.B.C.m.4.^ ^ N N N N k + : 5 4 3 w qXrXrXrX=X>XrXrXrXrXrXrXrXrXrXrX",
"&.$.r r $.&.t r e t ] 9 t t e $.<XqX>X`.:.c n } r.e.C k C w.k.Z.H.z.Z l M N N N N l % = : 7 w +.7XqXqXqX>X<XqXqX0X8XqXqX0XqX5X5X",
"0X7X0XqXqXqXqX9X6X7X4X<XqXqXqX5X&.#.@.$.%., $ A D D s j w.B.C.C.Z.l.K p m ^ N N N v A % L _.7X6X@.e t e t ] r e r r r r t r w e ",
"rXrXrXeXrXrXrXeXrXrXrXrXrXrXrXqX+.t ] @.7 ; = < K r.w.w.k.Z.Z.B.g.8.G p m ^ N N N v A % a -._.1Xw 4 9 e 9 w 6 3 4 3 3 3 5 6 4 4 ",
"5XrXeX8XrXyXwXrXrXrXrXeXyXrXrXqXw 7 w e e 7 8 A W z.C.C.C.Z.H.M.5.m p p m ^ N N N v A A A o L ].w 9 t r w e r w 6 6 6 5 9 7 4 5 ",
"rXrXrXrXrXrXqXrXrXrXrXrXrXwXeXqXw - 3 e @.: h l Z 5.d.C.Z.Z.H.M.5.m i i m ^ N N N m l l l k c  .: - w r t r r 9 5 6 6 7 w 5 4 4 ",
"5XrXrXrXrXwX8XrXrXrXrXrXyX4X<X5Xw 5 5 t 0 O g ( ) ) s.C.Z.Z.Z.M.4.z # u m ^ N N N N N N N ^ M u O & 4 7 w 6 6 6 5 6 5 4 3 5 5 6 ",
"5XrXrXrXrX0XqXrXrXrXrXrXrX:X0X8Xr 5 9 w 8 $ c s.h.f.M.Z.Z.Z.A.x.Q s @ u M ^ ^ ^ N N N N N ^ M g O & w 6 w 4 3 6 w 9 5 4 3 3 4 6 ",
"eXrXrXrXrXyXrXrXrXrXrXrXrXrX6X>Xt r r 6 ; O C V.A.Z.Z.Z.Z.Z.A.x.R % o # z m m m N N N N N m z u O ; 5 3 4 3 5 3 3 4 4 4 4 4 6 9 ",
"0XqXrXrXrXyXrXrXrXrXrXrXrXrXqX5Xw w t 9 ; O C V.A.Z.Z.Z.Z.Z.A.x.R % o @ s p p v N ^ ^ ^ M v s o O ; 3 4 4 3 3 5 6 5 4 3 3 6 w r ",
"qX>XeXrXrXrXrXrXeXrXrXrXrXrXrXqXw r e 5 8 $ C V.Z.Z.Z.Z.Z.Z.A.x.E F L J F % % i x m x m x s A L > & 4 5 4 6 4 5 6 4 4 3 4 6 5 ] ",
"rX=X7XrXeXqXrXrXrXrXwXyXrXrXrXqXw 4 6 9 Y $ C M.H.Z.Z.Z.Z.Z.H.V.c L _.v.L X o + @ @ @ # # X L _.5 & 3 3 3 3 4 3 3 4 6 w 6 3 3 4 ",
"rX8X,XrXqX0XrXyXrXrXeXqXeXrXrXqXr 5 5 w 5 $ c i.f.d.d.d.d.d.f.i.j { ;X-Xv.:.:.:.;.:.:.-.-.-.:.|.w   & 3 3 3 3 3 4 e 6 3 4 3 3 3 ",
"rXqX1XrX5X9XrXwXrXrXrXrX3XwXrXqXr t +.6 ; + g ^ / / / / / / / ~ u [ oX7X8X5X6X5X4X6X6X:X,X,X>X6X6   3 4 3 3 3 3 3 4 - 4 w w 4 4 ",
"rXrXeXrXqX9XrXrXrXeXeXqX9X8XrXqXw e r 6 4 * , k k l l l l l k k ;._.3X9XrXrXrXyX0XrXrXrXrXrXrXqX5 . - & - - 3 4 5 w e 6 r @.6 4 ",
"rXrXeXwXqXyXrXrXrXrXrXeXeXeXrXqXt 5 5 5 5 5 : $ $ A A A A A o $ ].qXqX9XrXrXrXrXyXrXrXrXrXrXrXqX6 . - 3 4 3 5 t @.t ] w 6 r w 5 ",
"yXrX0X4XeXrXrXyXrXrXrXrXrXrXrXqX+.w 9 6 5 5 4 : 2 T T 2 2 2 * : >XrXrXeXrXrXrXeX0XrXrXrXeXeXrXqX6   3 6 6 9 w t e e w 3 5 w t 6 ",
"rXrXrXeXrX0XyXyX7X<X0X7XeXwXrXqXw 4 9 w w 4 4 5 4 w #.w 6 4 3 7 8XrXrXrXrXrXrXrXrXrXyXqXrXrXrXqX6 - 5 4 3 5 w w 6 4 6 4 6 6 w 3 "
};
