/* XPM */
static char *d4bacf6bf31145e39947fa60bd8566645gNUQ7JoLygtuBth[] = {
/* columns rows colors chars-per-pixel */
"16 16 3 1 ",
"  c None",
". c black",
"X c #FFEC00",
/* pixels */
"                ",
"   XX      XX   ",
"  XXX      XXX  ",
" XXXX      XXXX ",
" XXXXX    XXXXX ",
"XXXXXX    XXXXXX",
"XXXXXX    XXXXXX",
"XXXXXXX  XXXXXXX",
"XXXXXXX  XXXXXXX",
"XXX..XXXXXXXXXXX",
"XXX..XXXXXXXXXXX",
" XXXXXXXXXXXXXX ",
" XXXXXXXXXXXXXX ",
"  XXXXXXXXXXXX  ",
"   XXXXXXXXXX   ",
"     XXXXXX     "
};
