/* XPM */
static char *c91dbdf0560343debbc9dfdf292cf20cuL0GYA05h6760L7B[] = {
/* columns rows colors chars-per-pixel */
"64 64 238 2 ",
"   c #010000",
".  c #05080D",
"X  c #140E09",
"o  c #1E1C00",
"O  c #1A120B",
"+  c #060C13",
"@  c #0A0E13",
"#  c #040C1A",
"$  c #0C121C",
"%  c #0D1116",
"&  c #1C1711",
"*  c #23170C",
"=  c #241B13",
"-  c #281E15",
";  c #1F2008",
":  c #3A3403",
">  c #2C231A",
",  c #292619",
"<  c #32251A",
"1  c #35281A",
"2  c #342C11",
"3  c #0E1623",
"4  c #0F192A",
"5  c #0E1826",
"6  c #131A25",
"7  c #131C2A",
"8  c #101723",
"9  c #0F1E37",
"0  c #1A2329",
"q  c #172539",
"w  c #3B2E22",
"e  c #352D23",
"r  c #3D342B",
"t  c #3B3427",
"y  c #283433",
"u  c #222C30",
"i  c #463B15",
"p  c #403E0C",
"a  c #44382C",
"s  c #433C32",
"d  c #4A3E32",
"f  c #34423A",
"g  c #5E5700",
"h  c #5F5800",
"j  c #4A451A",
"k  c #595214",
"l  c #675C14",
"z  c #726A00",
"x  c #786A0B",
"c  c #666416",
"v  c #7D7516",
"b  c #736B0D",
"n  c #554A27",
"m  c #4C4337",
"M  c #54473A",
"N  c #4A5538",
"B  c #504E29",
"V  c #63592C",
"C  c #646A2B",
"Z  c #6F732A",
"A  c #787926",
"S  c #65693A",
"D  c #6D7536",
"F  c #717935",
"G  c #737B3B",
"H  c #73662F",
"J  c #0E2347",
"K  c #132644",
"L  c #162844",
"P  c #192B45",
"I  c #152B4C",
"U  c #192D4B",
"Y  c #12274A",
"T  c #1E334B",
"R  c #1E3047",
"E  c #152D53",
"W  c #182F55",
"Q  c #1B3254",
"!  c #1B345A",
"~  c #18345A",
"^  c #29354A",
"/  c #2C3A4B",
"(  c #293947",
")  c #253A56",
"_  c #323E4E",
"`  c #1D3A63",
"'  c #1A3763",
"]  c #1D3F71",
"[  c #233C63",
"{  c #2D4149",
"}  c #344548",
"|  c #2C4456",
" . c #354A56",
".. c #3C5357",
"X. c #26416A",
"o. c #2A4468",
"O. c #2B4977",
"+. c #5A4E42",
"@. c #4C5943",
"#. c #5D5244",
"$. c #5F564B",
"%. c #645A4D",
"&. c #615548",
"*. c #665D52",
"=. c #695E52",
"-. c #50624D",
";. c #677342",
":. c #7A714C",
">. c #6B6255",
",. c #6C645A",
"<. c #676056",
"1. c #726555",
"2. c #716759",
"3. c #756B5D",
"4. c #7A6E5E",
"5. c #736B54",
"6. c #7C725A",
"7. c #766C4A",
"8. c #766D61",
"9. c #786F61",
"0. c #7C7365",
"q. c #7E7669",
"w. c #7F796D",
"e. c #8A7D1E",
"r. c #827519",
"t. c #887B26",
"y. c #857B54",
"u. c #857B58",
"i. c #84794E",
"p. c #817666",
"a. c #817769",
"s. c #847B6C",
"d. c #877D68",
"f. c #867E71",
"g. c #897F71",
"h. c #7C8130",
"j. c #8D8509",
"k. c #9E9200",
"l. c #96871A",
"z. c #AA9E01",
"x. c #A3980B",
"c. c #AA9D16",
"v. c #B3A40E",
"b. c #BBAB08",
"n. c #A9A31A",
"m. c #BAAB14",
"M. c #B3AE1B",
"N. c #B4A712",
"B. c #AFA70F",
"V. c #83862B",
"C. c #978A29",
"Z. c #969626",
"A. c #9F9137",
"S. c #818835",
"D. c #A6993A",
"F. c #A49726",
"G. c #AAA823",
"H. c #ADA13F",
"J. c #A8A232",
"K. c #B6A93A",
"L. c #BFB23F",
"P. c #BBB124",
"I. c #C3B502",
"U. c #C7BA0B",
"Y. c #C5B619",
"T. c #D0BF09",
"R. c #CCBD25",
"E. c #CEBF29",
"W. c #C4B528",
"Q. c #C9BA33",
"!. c #DBCA01",
"~. c #D5C40B",
"^. c #CAC114",
"/. c #CEC31A",
"(. c #D8C817",
"). c #DED00C",
"_. c #E1CF00",
"`. c #E4D302",
"'. c #E9D706",
"]. c #ECDB04",
"[. c #E4D50A",
"{. c #E6D80A",
"}. c #EDDB0B",
"|. c #F1DF0C",
" X c #F1DE04",
".X c #E0CF17",
"XX c #E3D21A",
"oX c #EEDB13",
"OX c #F0DE12",
"+X c #F4E203",
"@X c #FAE705",
"#X c #FFEC00",
"$X c #F4E20C",
"%X c #F8E50B",
"&X c #F7E411",
"*X c #D5C623",
"=X c #D2C32B",
"-X c #D8C927",
";X c #D2C430",
":X c #F0DF26",
">X c #968A4A",
",X c #9C914A",
"<X c #8C825B",
"1X c #8F8456",
"2X c #91875E",
"3X c #968B5D",
"4X c #9F9454",
"5X c #8F8443",
"6X c #A89C45",
"7X c #A19654",
"8X c #A59A5A",
"9X c #AEA247",
"0X c #B1A442",
"qX c #BAAD4B",
"wX c #B4A848",
"eX c #BEB241",
"rX c #B8AD54",
"tX c #8C846A",
"yX c #8B8262",
"uX c #948A62",
"iX c #938A68",
"pX c #9C926B",
"aX c #9A9065",
"sX c #8B8374",
"dX c #8B8477",
"fX c #908575",
"gX c #938A7B",
"hX c #948A77",
"jX c #9E9670",
"kX c #A2976F",
"lX c #ACA374",
"zX c #C2B64D",
"xX c #958E80",
"cX c #998F81",
"vX c #9A9284",
"bX c #9B9485",
"nX c #A2998A",
"mX c #B6AD85",
/* pixels */
"2.3.<.<.<.<.8.r 6 _ / ( _ ^ R P #.a.1.1.3.*.&.*.%.*.<.*.<.<.>.> > M t #.%.%.%.=.%.<.>.,.>.*.>.m *.sXs.*.0.gX0.*.P I I ! Y q ^ q ",
"dXbXnXgXgXgXvXd 8 o.O.X.X.X.] ! %.gXcXgXgXg.sXg.g.dXxXvXxXvXhXw t hXs.s.s.0.a.dXfXdXgXgXdXsXgXM %.0.sXgXgXs.8.0.Q I E E ! [ X.[ ",
"sXsXgXsXsXa.0.t $ ~ ! o.|  ...} S uX<XyX6.3.3.8.a.0.g.sXdXxX4.w = %.0.3.2.2.9.0.a.p.a.u.u.<XuXV V 2XuXiXfX0.0.8.~ I W I E W ! I ",
"s.sXsXs.s.sXgXd 5 ) ) ..-.S G D C.qX6X>Xi.5.8.0.g.sXs.sXsXg.2.1 = %.0.0.3.9.0.a.a.s.d.2X,X6X0Xl.A.qX9X7XaXtXs.g.[ W E W ! W ! Q ",
"M s.sXsXg.gXhXd 5 ! | -.G Z.G.c.m.=XQ.H.5Xu.0.3.0.dXsXg.s.a.1.- = &.3.s.3.9.a.s.a.s.yX7XH.W.=Xm.Y.=XQ.0X4XyXg.sX` ~ ! ! ~ ! ! q ",
"r g.sXa.sXgXhXm 5 ! | S Z.^.{.`.'.|.XXW.D.y.3.3.8.s.g.g.q.q.1.- & %.0.0.0.3.0.a.p.0.<X6XW..X|.'.'.|.XXQ.9XpXs.s.[ ' ' ! W ! ` 6 ",
"s a.p.a.s.sXfXM 0  .N V.M.{.#X#X#X#X}.R.0Xy.8.0.0.sXsXs.3.0.>.= = *.a.0.0.3.4.4.>.0.1XH.R.}.#X#X#X#X|.*XK.8XuXyX| ! ! ! W ~ [ 7 ",
"= < < < < < 1 i p k x x.I.].#X#X#X#X}.R.H.y.8.0.q.f.f.0.2.0.1.= > 2.q.0.2.0.0.2.2.s.2X0X=X}.#X#X#X#X+X(.W.F.A.H t 0 # + 4 3 $ @ ",
"0 / ^ ^ ^ ^ } j r.P.Y.~.{.@X#X#X#X#X}.R.H.y.2.2.8.8.q.0.0.q.2.= = =.8.3.0.a.0.a.p.sXaXwX=X|.#X#X#X#X+X).U.v.Z.c H u.*.$.,.2.4.d ",
"q o.X.[ X.[ ..c c.:X&X%X@X#X#X#X#X#X}.R.H.<X8.0.3.0.q.0.8.a.4.> & *.a.3.9.a.a.a.s.dXpX0X=X$X#X#X#X#X#X+X}.{./.j.v kXcXfXg.xXnX#.",
"5 W ~ T ( ( N v b.$X#X#X#X#X#X#X#X#X}.R.H.<X8.0.s.0.0.q.s.q.2.< & <.0.3.3.0.dXs.sXsXpXwX=X$X#X#X#X#X#X#X#X#X{.B.l.7XiXyXtXgXhXm ",
"6 ! T } N S V.x.T.%X#X#X#X#X#X#X#X#X}.R.H.<X8.g.s.3.q.0.g.0.1.> = &.8.a.0.a.sXdXdXg.pXqX=X|.#X#X#X#X#X#X#X#X}.I.m.L.wX7X3XtXfXm ",
"4 ! ( N Z Z.M.U.`.@X#X#X#X#X#X#X#X#X}.E.0XuX0.0.0.2.3.a.q.q.1.= = w +.0.dXhXhXfXcXfXaXwX=X|.#X#X#X#X#X#X#X#X+X!.~.-XQ.qX8XpXcXM ",
"5 E { S Z.U.'.].+X#X#X#X#X#X#X#X#X#X}.R.D.uXa.0.q.0.a.dXs.a.0.= > 1 1 m 4.sXvXgXvXdXpXqX=X|.#X#X#X#X#X#X#X#X#X+X X$XXXQ.rXpXhXM ",
"7 L } D n.[.#X#X#X#X#X#X#X#X#X#X#X#X|.*XK.>X<Xu.6.=.%.%.%.&.&.> > a > * 1 +.2.tXu.<X,XK.*X$X#X#X#X#X#X#X#X#X#X#X#X#X|.R.H.y.a.#.",
"+ # , c x._.#X#X#X#X#X#X#X#X#X#X#X#X+X~.m.l.t.l i 1 * * O O * X X = = X X * 2 j l r.l.N.~. X#X#X#X#X#X#X#X#X#X#X#X#X`.v.v i < 1 ",
"e >.i.D.Y.{.#X#X#X#X#X#X#X#X#X#X#X#X@X}.XX-X;XD.N y q ^ / q  .6 m q.,.<.<.<.5.5Xh.J.P./.[.+X#X#X#X#X#X#X#X#X#X#X#X#X}.m.v n $.> ",
"s sXuXwX=X|.#X#X#X#X#X#X#X#X#X#X#X#X#X@X%X$XXXQ.;.{ ~ ) [ ! o.6 m nXbXnXxXgXmXrXZ.^.{.}.+X@X#X#X#X#X#X#X#X#X#X#X#X#X&X=X0XuXa.t ",
"n y.5XK.*X|.#X#X#X#X#X#X#X#X#X#X#X#X#X#X#X#X$XR.D ( J Y K 9 I 3 a g.d.sXvXxXlXwXG.{.#X#X#X#X#X#X#X#X#X#X#X#X#X#X#X#X|./.J.>X:.j ",
"e.0XK.=XXX$X#X#X#X#X#X#X#X#X#X#X#X#X#X#X#X#X}.=XF ( Y E Y I ! 5 m dXsXgXbXvXlXzXG.[.#X#X#X#X#X#X#X#X#X#X#X#X#X#X#X#X$X.XR.J.D.e.",
"N.R.*XXXOX@X#X#X#X#X#X#X#X#X#X#X#X#X#X#X#X#X|.=XF { ~ E E W ! 5 r sXgXbXvXdXuXrXG.[.#X#X#X#X#X#X#X#X#X#X#X#X#X#X#X#X@XOX.X/.R.m.",
"'.}.$X%X@X#X#X#X#X#X#X#X#X#X#X#X#X#X#X#X#X#X$X=XF } ' I E W ! 3 e fXgXxXbXgX2X9XG.[.#X#X#X#X#X#X#X#X#X#X#X#X#X#X#X#X#X@X+X|.}.'.",
"#X#X#X#X#X#X#X#X#X#X#X#X#X#X#X#X#X#X#X#X#X#X|.=XF { ~ Y ~ W ! 3 t g.gXgXbXgXuX0XG.[.#X#X#X#X#X#X#X#X#X#X#X#X#X#X#X#X#X#X#X#X#X#X",
"#X#X#X#X#X#X#X#X#X#X#X#X#X#X#X#X#X#X#X#X#X#X$XR.F  .! W [ 4 + + = a #.#.d #.aXC.x.{.#X#X#X#X#X#X#X#X#X#X#X#X#X#X#X#X#X#X#X#X#X#X",
"#X#X#X#X#X#X#X#X#X#X#X#X#X#X#X#X#X#X#X#X#X#X[.G.9XpXdXgXgX%.%.r 8 ^ P P P I } F W.$X#X#X#X#X#X#X#X#X#X#X#X#X#X#X#X#X#X#X#X#X#X#X",
"#X#X#X#X#X#X#X#X#X#X#X#X#X#X#X#X#X#X#X#X#X#X[.G.wXpXxXvXsXsXfXm 5 [ ' ` ` ]  .F =X$X#X#X#X#X#X#X#X#X#X#X#X#X#X#X#X#X#X#X#X#X#X#X",
"#X#X#X#X#X#X#X#X#X#X#X#X#X#X#X#X#X#X#X#X#X#X{.B.F.4XpXtX0.3.s.a $ Y ~ ) ) | -.A *X$X#X#X#X#X#X#X#X#X#X#X#X#X#X#X#X#X#X#X#X#X#X#X",
"#X#X#X#X#X#X#X#X#X#X#X#X#X#X#X#X#X#X#X#X#X#X}.I.v.K.9X7X1Xp.s.a $ U ) } @.;.S.G.XX%X#X#X#X#X#X#X#X#X#X#X#X#X#X#X#X#X#X#X#X#X#X#X",
"#X#X#X#X#X#X#X#X#X#X#X#X#X#X#X#X#X#X#X#X#X#X+X!.~.*XQ.H.,XtXsXa 5 Q ( @.F Z.M./.OX@X#X#X#X#X#X#X#X#X#X#X#X#X#X#X#X#X#X#X#X#X#X#X",
"#X#X#X#X#X#X#X#X#X#X#X#X#X#X#X#X#X#X#X#X#X#X@X+X X$XXXQ.D.<XsXd 5 `  .;.Z.^.{.}.@X#X#X#X#X#X#X#X#X#X#X#X#X#X#X#X#X#X#X#X#X#X#X#X",
"#X#X#X#X#X#X#X#X#X#X#X#X#X#X#X#X#X#X#X#X#X#X#X#X#X#X|.R.D.y.s.d 3 ) } F G.{.#X#X#X#X#X#X#X#X#X#X#X#X#X#X#X#X#X#X#X#X#X#X#X#X#X#X",
"#X#X#X#X#X#X#X#X#X#X#X#X#X#X#X#X#X#X#X#X#X#X#X#X#X#X`.z.x i < = . + ; l x.`.#X#X#X#X#X#X#X#X#X#X#X#X#X#X#X#X#X#X#X#X#X#X#X#X#X#X",
"#X#X#X#X#X#X#X#X#X#X#X#X#X#X#X#X#X#X#X#X#X#X#X#X#X#X'.n.A N / 6 t 8.:.e.W.}.#X#X#X#X#X#X#X#X#X#X#X#X#X#X#X#X#X#X#X#X#X#X#X#X#X#X",
"#X#X#X#X#X#X#X#X#X#X#X#X#X#X#X#X#X#X#X#X#X#X#X#X#X#X{.G.G ..o.0 > 2.<X0X;X$X#X#X#X#X#X#X#X#X#X#X#X#X#X#X#X#X#X#X#X#X#X#X#X#X#X#X",
"#X#X#X#X#X#X#X#X#X#X@X+X].`._._._._.`.].+X@X#X#X#X#X{.M.A N y , n :.>XeX*X$X#X#X#X#X#X#X#X#X#X#X#X#X#X#X#X#X#X#X#X#X#X#X#X#X#X#X",
"#X#X#X#X#X#X#X#X#X#X+X!.I.z.k.k.k.k.z.I.!.+X#X#X#X#X}.^.G.h.F c e.qXzXE.XX%X#X#X#X#X#X#X#X#X#X#X#X#X#X#X#X#X#X#X#X#X#X#X#X#X#X#X",
"#X#X#X#X#X#X#X#X#X#X].I.k.z g h h g z k.I.].#X#X#X#X+X).^.M.n.x.v.R.*XXX}.@X#X#X#X#X#X#X#X#X#X#X#X#X#X#X#X#X#X#X#X#X#X#X#X#X#X#X",
"#X#X#X#X#X#X#X#X#X#X`.z.z : o o o o : z z.`.#X#X#X#X@X+X}.{.[.`.'.|.$X$X@X#X#X#X#X#X#X#X#X#X#X#X#X#X#X#X#X#X#X#X#X#X#X#X#X#X#X#X",
"#X#X#X#X#X#X#X#X#X#X_.k.g o         o g k._.#X#X#X#X#X#X#X#X#X#X#X#X#X#X#X#X#X#X#X#X#X#X#X#X#X#X#X#X#X#X#X#X#X#X#X#X#X#X#X#X#X#X",
"#X#X#X#X#X#X#X#X#X#X_.k.h o         o h k._.#X#X#X#X#X#X#X#X#X#X#X#X#X#X#X#X#X#X#X#X#X#X#X#X#X#X#X#X#X#X#X#X#X#X#X#X#X#X#X#X#X#X",
"#X#X#X#X#X#X#X#X#X#X_.k.h o         o h k._.#X#X#X#X#X#X#X#X#X#X#X#X#X#X#X#X#X#X#X#X#X#X#X#X#X#X#X#X#X#X#X#X#X#X#X#X#X#X#X#X#X#X",
"#X#X#X#X#X#X#X#X#X#X_.k.g o         o g k._.#X#X#X#X#X#X#X#X#X#X#X#X#X#X#X#X#X#X#X#X#X#X#X#X#X#X#X#X#X#X#X#X#X#X#X#X#X#X#X#X#X#X",
"'.|.$X$X@X#X#X#X#X#X`.z.z : o o o o : z z.`.#X#X#X#X#X#X#X#X#X#X#X#X#X#X#X#X#X#X#X#X#X#X#X#X#X#X#X#X#X#X#X#X#X#X#X#X#X@X+X$X|.'.",
"m.=X-XXXOX@X#X#X#X#X].I.k.z g h h g z k.I.].#X#X#X#X#X#X#X#X#X#X#X#X#X#X#X#X#X#X#X#X#X#X#X#X#X#X#X#X#X#X#X#X#X#X#X#X@X}.XX*XR.v.",
"e.wXeX=XXX%X#X#X#X#X+X!.I.z.k.k.k.k.z.I.!.+X#X#X#X#X#X#X#X#X#X#X#X#X#X#X#X#X#X#X#X#X#X#X#X#X#X#X#X#X#X#X#X#X#X#X#X#X%XXXE.L.D.r.",
"i u.8XL.-X$X#X#X#X#X@X+X].`._._._._.`.].+X@X#X#X#X#X#X#X#X#X#X#X#X#X#X#X#X#X#X#X#X#X#X#X#X#X#X#X#X#X#X#X#X#X#X#X#X#X$X*XL.8Xi.i ",
"e =.y.0X=X|.#X#X#X#X#X#X#X#X#X#X#X#X#X#X#X#X#X#X#X#X#X#X#X#X#X#X#X#X#X#X#X#X#X#X#X#X#X#X#X#X#X#X#X#X#X#X#X#X#X#X#X#X}.Y.C.S +.> ",
"O * : x v.'.#X#X#X#X#X#X#X#X#X#X#X#X#X#X#X#X#X#X#X#X#X#X#X#X#X#X#X#X#X#X#X#X#X#X#X#X#X#X#X#X#X#X#X#X#X#X#X#X#X#X#X#X`.z.z 2 * O ",
"s ,.:.A.Y.|.#X#X#X#X#X#X#X#X#X#X#X#X#X#X#X#X#X#X#X#X#X#X#X#X#X#X#X#X#X#X#X#X#X#X#X#X#X#X#X#X#X#X#X#X#X#X#X#X#X#X#X#X{.x.Z @.0 6 ",
"s vXlXzX;X$X#X#X#X#X#X#X#X#X#X#X#X#X#X#X#X#X#X#X#X#X#X#X#X#X#X#X#X#X#X#X#X#X#X#X#X#X#X#X#X#X#X#X#X#X#X#X#X#X#X#X#X#X{.n.Z f ) q ",
"e 3.pX6XW.XX$X+X+X@X#X#X#X#X#X#X#X#X#X#X#X#X#X#X#X#X#X#X#X#X#X#X#X#X#X#X#X#X#X#X#X#X#X#X#X#X#X#X#X#X#X#X#X#X#X+X].'.U.Z.C , U 8 ",
"s s.iX5XD.W.*X~.!.+X#X#X#X#X#X#X#X#X#X#X#X#X#X#X#X#X#X#X#X#X#X#X#X#X#X#X#X#X#X#X#X#X#X#X#X#X#X#X#X#X#X#X#X#X@X`.U.M.Z.Z @.( q 7 ",
"s sXd.1X>X6XJ.v.I.}.#X#X#X#X#X#X#X#X#X#X#X#X#X#X#X#X#X#X#X#X#X#X#X#X#X#X#X#X#X#X#X#X#X#X#X#X#X#X#X#X#X#X#X#X%X~.x.V.C N f R L $ ",
"s g.0.tXu.u.>Xl.z.{.#X#X#X#X#X#X#X#X#X#X#X#X#X#X#X#X#X#X#X#X#X#X#X#X#X#X#X#X#X#X#X#X#X#X#X#X#X#X#X#X#X#X#X#X$XU.v N ( ( R ~ Q 7 ",
"r 2.p.g.p.>.i.r.j.^.'.}.+X#X#X#X#X#X#X#X#X#X#X#X#X#X#X#X#X#X#X#X#X#X#X#X#X#X#X#X#X#X#X#X#X#X#X#X#X#X#X@X%X$XXXc.l { E L U Q ) 6 ",
"= < < < > * 2 k h j.z.I.!.+X#X#X#X#X#X#X#X#X#X#X#X#X#X#X#X#X#X#X#X#X#X#X#X#X#X#X#X#X#X#X#X#X#X#X#X#X+X_.T.b.x.x j y + . . + . . ",
"7 ( ( ^ _ ^ } t V ,XD.W.(.+X#X#X#X#X#X#X#X#X#X#X#X#X#X#X#X#X#X#X#X#X#X#X#X#X#X#X#X#X#X#X#X#X#X#X#X#X}.^.n.V.G B 7.sX&.%.*.%.*.s ",
"7 ) [ [ O.X.o.0 B pX8XzX-X$X#X#X#X#X#X#X#X#X#X#X#X#X#X#X#X#X#X#X#X#X#X#X#X#X#X#X#X#X#X#X#X#X#X#X#X#X{.M.V.-. .| d.dXnXvXbXsXdXm ",
"$ L Y Y I I U $ r q.yX6XQ.XX$X'.`.}.$X$X@X#X#X#X#X#X#X#X#X#X#X#X#X#X#X#X#X#X#X#X#X#X#X@X$X|.|.{.`.{.^.Z.S ( J U q.q.dXsXhX3.3.t ",
"$ L L L Y E Q 3 r s.tX4X0XQ.;Xm.z.R.-XXXOX@X#X#X#X#X#X#X#X#X#X#X#X#X#X#X#X#X#X#X#X#X@XOXXX*X=Xm.n.G.Z.D @./ E P 8.3.dXfXfX0.0.a ",
"3 U Y Y Y Y Q 3 r sXtX3X4X9XqXe.x D.L.E.XX$X#X#X#X#X#X#X#X#X#X#X#X#X#X#X#X#X#X#X#X#X%XXXE.eXqXC.Z G S N f Q I L 0.0.s.dXtXsXa.a ",
"$ U Y L I I Q 8 r g.s.d.iXjXkXn i i.8XL.-X$X#X#X#X#X#X#X#X#X#X#X#X#X#X#X#X#X#X#X#X#X$X-XK.4XiXS { } { / T Q Y L 0.a.0.s.g.s.s.a ",
"8 U P q P U R 3 r 0.3.%.0.sXfXa s g.pXqX=X$X#X#X#X#X#X#X#X#X#X#X#X#X#X#X#X#X#X#X#X#X}.R.0Xu.s.M K ! E E I ~ I Q w.g.s.gXsX0.0.s ",
"@ % @ @ @ % $ @ = w 1 = < w M d > m n e.v.`.#X#X#X#X#X#X#X#X#X#X#X#X#X#X#X#X#X#X#X#X`.v.r.j w < q W Y 4 4 K I q +.q.sX3.a e w > "
};
