/* XPM */
static char *ef6a58b83c9341269c6bf09fca801c12E7HdrCncSUQ8WSx9[] = {
/* columns rows colors chars-per-pixel */
"64 64 154 2 ",
"   c #1A1917",
".  c #1E1D1B",
"X  c #201F1E",
"o  c #22211F",
"O  c #252422",
"+  c #282725",
"@  c #2A2927",
"#  c #2D2C2A",
"$  c #302F2D",
"%  c #32312F",
"&  c #353432",
"*  c #383735",
"=  c #3A3836",
"-  c #3D3C3A",
";  c #403F3D",
":  c #42413E",
">  c #454341",
",  c #484745",
"<  c #4A4846",
"1  c #4D4C4A",
"2  c #514E4C",
"3  c #52514E",
"4  c #545250",
"5  c #585755",
"6  c #5A5856",
"7  c #5D5C5A",
"8  c #B6B3AE",
"9  c #B9B6B1",
"0  c #BCBAB6",
"q  c #C0BCB8",
"w  c #C5C3BF",
"e  c #C7C5C3",
"r  c #C8C5C0",
"t  c #CCC9C5",
"y  c #CFCDC9",
"u  c #D2CFCB",
"i  c #D5D2CD",
"p  c #D6D4D1",
"a  c #D8D6D3",
"s  c #DCD9D6",
"d  c #DEDCD9",
"f  c #E1DFDB",
"g  c #E3E1DE",
"h  c #E7E5E2",
"j  c #E7E5E3",
"k  c #E6E4E0",
"l  c #E5E4E2",
"z  c #E8E5E0",
"x  c #E8E6E2",
"c  c #E8E6E3",
"v  c #E8E7E5",
"b  c #E9E7E5",
"n  c #E9E6E4",
"m  c #EBE9E6",
"M  c #ECEAE7",
"N  c #EBE9E6",
"B  c #ECEAE8",
"V  c #EDEBE9",
"C  c #EDECEA",
"Z  c #EFEDEA",
"A  c #EEEDEB",
"S  c #EEEDEC",
"D  c #EFEEED",
"F  c #EFEFEF",
"G  c #EDECEB",
"H  c #F1EFEA",
"J  c #F0EEEB",
"K  c #F2EFEB",
"L  c #F0EFEC",
"P  c #F3F0ED",
"I  c #F0F0EE",
"U  c #F1F0EE",
"Y  c #F1F0EF",
"T  c #F1F1EF",
"R  c #F2F1EE",
"E  c #F3F1EF",
"W  c #F3F2EF",
"Q  c #F7F3ED",
"!  c #F4F2EE",
"~  c #F5F2EF",
"^  c #F2F1EF",
"/  c #F1F1F1",
"(  c #F3F2F0",
")  c #F3F3F2",
"_  c #F3F2F3",
"`  c #F3F3F3",
"'  c #F4F2F0",
"]  c #F5F3F0",
"[  c #F6F3F1",
"{  c #F4F3F2",
"}  c #F4F3F3",
"|  c #F6F4F1",
" . c #F5F4F2",
".. c #F4F4F3",
"X. c #F6F5F2",
"o. c #F7F6F3",
"O. c #F4F4F4",
"+. c #F5F4F4",
"@. c #F5F5F4",
"#. c gray96",
"$. c #F6F5F4",
"%. c #F7F6F4",
"&. c #F7F6F5",
"*. c #F6F6F6",
"=. c #F3F3F2",
"-. c #F9F6F2",
";. c #F9F7F5",
":. c #F8F7F6",
">. c #F8F7F7",
",. c #F8F7F5",
"<. c #FAF8F5",
"1. c #F9F8F7",
"2. c #FAF8F6",
"3. c #FAFAF7",
"4. c #FAF8F6",
"5. c #F9F8F8",
"6. c #FBF9F8",
"7. c #FAF9F9",
"8. c #FBFAF8",
"9. c #FAFAF9",
"0. c #FBFAF9",
"q. c #FBFAFA",
"w. c #FBFBFA",
"e. c #FBFBFB",
"r. c #FCFBF9",
"t. c #FCFBFA",
"y. c #FCFBFB",
"u. c #FCFCFA",
"i. c #FDFCFA",
"p. c #FCFCFB",
"a. c #FDFCFB",
"s. c #FDFDFB",
"d. c #FFFDFA",
"f. c #FEFCFB",
"g. c #FEFDFB",
"h. c #FBFBFC",
"j. c gray99",
"k. c #FDFCFC",
"l. c #FDFDFC",
"z. c #FDFDFD",
"x. c #FEFDFC",
"c. c #FEFDFD",
"v. c #FEFEFC",
"b. c #FFFEFC",
"n. c #FEFEFD",
"m. c #FFFEFD",
"M. c #FFFFFD",
"N. c #FEFEFE",
"B. c #FFFEFE",
"V. c #FEFFFE",
"C. c #FFFFFE",
"Z. c #FEFEFF",
"A. c white",
"S. c #FEFEFE",
/* pixels */
"@ + @ $ = * % @ % # @ O @ = * & ` A.A.A.A.A.A.p.A.A.p.A.A.A.W f * + @ + O O # = @ o O o O @ O $ g q.A.A.A.A.C q.A.A.A.A.l A.<.A.",
"= $ & , - & # O O O O O # @ O * ` A.A.A.A.A.A.A.A.o.&.A.A.{ B ` > & - - = % & > > = * @ % * + $ g r.A.A.A.A.o.W p.A.A.A.A.A.A.{ ",
"= # # # + O O + O O O @ @ @ O # f A.A.A.A.p.p.A.A.<.p.:.A.C A.&., * % # & * = > 2 - - & @ O X $ b A.A.A.A.` c o.g A.A.A.A.A.p.J ",
"# # # # # O O O @ # * # O O o & W A.A.` o.{ g A.A.A.A.A.A.<.A.o.& # = * @ O # # + O + O o o o @ d A.A.A.A.o.t Q A.A.A.o.A.A.A.A.",
"# % & % = = = ; > - & # O O o & d q.A.f { A.g W A.A.A.A.q.A.A.&.= $ $ # @ @ + # # O @ + O O . % W A.A.A.A.<.q.<.p.A.F g A.A.A.A.",
"+ @ % @ # % * > ; : - $ # O . & g p.A.e F A.A.q.A.A.A.A.C q.A.{ & O + O O O O + % + @ # O O O & ` A.A.A.A.A.q.A.A.A.m M A.A.A.A.",
"@ % % @ @ @ + + @ = - > * * & % k A.A.:.A.A.A.A.-.A.A.p.o.A.A.` % o O + @ @ # O & * O # @ + + % ` A.A.A.A.A.A.A.A.A.g J A.A.A.A.",
"# % @ @ @ @ # @ # = & % # = - - c A.p.o.A.A.A.A.r.W A.A.A.A.A.` % o # # # @ @ O @ & O O @ + o % F A.A.C q.A.A.A.A.A.A.g W A.A.A.",
"& ; = % @ @ + + @ + @ O O O X & &.A.A.o.r.A.A.A.A.Q A.A.A.A.A.&.# o # O O O O O + # + + O + o * i l ` W q.A.A.A.:.p.A.b u p q.A.",
"= & $ * & $ # @ O O O O O O X % ` A.p.A.q.r.A.A.J f A.A.A.q.A.` $ O O O O + + O O O @ + O O O = y o.A.A.A.A.A.A.A.A.A.A.C B p.Q ",
"# @ # # % # @ # @ @ + + O @ X % &.&.o.A.A.r.&.A.q.A.A.A.A.A.A.W % O + @ + + O + + + O O O + O % ` A.A.A.A.A.A.A.A.A.A.A.A.A.A.A.",
"O O O + O + + o o o O + O + O * &.A.q.A.A.A.A.A.A.A.A.A.A.A.A.` # . O O O O O O O + @ O @ @ O & ` A.A.A.A.A.A.A.A.A.A.A.A.A.A.A.",
"O O O O o O O # @ # O o o @ # % ` A.:.A.A.A.A.A.A.A.A.A.A.A.A.` # . O O O O @ + O O + + @ + O % ` A.A.A.A.A.A.A.q.i s &.A.q.A.A.",
"O O o o O . . O @ + @ + O + X # ` A.A.A.A.A.A.A.A.A.A.A.A.A.A.` # @ % @ O O @ + + O O + @ # O % { A.A.A.A.A.A.A.f p h.q.p.c l p.",
"O # +     .     . . O X . .   @ ` A.A.A.A.A.A.A.A.A.A.A.A.A.A.` @ . @ # # O O O O O o + # + + & ` A.A.A.A.A.A.A.W q.A.A.A.A.A.&.",
"# # - % # @ # # @ @ # & & # # - l &.` ` ` ` F ` ` ` ` ` ` ` &.l > - = * = = % & * = - - - - - : d ` ` ` ` ` ` F f ` ` ` ` ` ` ` ",
"` F ` ` W ` ` ` W &.` F ` ` &.B = # & $ % # # $ # % # $ % % @ = g C ` ` ` ` F W ` ` F s &.` &.l : = & & % % % - & % & # & # & % ",
"&.A.q.A.A.A.A.p.r.W A.A.A.A.A.` &   X . O O o O O O O o O @   @ ` A.A.A.A.A.A.A.A.A.o.p A.A.A.` & + @ O O O @ & + O o X . . . . ",
"o.A.A.&.A.A.A.B :.:.p.A.A.<.A.L & O + + O O O O @ # $ # & > - * { A.A.A.A.A.A.A.A.A.A.C J A.A.o.; = & $ O o O + @ + + + O O + + ",
"p.` <.s l A.A.k &.A.p.A.A.A.A.` @ O * % # # & & + o o + + = * ; &.A.A.A.A.A.A.A.A.p.A.A.{ ` A.` & # & # + o O O + X o X o O . . ",
"Q { A.&.t A.A.B &.r.A.A.A.A.A.{ & O * - - * & @ # + O O o O . % C p.A.A.A.A.A.A.A.A.A.A.&.t A.&.& # # O O + O $ - % & = * & * # ",
"A.A.A.A.J q.A.A.A.A.A.A.A.A.A.&.= @ @ # * > # # @ O O + + O O & M <.q.A.A.A.A.A.r.:.A.A.A.f o.&.& + + + @ O @ = = - & & * & > * ",
"A.A.q.m A.A.A.A.A.A.A.A.A.A.A.W % + $ # # ; 1 % O O O O O + o % &.o.C A.A.A.p.m g s l A.A.A.:.u $ + + + @ + & 1 - - # # # o # O ",
"p.g r :.A.A.A.A.q.{ A.A.A.A.A.b & O & # # & = & + O @ O O O o % &.A.o.A.A.r.<.M o.{ d A.A.A.&.q * # # # @ o # : & % + + O + + + ",
"p m d q.A.A.A.A.o.B A.<.A.A.A.` % o + O @ * ; = = $ + + + # @ 1 &.A.A.A.A.A.A.A.A.A.<.-.A.A.A.` = + % & & % & - % o O . O O @ # ",
"L q.A.A.A.A.A.A.A.A.A.L -.A.A.` & O @ # # = > - & , = O O # & > ` A.A.A.A.-.<.A.A.A.A.` C p.A.` & + @ # # & - & # + o X O + + X ",
"A.&.r.A.A.A.A.A.q.l A.A.r.o.r.` & + % % @ @ % - , & & % # % @ % ` A.A.A.A.J o.A.A.A.A.o.i A.A.&.> * ; & = * O O + @ O O O . X . ",
"A.A.A.A.A.A.A.A.J c A.A.A.A.M s * + $ # @ $ & > 3 % # & & # O & o.A.A.p.p.<.g <.:.o.L m g q.A.W 1 4 , & = & % + + + + + @ @ @ @ ",
"A.A.A.A.A.A.A.<.r.W A.A.A.A.A.` = O # & $ # # & & $ @ @ % % O % ` A.q.A.A.A.q.o.<.r.q.A.A.A.A.b ; = # % & = = % # # & & % # # @ ",
"A.A.A.A.A.A.A.A.q.i A.A.A.A.A.M & O @ & > & # # # # $ - & * * = W A.L W A.A.A.A.A.A.A.A.A.A.q.s > @ & = : & @ @ # # $ @ O . . o ",
"A.A.A.A.A.A.A.A.A.A.A.A.A.r.A...$ O # @ @ @ + + @ # & - & * ; > &.A.A.J f A.A.A.A.A.A.A.A.A.A.F & X O # = # & # # O O O O O . . ",
"` F ` ` ` W ` ` &.u B { ` F B B > = > - & = = & & = = = - & & : l &.` l e W ` ` k t t ` &.` &.m - # * * & & * * ; : & * ; - % % ",
"# & & * & $ $ % % # % & * = & , p k &.` ` ` ` B W ` ` F w k q.l - & & , > = * & & * : 6 3 - & : B &.g d ` F ` ` W ` ` { L C ` ` ",
"O . . O X o o + o O + O @ O o % p A.A.A.A.A.A.A.A.A.A.o.i A.A.o.& o # = # # @ & & = # + + O . = ` A.s { A.A.A.A.A.A.A.A.A.A.A.p.",
"@ X X X X o + @ O O O $ @ # @ & W A.A.A.A.A.A.A.A.A.<.o.A.Q <.o.5 = % @ + + # = - 2 > & # + + % b A.i A.A.A.A.A.A.A.A.A.A.Q Q Q ",
"O & - * @ # % O O O O + + + O & ` g &.A.A.A.A.A.A.A.A.A.p.o.B m 1 * = & % # & * * * * % @ & @ * &.A.q.A.A.A.A.A.A.A.A.A.A.{ :.A.",
"O # - = & & + X O + @ O O + o % ` :.<.<.A.A.A.A.A.A.A.A.A.<.A.&., & @ @ % > > = & + O O @ % @ & ` A.A.A.A.A.A.A.A.A.A.A.A.A.A.A.",
"O o .   X O O o O X O O O + @ & ` A.A.s B A.o.:.A.A.A.A.q.q.A.{ = # % & # % + . . X O @ O # % = ` A.A.A.A.A.V W A.A.A.A.A.A.A.A.",
"o . # - & @ # $ & & # O o O + = s A.A.A.<.A.A.p.A.A.A.A.o.o.A.&.6 : & @ $ + O O O O O # @ + O = y A.A.A.q.{ f f A.A.A.A.A.A.A.A.",
"O @ * , * @ O = > : & & # + X # l q.A.A.A.q.q.A.A.A.A.A.q.A.p.L - O O O @ o o O O O O # + # & < F A.A.A.o.M q.` A.A.A.A.A.A.A.A.",
"+ * ; * & & O % % + O @ = * $ % ` <.A.A.A.q.o.A.A.A.A.A.<.A.A.k + O + O @ # O + + O + o @ : < : ` A.:.A.A.A.Q <.A.A.A.A.A.A.Q o.",
"= 2 = + - : # $ $ + O O % & # ; ` A.A.A.A.A.A.A.W q.A.A.g W A.F & O O + O @ + O + O # # # # O * &.A.o.A.A.A.:.r.A.A.A.A.p.q.-.c ",
"1 < # @ & & - ; O O O @ % & & ; g A.A.A.A.A.A.A.g p A.A.C C A.` - $ @ O O O O + @ & < & @ @ + - o.A.r.A.A.p.r.A.A.A.A.A.r.<.A.A.",
"< $ @ O O O + : $ O O # * & + ; F A.A.A.A.A.A.A.C y A.A.A.A.A.&.# # - @ # $ $ # & : & @ # @ # > &.-.{ A.A.A.A.A.A.A.A.Q p.A.A.A.",
"@ O O O @ + O % # @ @ + % # & - ` A.p.A.A.A.A.:.A.s A.A.A.J Q &.& X % @ @ # & * & = # # # # O * m J <.A.A.A.A.A.A.r.r.A.A.A.A.A.",
"+ + + + + @ @ $ # & & & % - - : &.A.A.A.A.A.A.A.A.{ <.A.p.:.A.` & # * & - + + # & & = # @ # # - M A.A.{ A.A.A.A.A.A.A.Q A.A.A.A.",
"& & O X # # # * & % # @ # : % > L <.A.A.A.A.A.A.A.A.M A.A.A.W F % O @ & & O O O + @ & & + + O & ` A.A.A.y a A.A.A.A.A.A.A.A.A.A.",
"4 1 = = 1 4 - = * - : % - - * 1 s F F &.&.` ` ` ` :.9 t q.W ` b - $ * = = ; > > - - - > - & % > B &.` o.p d ` ` W C &.` W ` l l ",
"W B W &.&.&.` L l m g d } ` ` k 4 1 , 1 7 4 1 - & = - % & & % > s F ` ` q.{ o.u t g &.l W B ` B , * - * - : = * = = = = - = & * ",
"A.A.A.q.A.A.A.<.A.A.A.A.A.A.A.` , - : > % # $ + o O O O + + o # C A.A.A.s g A.{ :.p.o.A.A.p.A.` & @ % * % & # O + O O O @ # + + ",
"l A.q.B A.e.-.A.A.A.A.r.p.A.A.` & $ & * = % & % @ + + + + + + - o.A.{ <.s &.A.A.A.p.o.A.q.` A.` & % - = & * = & # # # @ % $ + @ ",
"A.A.A.A.A.A.o.A.A.A.A.A.A.:.<.&.& o O * 2 - * # @ + + @ $ & = 5 { A.:.:.W A.q.p.p.r.A.A.A.A.A.` % o & = - = = % @ # # $ & @ + + ",
"k A.A.A.A.:.B A.A.A.A.A.p.g d l & + @ - - % & # + + # # - & @ - C A.A.A.A.<.s p.A.A.q.A.A.A.A.` $ o + $ & # # # @ # @ + O @ @ # ",
"k A.A.A.A.Q { A.A.A.A.A.A.i W F = @ $ % = = % % @ % = - % % @ : C A.A.A.A.A.A.A.A.A.p.A.A.A.A.` # X & # & + O # & % @ + O O + # ",
"<.A.A.A.A.p.A.A.A.A.A.A.A.A.b p - * = # # & & % % & # & % # + = &.A.<.<.A.A.A.A.A.A.A.A.A.A.A.&.# o @ O + O @ O O + + + + + # % ",
"W o.A.A.A.p.A.A.A.A.A.A.A.A.&.k & & = % # @ = - & # # % & * % - ` A.p k A.<.c C r.A.A.A.A.A.A.` # O O + + O O @ # @ + O O # & = ",
"o.p q.A.A.A.A.A.r.A.A.A.A.A.A.` & = = @ * = % & & & $ $ $ # & 3 ` A.e 8 A.A.<.o.&.A.A.A.A.A.A.` * o + @ + # + @ # + + O + # @ : ",
"A.t m A.q.{ A.A.A.A.:.p.A.A.A.` & + # $ < 7 < & @ # * ; = % % 4 &.A.d 0 A.A.A.r.{ A.A.A.A.A.A.` # o O O O O + O O + # & # O O + ",
"A.F s A.` Q A.p.A.A.r.{ <.A.A.` = @ @ % # : 6 6 ; & # # # # @ > &.A.-.Q A.A.A.q.M A.A.C g M a a & X X O O O O O + * # O + O O O ",
"A.` p A.k L A.:.A.A.A.A.f :.A.` = - > # @ @ = 6 1 * @ + @ @ O * &.A.o.C A.A.A.A.r.A.A.k W L l F # . O + O O O O O + o + & & + + ",
"A.A.<.A.o.L A.A.A.q.r.{ L V A.` & * = $ # # # = < < - % @ # + & { A.q.C A.A.A.r.J A.A.A.A.A.A.` @   o X o o O + @ & * # = , # + ",
"A.A.q.:.&.p.A.A.A.A.A.<.q.q.A.` - @ @ @ @ # # # = = = - # $ + & ` A.q.L A.A.A.A.A.A.A.A.A.A.A.` #   o O + O @ - , - : & # = & @ ",
"p.A.W g <.A.A.p.A.A.A.A.A.A.A.` > & % # @ @ # % * 1 : # # # O & ` A.A.q.A.A.A.r.Q A.A.A.q.r.A.` # . O # # % & - * * & O @ & - # ",
"A.A.A.r.A.W p.p.m d W m r.-.A.` & + % & & + + @ @ * 1 & # @ + % W A.A.A.A.A.A.A.A.A.p.&.A.A.A.` # o @ + O @ & & # + # + # # & O "
};
