/* XPM */
static char *result[] = {
/* columns rows colors chars-per-pixel */
"64 64 216 2 ",
"   c #0B0607",
".  c #190D0A",
"X  c #0D0E11",
"o  c #0F1113",
"O  c #131315",
"+  c #161718",
"@  c #16181A",
"#  c #1C1C1C",
"$  c #1B130D",
"%  c #23110F",
"&  c #2A150D",
"*  c #251411",
"=  c #201F1E",
"-  c #2A1A13",
";  c #3A1C1C",
":  c #22211F",
">  c #2D2114",
",  c #322417",
"<  c #392619",
"1  c #1D1E21",
"2  c #252422",
"3  c #282725",
"4  c #2A2926",
"5  c #2D2C2A",
"6  c #242728",
"7  c #302F2D",
"8  c #32312E",
"9  c #353432",
"0  c #383735",
"q  c #3A3936",
"w  c #3D3C3A",
"e  c #37393A",
"r  c #42150D",
"t  c #4A1D17",
"y  c #452E1B",
"u  c #46281F",
"i  c #46311B",
"p  c #48311F",
"a  c #58321A",
"s  c #562719",
"d  c #472A21",
"f  c #592D21",
"g  c #4A3221",
"h  c #5D3427",
"j  c #413F3D",
"k  c #62352D",
"l  c #6D3B2D",
"z  c #643828",
"x  c #713D2E",
"c  c #723F24",
"v  c #673B30",
"b  c #6A3B32",
"n  c #653730",
"m  c #723E31",
"M  c #53442A",
"N  c #42413E",
"B  c #5F5537",
"V  c #5F5638",
"C  c #564E32",
"Z  c #6A452A",
"A  c #74422C",
"S  c #79462D",
"D  c #7C4B2C",
"F  c #774A29",
"G  c #7D5F2E",
"H  c #77572D",
"J  c #6D4732",
"K  c #744331",
"L  c #754933",
"P  c #794131",
"I  c #605639",
"U  c #645A3C",
"Y  c #7A5137",
"T  c #7D602F",
"R  c #7F6130",
"E  c #454442",
"W  c #4E4D4B",
"Q  c #494745",
"!  c #555454",
"~  c #645C43",
"^  c #6B6C6D",
"/  c #666769",
"(  c #6D6E71",
")  c #6F7072",
"_  c #757577",
"`  c #706852",
"'  c #824E2B",
"]  c #84522D",
"[  c #814F30",
"{  c #865331",
"}  c #895431",
"|  c #8D5A34",
" . c #8D5C3B",
".. c #89563D",
"X. c #925D34",
"o. c #915F3D",
"O. c #9C5D3E",
"+. c #915639",
"@. c #925D2F",
"#. c #A05F3F",
"$. c #8D613C",
"%. c #8B6E3D",
"&. c #846436",
"*. c #956235",
"=. c #93623D",
"-. c #9D6B3B",
";. c #9B6739",
":. c #8C713D",
">. c #A1613E",
",. c #A46B3B",
"<. c #AB6C3D",
"1. c #A86C37",
"2. c #A6743C",
"3. c #AD733C",
"4. c #AA793F",
"5. c #B2763D",
"6. c #B4793E",
"7. c #B87D3F",
"8. c #925440",
"9. c #9D5D42",
"0. c #A15F43",
"q. c #956341",
"w. c #9E6242",
"e. c #996942",
"r. c #8D7A49",
"t. c #8D7543",
"y. c #9A7A49",
"u. c #967350",
"i. c #A26243",
"p. c #A96645",
"a. c #AD6D41",
"s. c #A66548",
"d. c #A96548",
"f. c #AD6F49",
"g. c #A36942",
"h. c #B06F42",
"j. c #AC7B43",
"k. c #AE724A",
"l. c #A77747",
"z. c #B37144",
"x. c #B57B44",
"c. c #B97B42",
"v. c #B2744B",
"b. c #B37A4C",
"n. c #B97A4A",
"m. c #B87347",
"M. c #AF7A50",
"N. c #B17B50",
"B. c #BF823D",
"V. c #C1843F",
"C. c #998756",
"Z. c #988857",
"A. c #8F8053",
"S. c #A6814D",
"D. c #B58144",
"F. c #BE8444",
"G. c #B88A4C",
"H. c #BE934D",
"J. c #BB8953",
"K. c #A98652",
"L. c #9C8C60",
"P. c #A48A65",
"I. c #C28641",
"U. c #C68D45",
"Y. c #C88A42",
"T. c #C38B4A",
"R. c #C4934D",
"E. c #CB964C",
"W. c #CB984D",
"Q. c #C49B4F",
"!. c #C49652",
"~. c #C49D51",
"^. c #C49F5B",
"/. c #CF9C55",
"(. c #D29C50",
"). c #C18A59",
"_. c #C9A255",
"`. c #CBA659",
"'. c #D4A859",
"]. c #C49F61",
"[. c #C5A363",
"{. c #C9A86A",
"}. c #DEBA6A",
"|. c #D7B466",
" X c #D4B372",
".X c #E1B566",
"XX c #E9CA79",
"oX c #9F9FA1",
"OX c #ABABAC",
"+X c #ACADB2",
"@X c #B2B3B5",
"#X c #B5B6BA",
"$X c #B9BBBE",
"%X c #B7B9BE",
"&X c #AEB0B4",
"*X c #98989B",
"=X c #DEC186",
"-X c #C5C2BD",
";X c #BBBEC1",
":X c #BDC1C4",
">X c #D3D2CF",
",X c #D8D6D2",
"<X c #DEDCD8",
"1X c #CBC9C6",
"2X c #E1DFDD",
"3X c #E4E1DD",
"4X c #E6E4E2",
"5X c #EAE8E5",
"6X c #EDECEB",
"7X c #E9E6E3",
"8X c #F1EFEB",
"9X c #F3F1EE",
"0X c #F4F4F3",
"qX c #F8F7F4",
"wX c #FAF9F6",
"eX c #FEFEFE",
/* pixels */
"4 3 4 5 0 0 9 5 7 4 4 2 4 q 0 9 0XeXeXeXeXeXeXeXeXeXeXeXeXeX9X<X0 2 4 2 2 2 5 w 4 : 2 : 2 4 2 7 3XwXeXeXeXeX6XwXeXeXeXeX4XeXwXeX",
"q 7 9 Q w 9 5 2 2 2 2 2 7 4 = q 9XeXeXeXeXeXeXeXeX0XqXeXeX0X6X0XE 9 j w w 8 9 E E q 0 4 8 q 3 8 3XeXeXeXeXeX0X9XeXeXeXeXeXeXeX0X",
"q 5 7 5 3 2 2 2 2 2 2 4 4 4 2 7 2XeXeXeXeXwXwXeXeXwXeX9XeX6XwX0XQ 9 8 8 9 0 0 E W j j 8 4 2 # 7 4XeXeXeXeX9X3X9X2XeXeXeXeXeXeX8X",
"5 5 5 5 9 5 4 5 7 7 q 7 3 3 2 8 0XeXeX9XeXeX8XeXeXeXeXeXeXeXeX0Xq 8 w q 5 3 7 7 3 3 3 3 2 2 : 5 4XeXeXeXeXeX,XwXeXeXeXqXeXeXeXeX",
"5 8 8 0 W + @ @ 1 1 # @ O O O # / ( ( / ^ ) ! ( ( ( ^ ( ( ( _ ^ # + # @ + + + + + O + + + O O @ / ) ( ( ( ^ _ ^ ^ ^ ^ 1XeXeXeXeX",
"4 4 8 7 + & r.Z.Z.L.P.Z.C.C.C.C.r.r.r.r.t.r.A.t.r.r.r.r.r.r.r.r.C.C.C.C.C.C.C.C.C.C.C.C.C.C.C.C.r.r.r.r.r.Z.r.r.:.a   @XeXeXeXeX",
"4 8 8 5 O &.-.D.G.$.Y _.T.T.T.T.T.T.T.T.W.(.'.(.(.(.(.(.(.(.(.(.(.(.(.(.(.(.(.(.(.(.(.(.(.(.(.(.(.(.(.(.e.L =X.X3.3.M @XeXeXeXeX",
"7 8 4 5 O :.3.A *.D f D.3.1.1.3.3.3.3.3.7.V.V.V.V.V.V.V.V.Y.~.~.~.~.~.~.W.~.~.~.~.~.Q.~.~.Q.~.Q.~.~.~.!...z {.e.' '.U *XeXeXeXeX",
"8 N q 8 O :.|.G.D X.,.1.6.R.D.3.3.5.5.3.c.Y.V.Y.V.U.Y.Y.V.U._._._._._._._._._._._._._._._._._._._.|.|._.H.D.@.$.}.XXI oX2X>XwXeX",
"w 8 8 q # Y y.M.3.D ,.5.;.=.l.7.3.3.3.3.c.V.V.V.V.V.V.V.V.U._._.~._._.^._._._.~._._._.~._._.~._.H.y.S.'._.,.] x.u. X~ #XwX5XeX9X",
"5 3 5 8 + z f J !.;.D ,.} s *.R.5.6.5.5.B.V.V.V.Y.Y.V.Y.Y.E.`.`.'.`._.'.`._.'.`.`.`.'._.`.`._.'.x.s A |.-.} E.-.t P.` &XeXeXeXeX",
"3 : : 3 o %.,.X.5.7.3.S | Z { ;.*.*.*.*.-.2.4.5.2.2.2.2.1.2.2.4.2.2.4.3.2.3.2.2.3.2.3.3.3.4.3.l.2.] &.;.*._.`.H.o.[.~ #XeXeXeXeX",
": : : 3 o %.F.3.1.D.G.$.. > , , , , , , , , , . - , , , , , , , , , . - < , , , , , , , , . - , , , * y !.[._._.!.}.V &XeXwXeXeX",
": 3 : 3 o %.F.3.1.A f l.> M.b.M.N.b.N.N.M.).=.z w.b.b.K.b.b.b.M.J.=.z w.N.b.M.b.b.M.M.).o.z w.b.M.J.` y [ s [.`.~.}.V &XeX3X4XeX",
": 5 3 = X :.F.3.3.{ S %.- w.p.g.p.>.p.i.f.w.A 0.p.p.p.p.i.p.i.z.q.x i.p.i.p.i.p.g.i.v.=.x 0.p.p.i.h.S y *.S ^.`.~.}.I ;XeXeXeXqX",
"5 7 w 8 O %.F.3.3.3.<.[ & i.h.h.h.a.5.n.q.l >.z.<.a.a.a.h.<.n.=.m 0.h.h.z.<.5.a.a.n.=.x i.h.5.h.h.m.S y R.R.~._.~.}.V +XeX6X9X0X",
"0X8X6XeX/ T T.3.5.3.5.} * i.<.a.a.<.n.o.l 9.z.<.a.a.a.a.a.n.o.l #.h.a.a.h.a.a.a.n. .l i.a.a.a.a.<.m.K y W._._._.~.}.V @ 0 5 9 9 ",
"qXeXqXeX) T T.1.3.5.5.{ * i.z.<.p.n.;.l 9.a.a.a.a.a.a.<.n.=.x >.h.a.a.a.a.<.p.n.;.l i.a.a.a.a.a.a.h.Y y W._._._.~.}.B X : # # # ",
"0XeXeXeX( T T.<.5.3.5.{ * i.a.p.n.e.K i.a.a.a.a.a.a.a.m.q.m i.z.a.a.a.a.a.a.n.=.l i.z.a.a.a.a.a.<.n.L y W._._._.~.}.V O 3 : 3 3 ",
"eX9X0X7X! &.I.3.5.5.5.{ - w.a.n.*.l w.a.a.a.a.a.a.<.n. .l i.a.<.a.a.a.a.<.n.| l i.a.a.a.h.a.a.<.n.o.u y W._._._.~.}.V X 2 2 # # ",
"9X0XeXeXW R T.3.5.3.5.{ * w.n.q.l 9.h.a.a.z.a.a.a.x.q.l 0.h.a.a.a.a.a.a.n.=.l i.h.a.a.a.a.a.a.n.o.S K y W._.~._.~.}.V 1 w 0 0 4 ",
"eXeXeXeX( T F.3.5.3.5.{ * f.;.l ;.h.a.a.a.a.a.a.m.e.x 0.h.<.a.a.a.a.<.n.q.x i.z.a.a.a.a.a.a.m.q.x p.L y W._._._.~.}.B 1 w 8 E 0 ",
"eXeXqXqX( G T.<.5.3.5.{ - q.A w.h.a.a.a.a.a.a.n.=.x #.h.<.a.a.a.h.<.n.$.l i.z.a.a.a.h.a.<.n.X.x #.m.L y W._.^._.~.}.B # 8 : 5 2 ",
"eX3X-XeX( G T.3.5.5.5.} . k i.a.a.a.a.a.a.<.n.$.x 0.h.a.a.a.a.a.<.n. .l i.h.<.a.a.a.a.p.n. .x >.h.h.L y W.`._._.~.}.B O 4 3 4 2 ",
",X5X<XeX( G T.3.5.3.5.} % O.a.a.a.a.a.a.a.n.q.l #.h.<.a.a.h.a.<.n.=.x i.a.a.a.a.a.a.p.n.o.m 0.h.a.z.F y R._._._.~.}.B X 2 2 4 4 ",
"6XwXeXeX( G I.<.3.5.z.{ * w.a.a.a.a.a.a.m.w.b 0.h.a.a.h.h.<.a.n.q.l i.h.a.a.a.a.a.a.n.=.x 0.a.a.a.z.L y W._._._.~.}.B o 2 3 3 : ",
"eXqXwXeX( G T.3.5.3.5.{ * w.a.a.a.a.p.n.=.x 0.a.a.a.a.a.a.p.x.=.x >.h.<.a.a.a.a.a.x.o.x >.h.h.h.a.z.L y W._._._.~.}.V o 3 1 : 1 ",
"eXeXeXeX^ G T.<.5.5.5.{ & w.z.a.a.<.n. .l #.5.a.a.a.a.a.<.n. .l i.z.a.a.a.a.a.<.n.| x p.h.h.a.<.a.z.J y W._._._.H.}.V + 5 4 4 3 ",
"eXeXeXeX( G T.1.3.3.6.{ & w.a.a.p.n.=.x >.h.a.a.h.a.a.<.n.$.x 0.a.a.h.a.h.a.<.m.=.x i.h.<.a.a.z.a.x.[ y W._._._.~.}.V 1 9 3 5 3 ",
"eXeXeXeX( G T.3.5.5.5.{ * w.3.p.n.;.x i.h.a.a.a.h.a.a.n.q.A >.h.a.a.a.a.a.a.n.o.x 0.h.<.a.a.a.<.p.n.L y W._._._.~.}.V O 3 = = : ",
"eXeXeXeX( G T.3.3.5.5.{ * w.<.n. .b i.h.a.a.a.a.a.<.n. .l 0.h.a.a.a.a.a.<.n. .m i.5.a.h.a.a.a.p.n.o.d y W._._._.~.}.V X 3 : = # ",
"0X6X6XeX/ T T.1.5.3.5.{ * w.n.=.l >.h.<.a.a.a.a.p.n.=.l i.5.<.h.a.a.a.a.x.=.l i.h.a.a.a.a.a.<.n. .K b y Q._._._.~.}.V 2 N q 8 8 ",
"7 9 9 q # %.F.3.5.5.5.{ * f.q.b O.g.i.i.i.i.i.0.v.e.l 9.g.i.i.i.i.i.i.v.q.x 9.i.i.i.g.i.i.i.v.q.l 0.b y W._._._.~.}.V &XeX5X9X0X",
"2 # # 2 X %.F.1.5.5.z.{ -  .m 9.i.w.i.i.i.0.0.v.=.x 9.i.i.i.i.i.i.0.v. .x O.i.i.i.i.i.i.0.v. .m 9.i.v y W._._._.~.}.V %XeXeXeXeX",
"4 : : 2 o %.F.3.3.3.5.} . b 9.i.0.i.i.i.i.w.v.o.x 9.i.>.i.i.i.i.9.k. .x 9.i.i.i.i.i.i.9.v. .l 9.i.d.v y W._.^._.~.}.B %XeX9X9X9X",
"2 9 w q O %.F.3.5.5.5.{ % 8.i.i.i.i.i.i.9.v. .l O.i.i.i.i.i.i.9.v. .x 9.i.i.i.i.0.0.;.v. .x 9.i.0.g.v y R._._._.~.}.B #XeX9XqXeX",
"2 5 w w @ %.F.3.3.5.5.{ % 8.i.i.i.i.i.i.f.q.m 9.w.i.i.i.i.i.0.f.q.x 9.i.w.i.i.i.i.9.k.q.l 9.i.w.i.d.v y E._._._.~.}.I %XeXeXeXeX",
"= = # = X %.F.3.5.3.5.{ % 8.i.i.i.i.9.k.q.l 9.0.i.i.i.i.i.0.k.=.x O.i.i.i.i.i.i.w.f. .x 9.i.i.i.0.d.v y W._._._.~.}.I #XeXeXeXeX",
": = 4 N # %.F.1.5.3.5.} % +.i.i.i.9.v. .b 9.i.i.i.i.i.w.O.v. .b 9.i.w.i.i.i.w.w.v. .m 9.i.i.i.i.0.s.n y W._._._.~.}.I #XeXeXeXeX",
": 4 q Q # %.I.3.5.5.5.} % 8.i.i.9.v.o.b 9.i.i.i.i.i.i.9.v.o.b 9.i.0.i.i.i.i.w.v.o.m 9.i.w.i.i.i.w.d.L y E._._._.~.}.V %XeXeXeXeX",
"3 q w w + %.F.3.5.3.5.{ % +.i.0.v.q.b 9.i.i.i.i.i.i.9.k.=.x 9.s.i.i.i.i.i.i.v.$.A 9.i.w.i.i.i.i.i.v.J y Q._.~._.~.}.V %XeXeX9X0X",
"q W q 4 + %.F.3.5.3.5.{ * 8.0.k. .m 9.i.i.i.i.i.i.w.v. .l 9.i.w.i.i.i.w.w.k...l 9.i.i.i.i.i.i.w.k.o.d y W._._._.~.}.V %XeXwX0X7X",
"W Q 7 5 + %.F.3.5.5.5.{ % 8.f. .l 9.i.i.i.i.i.i.w.f.8.b 9.i.i.i.i.i.i.9.k.$.b 9.i.i.i.i.i.i.i.k. .m b y E._._._.H.}.V #XeXqXeXeX",
"Q 7 4 4 O %.F.1.5.5.5.{ % i.q.l 9.i.0.i.i.i.i.9.k.q.A 9.i.i.i.i.i.i.9.v.8.m 0.i.i.i.i.i.i.9.v. .x i.v y W._._._._.}.V +XeXeXeXeX",
"4 : 3 3 O %.F.3.5.3.5.{ = 8.m 9.i.i.i.i.i.i.w.k.q.b 9.i.i.i.i.i.i.w.k. .x 9.i.i.i.i.i.i.w.v. .x 9.p.b y W._._._.~.}.B #XeXeXeXeX",
"4 3 3 4 X %.F.3.5.3.5.} . b 9.i.i.i.i.i.i.9.v. .m 9.i.0.i.i.i.i.9.v. .m 9.i.i.i.i.i.i.9.v...m 9.0.d.n y W._._._.~.}.V OXeXeXeXeX",
"9 9 : : X %.F.3.5.3.5.{ % +.i.i.i.i.i.0.9.v. .b 9.i.w.i.i.i.i.9.v. .x 9.i.0.i.i.i.i.9.k...m 0.i.0.p.b y W._._._.~.}.V %XeXeXeXeX",
"! W q N # %.F.3.5.3.5.{ % 8.i.i.i.i.i.0.f.q.x 9.i.i.i.i.i.i.0.v.q.b 9.i.0.i.i.i.w.i.k.q.b i.i.i.i.p.k y R._._._.~.}.V OXeX0X4X4X",
"8X6X6XeX^ G I.3.3.x.U.} % 8.i.i.0.0.i.v.q.A 9.i.i.0.i.i.i.0.k.$.b 9.i.i.i.0.i.0.0.k. .x 9.i.0.i.9.s.n y _.|._._.^.}.B : N q 9 q ",
"eXeXwXeX) G T.3.<.D Z l.- 8.p.s.s.i.v.8.K 9.d.s.s.s.d.s.i.v. .P i.d.s.s.s.s.s.g.v.o.m s.d.d.s.g.s.d.b y | Z [.`.~.}.V O 4 5 3 3 ",
"4XeXqXwX) G c.1.3.S z y.$ h b l v K J u k k k n k k k k J Z d k k k k k k k k A J d n k k k h h h h ; i | a _.`.H.}.B O 9 7 3 3 ",
"eXeXeXeX( &.'.H.3.,.;.D g M g < y y < y y i i i i i d y i i y i i y y i i d y y y y i y i y y i i C C h 2.D.H.`. XXXB @ q 3 3 3 ",
"4XeXwXeX) Z K.j.c.5.X.] ,.%.l.F.5.6.6.5.I.Y.Y.Y.U.Y.Y.Y.V.U.W.W.W.E.W.E.W.W.W.W.W.W.E.E.R.W.W.W.F.y.K.J.{ D._.G.u. X~ O 3 3 3 5 ",
"4XeXeXeX) a f J R.| ] 3.| t $.G.1.3.3.3.c.I.I.V.B.U.V.V.V.U._._._._._._._._._._._._._._._._._._.j.s Z }.D.] B.-.; P.` X 4 3 3 5 ",
"wXeXeXeX^ H g.=.@.] x.5.,.} ;.6.3.5.5.5.7.I.Y.V.U.I.I.U.Y.U._._._._._._._._._._._._._._._._._._.~.;.2._.`.G.F 2.@._.U o 5 3 5 8 ",
"9X0XeXeX^ T U.} D j.G.5.5.5.3.3.3.5.3.3.7.I.V.I.V.I.I.I.V.U._._._._._._.~._.^._._._.~._._._._._.~./.~.~._.{.G.' j.}.V X 3 5 9 q ",
"0X,XwXeX^ &.,.[ 2.A f G.5.1.4.3.3.3.3.<.7.V.I.I.V.V.I.I.I.U.`._._._._._._._._._._._._._._._._._._._.`.H.S f {.G.' !.I O 5 7 4 j ",
"eX1X4XeX^ a ;.x.5.X.L D.c.x.6.6.c.5.5.c.c.I.c.I.I.F.I.F.F.I.R.T.U.G.T.U.R.T.T.R.T.T.R.T.U.R.T.T.R.T.R.F.X.S G.E.3.X.< 2 8 2 2 3 ",
"eX8X,XeX^   g g g g y d g g g g g g p g g g g g y y g d y p y d g i g i g i i g g g g y y i y g y d g g g < u y g ,   1 3 : 2 : ",
"eX0X>XeX1X&X;X#X$X;X;X:XOX#X:X@X6 6 9 # @ # 6 e 9 6 @ @ @ # O 6 #X:X#X+X:X$X:X;X%X;X:X+X#X#X#X#X# o o @ + + + + + # = 2 9 9 3 3 ",
"eXeXwXeXwXqXeXeXeXeXeXwXqXqXeX0X0 w w 8 7 5 7 j W W j 7 5 7 4 0 qXeXwX9XeXeXeXeX0XeXeXeXeXeXeX0X5 # 2 : 2 2 3 4 5 0 0 5 w Q 5 3 ",
"eXeXwXwXqXwXeXeXeXeXeXqXwXwXeX0Xj 4 3 4 3 5 5 7 q e 0 j 4 5 4 9 0XeXwX9XeXeXeXeXeXeXeXeXeXeXeX0X5 # : 2 2 2 4 w Q j j 9 4 0 8 5 ",
"eXeX9X3XwXeXeXeXeXeXeXeXeXeXeX0XE 8 7 7 3 4 5 7 0 W j 7 5 9 2 9 0XeXeXwXeXeXeXeX9XeXeXeXwXwXeX0X5 # 2 5 7 8 9 j 0 0 9 2 4 9 w 5 ",
"eXeXeXeXeX9XeXeX5X<X9X7XeXqXeX0X0 3 7 0 8 3 3 4 5 0 W 9 5 4 2 9 6XeXeXeXeXeXeXeXeXeXeX0XeXeXeXqX5 2 4 2 : 4 8 9 5 3 5 2 7 5 0 2 "
};
