/* XPM */
static char *_9acdfb126814048b3264b0bb8147f1bEHAgr606fcnI3LH9[] = {
/* columns rows colors chars-per-pixel */
"64 64 148 2 ",
"   c #353435",
".  c #36363A",
"X  c #39373C",
"o  c #3A3A3D",
"O  c #3D3E43",
"+  c #403F45",
"@  c #403F48",
"#  c #3F4045",
"$  c #3F4149",
"%  c #414246",
"&  c #43454B",
"*  c #46494E",
"=  c #484A4F",
"-  c #454750",
";  c #484750",
":  c #464A53",
">  c #474951",
",  c #464954",
"<  c #464A54",
"1  c #474A54",
"2  c #474B54",
"3  c #464952",
"4  c #484950",
"5  c #484951",
"6  c #484A50",
"7  c #484A51",
"8  c #494A51",
"9  c #484B51",
"0  c #494B51",
"q  c #4A4B51",
"w  c #484952",
"e  c #484A52",
"r  c #484B52",
"t  c #494B52",
"y  c #484A53",
"u  c #484B53",
"i  c #494B53",
"p  c #4A4B52",
"a  c #4A4B53",
"s  c #494C51",
"d  c #494C52",
"f  c #484C53",
"g  c #494C53",
"h  c #4A4D52",
"j  c #4B4C53",
"k  c #4B4D53",
"l  c #484A54",
"z  c #494B54",
"x  c #484A55",
"c  c #4A4A55",
"v  c #484A56",
"b  c #484B56",
"n  c #494B56",
"m  c #494B57",
"M  c #494C54",
"N  c #494C55",
"B  c #494D55",
"V  c #4A4D54",
"C  c #4A4C55",
"Z  c #4B4C55",
"A  c #4A4D55",
"S  c #4B4E54",
"D  c #4A4E55",
"F  c #4A4C56",
"G  c #4B4C56",
"H  c #4B4C57",
"J  c #4B4D57",
"K  c #4B4E56",
"L  c #4B4F56",
"P  c #4B4E57",
"I  c #4B4F57",
"U  c #4C4E55",
"Y  c #4C4E56",
"T  c #4C4F56",
"R  c #4D4F56",
"E  c #4D4F57",
"W  c #494C54",
"Q  c #4A4B59",
"!  c #494C58",
"~  c #4B4D58",
"^  c #4A4E59",
"/  c #4B4E59",
"(  c #4A4C5A",
")  c #4B4D5B",
"_  c #4C4F58",
"`  c #4D4F58",
"'  c #4D4E59",
"]  c #4C4F59",
"[  c #4D4F5B",
"{  c #4D4F5D",
"}  c #4B4E59",
"|  c #4C5057",
" . c #4E5156",
".. c #4F5157",
"X. c #4D5156",
"o. c #4D5058",
"O. c #4D5059",
"+. c #4E5158",
"@. c #4F5158",
"#. c #4D505A",
"$. c #4D515A",
"%. c #4C505B",
"&. c #4D505B",
"*. c #4E505B",
"=. c #4D525B",
"-. c #4F525A",
";. c #4E525B",
":. c #4F515D",
">. c #4E535D",
",. c #4F535D",
"<. c #4F535E",
"1. c #4E515B",
"2. c #51535A",
"3. c #50535B",
"4. c #52555B",
"5. c #50535D",
"6. c #50545C",
"7. c #53555C",
"8. c #52555D",
"9. c #51555F",
"0. c #53575E",
"q. c #51545D",
"w. c #55585F",
"e. c #4E5361",
"r. c #515561",
"t. c #535761",
"y. c #535562",
"u. c #525762",
"i. c #545660",
"p. c #555761",
"a. c #525662",
"s. c #545861",
"d. c #575960",
"f. c #575A61",
"g. c #575963",
"h. c #575A63",
"j. c #545864",
"k. c #555964",
"l. c #585B65",
"z. c #585B66",
"x. c #595E67",
"c. c #5A5E67",
"v. c #585C64",
"b. c #575C68",
"n. c #555B69",
"m. c #595E6C",
"M. c #5D616A",
"N. c #5E636D",
/* pixels */
"& O O & O O & & O O & & & O - & , <.] & & * & & v & & & & & > * * & & i & & & , > ) & O & & , > & v , v ) - $ - ! ) , - & & $ . ",
"& O O & % % & & % % & & & > * i T f i * i & % i & O X O & * i > i > * V i V V V ;.V & * * V ;.] V i <.] a.a.5.<.;.* i ] v % O O ",
"& & & v & & & > & % # & & i * ;.f f i i * # # & > & % % & * * & * i & V ) V V V V & & i * i ;.V i T ;.T ;.& i i @ % i & % O % & ",
"v , ) > > > % f % O & # * & % * % & & & O % & > > & & & & & & & * & % i & & & & O & & % & & i V & ;.;.> & & & o + % & O o % * * ",
"] & v & T & & V % & i i f % & * * f f i i & * V i i > - & > i * V > - v & & % O % & O % % & V ;.) V { & i T i * & & & O % & V T ",
", > , v <.;.9.V i V V <.a.a.k.b.a.;.V ;.c...9.3.;.h.z.p.f * f V T T 9.;.6.M.N.h.;...9.3.9.c.h.9.p.k.z.h.& & i ] i ;.> & V ..;.;.",
"O # # O & % # & & i V a.k.] v V & & V & c.f f & & > V i . O # & % # * & V a.m.& O % & * V V V V f i & f O # & > V V & & & f = * ",
"% & * % & % & > i V a.<.& & % & % O o X h.i & & & > > X # & O & & & f ;.) <.) X O , & V ) <.] & & & & f O & V V & & O % & = ..f ",
"* f f f = * > V & % % % O & & & % X . X 9.> O & * > & O O .   $ % # % > V V ;.$ $ & , v v & & & , , & = O > & & O # * & % X.;.f ",
"* f * V > > & O X O # # $ - & .   . . $ k.& % O % & > i X X & V & % ..V & <.k.i - v & & * & > ) <.V i w.& > # & > * f * * * & V ",
"v > & # & & & # O O O O & O X O O # $ O i & & O # & & & X & & * & * ;.& % & i % & i & * ;.i = * & & & T & & X O # O # & O # & $ ",
"9.f 5.9.9.3.;.i f % # & i O , n.k.9.T O # & & > > > & & & & O > & > % O & O & - > > O & ] & & O O O X O % % . . O & & & & & % $ ",
"> ;.k.k.<.;.V & % X $ - & & e.k.k.* + & & & > > > ] <.& # % # & & O O % % O % & i ) V V ] - * * & # O % & % o @ - i & & v > & O ",
"a.k.i & ;.j.> O o O & b , , a.;.n.;.V > & > & # > ;.;.O . O O & O O @ @ O O % & ] ] = f ] & > * % % # % * % O & i i & & & i & # ",
"& & o % i & . o % & > ) > & a.;.b.] i V V * v V a.V & X O O O & % O % % % % * ] <.f & 3.* & & & > & & > & % O & & & & - > & O O ",
"* O O % & # O O & > V * i V 9.6.k...T T T ;.T ..;.i &   X O # O O O & % % % V V V % & i & & O & & & O & O O # # & - - & & & O % ",
") V ) & & , & O & & & & > > - ) & O O . X X X % O % O O O & & & & & & * & * * ;.V % & & * > i ..* ..* f ;.;.;.9.;.9.V <.V * V & ",
"<.<., - > > X O # # O O $ O & & # & X X X % & % % & & & & & & & & & & > > i i 5.;.& & & & & - 6.> > V ) ) > > i a.<.<.) - ) ) O ",
"n.v > $ O . X O X X & # X & % # # o O O X % O o % * f & & & & & & > & & V ;.;.9.5.% & & * * v j.V %.> * f > V v a.) ) <., <., & ",
"> O X . O o O O o & & o # > V O X O O & & % % O % & & & & % > * i V & & ;.3.- ] ;.& & & > > & a.) & & * ) , & V , & a.a.;.] * > ",
"& O X O O & & & & * i & & ;.9.% & & i T T T T * V i i & & & & f 9.T i ] 9.> ) 9.i * & > * * O ;.# & & & * i & > & & a.] = f i V ",
"> * ) v ) <.) v v ] V > > ] ] i i 5.k.k.k.5.9.;.;.;.;.j.;.* > > ) * > v i & V ) > V V V & & & # O O O O O & & & & - & & # ;.<.;.",
"X O # & ) ) & O O O X X # O X O & v V V O & & & & # & * * > V V V & & * & i i & V V > i > - & O O O $ O & & * % & % o i v ;.> * ",
"& & & > ] v O O & O o & O % % * v ] V & % & & > & & & * & v V V i i ;.;.;.V i i V ;.V ;.] i & & * * & @ & & ] & o O o & O V i V ",
"& O & i - & O # & O & & X O & V - v & O & & V > O & v > % V ] v ;.5.;.] ] ] <.5.;.<.5.r.i - i i i V & % % & & O X X # % O * > ) ",
"& % f V <.& & i ] & % % & * ..] v % % & ] V V > $ # & O & ) { a.n.k.<.v ) > v ) V v - O & v & O % & & & % > # O o % * f i f ..* ",
"& % & * = & * V f & & % % & & % % % % & & & = & O & & O O & O > ) ) - & & O O X O O O @ O O O O X X O . . # # @ % & * * i f ..* ",
"% & & & % & ..> - <.V O X & & o % * & & % & % o & ;.i & * & % % & % & & & & % & & O & i & & > & & & # # O O & & & i * * f f * f ",
"f = * & * V 9.v > > & O * & % % % % * f i * * # > v i & % & & O X o X O & O O & & i i > <.) v & & & & & O O & * > V f f ;.f X.,.",
"* & & & * ;.9.V & & & & & % & * * * * f f & & & & O & % O & & X O O O O X % % & & > ; ] <.) ) - & & & O O & V & & i f 9.6.f ;.h.",
"& * & f ;.,.f V & i <.i & > % % & & & = * & * & O O & % & - @ O % O & O # & & & & V ] <.r.) > & O & & O & & # % & f ,.9.;.;.j.V ",
"* f & = 6.;.f * & > ) * & & % & f X.= f * & f & % & & % & i & = & & & % * & * V T 5.] ] > & O O & & % & & & % & & f ;.& > ) v & ",
"* * & * f = ..% * * f & f ..f % % & % * & % * & & & # & * & & % # # & & & % & & & & i , & & & & O % & & i & & % & * & & & & & V ",
"& & & f = f = % & = f X.6.f & % # O % & & & % & & = & * V = & o % & & % % # & & & & i * % & ;.& % & % i & & & & = f i & & % % > ",
"& * & f * f & % = ..f ,.f & & % o % & & & & & & = = f = V f & & # % o O % & & & & & % % & i ] & & & % & % # % & & % & % & & & & ",
"> & % ..* f % & f ..X.X.& * % % O & & % & & % & & * = = ..f * & % & & > > & V > & % & * ;.= i & O O O % % & V % % & = * = T * * ",
"> & * V f * % f ;...= f X...& % & & = * * = * * = * * * f V & o O & = & * ;.i & & % % & & & & # # & * % i % % % & V i = i = = f ",
"k k 3.9.......6.w.9.3.;.9.w.h.w.v.z.0.h.c.c.0.c.v.9.6.9.v.;.V * V & O O & & & & & & & & & & v i i v * & & & i i & & & # & v T ;.",
"% O & & & & & & & & & & & * * i <.V i T <.& v <.;.* & > & > i i & % X % O O & & O % * - @ & i V f & % & X & i & & & i & * i - > ",
"& O > ] V & & & & f * > & & & * v & v <.<.> e.e.* > & & & > * & % & > & O & % @ % * i % % & & v T > & = O & & & & i i V V v - > ",
"X & & & O O O O & * > - & & i V > > <.<.v <.a.> & V & O O & & & & % * O + + o % & & & # % % & V T f & & O & & & & i & i V i & - ",
"& & O O O & $ & # & & v * & V ) - ) ! & > V & # & & O X % & & & O O O O & O O % * & % & & * * ] ;.i & & @ & ; & & & % & & * & - ",
"& & O X O O O O # $ O O & O O & $ & $ O & & O # & X O . O # % # X O & i & + & % O % & O & # % i * % & % o % % & & & % # % & & & ",
"9.* X # & & & & & > O # , - O & & & & & O O > * % & # O $ & V T o > a.5.T & % . X O O % O o X * & 3.> % o o % % & > & & & & * > ",
";.& & * > * > * % O # & , $ & # X & # O O - & O % % # & $ - > O % ;.;.& O o . X O @ O & & O @ & i ;.& + o & i & i V & * > & V V ",
"i > & & b , * # # * V & & & O X O # O & > O # > V * & ] & & $ & & i & . . o o @ % % & & & & & i T * & % % O * * * & & & & - ) > ",
"i & & V > & O O # % & & > & # # > O & O O O & , & & & & & & # & & V # o % O & & % % & i & % * i i i & % & O * & & & * > & & i i ",
"..V & & & # & & * & f ;.* V > i & O * & & f * * O # % & & * ;.a.9.;.& > & & & O # & & & % % & * v = * & & O & & & > & * V V V V ",
"& & O O O O $ > & & & * & & & > . . X O O O O O % O % & & & % & i i = f T i % % & * & * & & & i & & & & * & & & i i i i ] v i i ",
"& & $ & & & > > & O o & > & & - . . O % O # & & & & & & & & & & & i f f ;.f % & & & & > i > * f & & & & % i ] v & i v & i v & ; ",
"& & & & & & & * & & & & > & i f O o & # X & i i * & = i = * i i f ;.;.] <.;.% & % & v i f * f ] & i > & i 5.V & & v > & ] ) V v ",
"& & v e.{ - ) - > & O > v > i V o O O X o & & & & * = = * i f f i ;.<.i ;.V @ & & & > & & & i V & v V ) ) * % & & & > v > & i * ",
"<.) a.j.v <.V & & % & * ;.) V 9.i V & i i i f = & = i T T 9.<.] 3.a.;.;.a.] > * * & V # & > i <.] ] a.<.& & & & v v V v > > f V ",
"m.a.] ] > & & V 9...T ] i <.<.a.9.f i ;.;.;.;.;.9.9.5.a.9.a.;.5.h.v.9.<.9.5.] 9.h.;.<.> ;.9.5.a.9.6.9.h.6.;.9.a.h.h.c.h.h.v.k.0.",
"- O O O . . X & V & & & O & & - >   X O & & & & - % & - & & & v ] % & % o & # > ;.> & & & > , > & & > T > V V i ;.<.a.> V > > V ",
"& O O X O O O V i & & O > & & , & o & & , - - - O % & & - v - ) & o & # O & % # ) & > ) - ) ) & O $ ) <.%.%.V ) ;.%.> # & & V ) ",
"O X X X O $ # # * - O & & & > & & . O , v & O X O & O & V i & v O % * & O & & & > O & & & & O O $ $ - <., i f V V > & # & > & ) ",
"O # & & > v > & i % & i V v V & & O & V > & % & & & & & > v ] V & % & % & > % = > > <.> > O & & V V , > & i * > > V > & > V f 9.",
"% % O & * = & & % % & & & % % & % O & & @ & & & % & & & & V V i & & O % & % O & * & * i * & > * & > * i & % % % & i * & # * > V ",
"- & @ O & & & & > & & & % % & & X O & & > - O O & - & O & & & v ] - & & & % O O # # $ > & & & & > & 9.] X & % + & & i v O & & i ",
"& & X O & * f V * & & i i & & # O & & ; V & @ & - > > - i v & & & O & i & % % - & , <.<.> & & & & & ] & % = = & & i 9.f & & v T ",
"% % O % % # % & & * f & % O # O # O & T v % & & & i i & & & & & & & - & O & % & # & > f V * * & & & % & T V = * f ;.5.i & & V & ",
"% & O O O O O O O % O O X O O o % % V 5.- O + & i - & O & & i & > & X & % & % O & > V i & % > V > & & * & & * i ;.;.> = i i i > ",
"X X X X O X X O O O O X O $ $ & & & & & & O O - v O O @ & - & - % . % & & & O & & & > # $ & & & & & i i & = T T T T * & i * V v "
};
