/* XPM */
static char *_61a3ded4c9e4925ef2b3708e43fd9332Qid4Kpseyepknrn[] = {
/* columns rows colors chars-per-pixel */
"64 64 197 2 ",
"   c #1E1D1B",
".  c #1A1917",
"X  c #201F1E",
"o  c #22211F",
"O  c #001932",
"+  c #2D163D",
"@  c #022A3D",
"#  c #1C2D3C",
"$  c #1A292E",
"%  c #252422",
"&  c #282725",
"*  c #2A2927",
"=  c #2D2C2A",
"-  c #22292B",
";  c #302F2D",
":  c #32312F",
">  c #222C39",
",  c #2C3132",
"<  c #353432",
"1  c #383735",
"2  c #3A3836",
"3  c #3D3C3A",
"4  c #403F3D",
"5  c #42413E",
"6  c #381044",
"7  c #052A45",
"8  c #092A44",
"9  c #182D42",
"0  c #183A53",
"q  c #113049",
"w  c #243748",
"e  c #303C55",
"r  c #5C1450",
"t  c #631D58",
"y  c #761E5E",
"u  c #6F1848",
"i  c #542949",
"p  c #502C57",
"a  c #65245B",
"s  c #75235E",
"d  c #783051",
"f  c #782560",
"g  c #1D445C",
"h  c #1E4459",
"j  c #374249",
"k  c #26495A",
"l  c #324E58",
"z  c #254A62",
"x  c #2C4C65",
"c  c #2A5467",
"v  c #37576A",
"b  c #454341",
"n  c #484644",
"m  c #4A4846",
"M  c #4D4C4A",
"N  c #514F4C",
"B  c #52514E",
"V  c #504F54",
"C  c #545250",
"Z  c #5A5855",
"A  c #5B5A58",
"S  c #424659",
"D  c #505364",
"F  c #665671",
"G  c #45626D",
"H  c #5C6B77",
"J  c #4C6A73",
"K  c #716968",
"L  c #737475",
"P  c #933D5D",
"I  c #BA2B53",
"U  c #831F60",
"Y  c #B01F6D",
"T  c #BD1F6E",
"R  c #A91E6C",
"E  c #9C256B",
"W  c #862966",
"Q  c #B9206E",
"!  c #CC2853",
"~  c #D62859",
"^  c #C3345A",
"/  c #E32D5E",
"(  c #EC2E5A",
")  c #E92653",
"_  c #E6325A",
"`  c #ED305B",
"'  c #F1335B",
"]  c #F6375D",
"[  c #C31F6D",
"{  c #CC1F73",
"}  c #C01E71",
"|  c #C5216C",
" . c #CC236B",
".. c #CE2467",
"X. c #D42665",
"o. c #DB2963",
"O. c #D62669",
"+. c #CB2272",
"@. c #C52171",
"#. c #D62274",
"$. c #E12968",
"%. c #F43960",
"&. c #977E73",
"*. c #FF5371",
"=. c #F3516D",
"-. c #E8767F",
";. c #7B877D",
":. c #988277",
">. c #677889",
",. c #7A8B87",
"<. c #788493",
"1. c #7E9B8A",
"2. c #88978E",
"3. c #869495",
"4. c #AE9282",
"5. c #9CAA9D",
"6. c #919CA6",
"7. c #8597A5",
"8. c #88A4AA",
"9. c #9BB3A1",
"0. c #A9B5BD",
"q. c #BCB9B5",
"w. c #B4B1AD",
"e. c #E9888B",
"r. c #D2A089",
"t. c #E7AA8C",
"y. c #FBBE99",
"u. c #F6B592",
"i. c #F1AF97",
"p. c #F1BCAA",
"a. c #F6AAA2",
"s. c #FEC39C",
"d. c #C3CAAF",
"f. c #D6D8B7",
"g. c #CCCCB0",
"h. c #FCCDA4",
"j. c #FAD5AC",
"k. c #FFD8AC",
"l. c #F8DAB6",
"z. c #FAE6BB",
"x. c #F9E6BB",
"c. c #B0BEC4",
"v. c #BECCD1",
"b. c #C6C4C3",
"n. c #CCC9C5",
"m. c #CFCCC9",
"M. c #C8C5C0",
"N. c #D1CFCB",
"B. c #D4D2CE",
"V. c #CCD2D7",
"C. c #D6D4D1",
"Z. c #D8D6D3",
"A. c #DCD9D6",
"S. c #D1D9DC",
"D. c #DEDCD9",
"F. c #E1DEDB",
"G. c #F9ECC2",
"H. c #F5F0C5",
"J. c #FCF4C6",
"K. c #FFF7C9",
"L. c #FFFACB",
"P. c #E3E1DE",
"I. c #FEFED2",
"U. c #FFFFDB",
"Y. c #DADCE0",
"T. c #DEE1E3",
"R. c #E5E4E2",
"E. c #E8E6E3",
"W. c #EBE9E6",
"Q. c #EDECEB",
"!. c #E2E7E9",
"~. c #F1EFEC",
"^. c #F2F1EF",
"/. c #F3F1EF",
"(. c #ECEFF0",
"). c #EFF1F1",
"_. c #F3F3F3",
"`. c #F3F3F2",
"'. c #F3F2F0",
"]. c #F5F3F2",
"[. c #F6F5F2",
"{. c #F5F5F4",
"}. c #F3F3F2",
"|. c #F9F7F4",
" X c #F9F8F6",
".X c #FBFAF9",
"XX c #FCFBFA",
"oX c #FCFCFB",
"OX c #FEFDFB",
"+X c #FDFDFC",
"@X c #FEFEFD",
"#X c #FEFEFE",
"$X c #FFFFFE",
"%X c white",
"&X c #FFFEFE",
"*X c #FEFDFD",
"=X c #FEFEFE",
/* pixels */
"* & * ; 2 1 : * : = * % * 2 1 < _.%X%X%X%X%X%XoX%X%XoX%X%X%X/.F.1 & * & % % = 2 * o % o % * % ; P..X%X%X%X%XQ..X%X%X%X%XR.%X X%X",
"2 ; < n 3 < = % % % % % = * % 1 _.%X%X%X%X%X%X%X%X[.{.%X%X}.W._.b < 3 3 2 : < b b 2 1 * : 1 & ; P.XX%X%X%X%X[./.oX%X%X%X%X%X%X}.",
"2 = = = & % % & % % % * * * % = F.%X%X%X%XoXoX%X%X XoX|.%XQ.%X{.n 1 : = < 1 2 b N 3 3 < * % X ; E.%X%X%X%X_.E.[.P.%X%X%X%X%XoX~.",
"= = = = = % % % * = 1 = % % o < /.%X%X_.[.}.P.%X%X%X%X%X%X X%X[.< = 2 1 * % = = & % & % o o o * D.%X%X%X%X[.n./.%X%X%X[.%X%X%X%X",
"= : < : 2 2 2 4 b 3 < = % % o < D..X%XF.}.%XP./.%X%X%X%X.X%X%X{.2 ; ; = * * & = = % * & % %   : /.%X%X%X%X X.X XoX%XQ.P.%X%X%X%X",
"& * : * = : 1 b 4 5 3 ; = %   < P.oX%Xb.Q.%X%X.X%X%X%X%XQ..X%X}.< % & % % % % & : & * = % % % < _.%X%X%X%X%X.X%X%X%XW.W.%X%X%X%X",
"* : : * * * & & * 2 3 b 1 1 < : R.%X%X|.%X%X%X%X|.%X%XoX[.%X%X_.: o % & * * = % < 1 % = * & & : _.%X%X%X%X%X%X%X%X%XP.~.%X%X%X%X",
"= : * * * * = * = 2 < : = 2 3 3 E.%XoX[.%X%X%X%XXX/.%X%X%X%X%X_.: o = = = * * % * < % % * & o : Q.%X%XQ..X%X%X%X%X%X%XP./.%X%X%X",
"< 4 2 : * * & & * & * % % % X < {.%X%X[.XX%X%X%X%X/.%X%X%X%X%X{.= o = % % % % % & = & & % & o 1 B.R._./..X%X%X%X|.oX%XE.N.C..X%X",
"2 < ; 1 < ; = * % % % % % % X : _.%XoX%X.XXX%X%X~.F.%X%X%X.X%X_.; % % % % & & % % % * & % % % 2 m.[.%X%X%X%X%X%X%X%X%X%XQ.W.oX/.",
"= * = = : = * = * * & & % * X : {.{.[.%X%XXX{.%X.X%X%X%X%X%X%X/.: % & * & & % & & & % % % & % : _.%X%X%X%X%X%X%X%X%X%X%X%X%X%X%X",
"% % % & % & & o o o % & % & % 1 {.%X.X%X%X%X%X%X%X%X%X%X%X%X%X_.=   % % % % % % % & * % * * % < _.%X%X%X%X%X%X%X%X%X%X%X%X%X%X%X",
"% % % % o % % = * = % o o * = : _.%X|.%X%X%X%X%X%X%X%X%X%X%X%X_.=   % % % % * & % % & & * & % : _.%X%X%X%X%X%X%X.XB.A.{.%X.X%X%X",
"% % o o %     % * & * & % & X = _.%X%X%X%X%X%X%X%X%X%X%X%X%X%X_.= * : * % % * & & % % & * = % : }.%X%X%X%X%X%X%XF.Z.oX.XoXE.R.oX",
"% = & . .   . .     % X     . * _.%X%X%X%X%X%X%X%X%X%X%X%X%X%X_.*   * = = % % % % % o & = & & < _.%X%X%X%X%X%X%X/..X%X%X%X%X%X{.",
"= = 3 : = * = = * * = < < = = 3 R.{._._._._.Q._._._._._._._.{.R.b 3 2 1 2 2 : < 1 2 3 3 3 3 3 5 D._._._._._._.Q.F._._._._._._._.",
"_.Q._._./._._._./.{._._._._.{.W.2 = < ; : = = ; = : = ; : : * 2 P.Q._._._.{.~._._._.Q.A.{._.{.R.5 2 < < : : : 3 < : < = < = < : ",
"{.%X.X%X%X%X%XoXXX/.%X%X%X%X%X_.< . X   % % o % % % % o % * . * _.%X%X%X%X%X%X%X%X%X[.B.%X%X%X_.< & * % % % * < & % o X         ",
"[.%X%X{.%X%X%XW.|.|.oX%X%X X%X~.< % & & % % % % * = ; = < b 3 1 }.%X%X_.v z x x h 0.%XW.~.%X%X[.4 2 < ; % o % & * & & & % % & & ",
"oX_. XA.R.%X%XR.{.%XoX%X%X%X%X_.* % 1 : = = < < & o o & & 2 1 4 _.%XV.<.2.2.2.2.2.,.7.%X[._.%X_.< = < = & o % % & X o X o %     ",
"/.}.%X{.n.%X%XW.{.XX%X%X%X%X%X}.< % 1 3 3 1 < * * & % % o %   : W./.6.l I.I.I.I.U.,.k T._.n.%X{.< = = % % & % ; 3 : < 2 1 < 1 = ",
"%X%X%X%X~..X%X%X%X%X%X%X%X%X%X{.2 * * = 1 b = = * % % & & % % < ~.v H L.J.J.J.J.J.L.f.0 S.E./.{.< & & & * % * 2 2 3 < < 1 < b 1 ",
"%X%X.XW.%X%X%X%X%X%X%X%X%X%X%X/.: & ; = = 4 M : % % % % % & % & v 5.f.L.K.K.K.K.K.L.H.d.G 7.%XN.; & & & * & < M 3 3 = = = o = % ",
"oXP.M.|.%X%X%X%X.X}.%X%X%X%X%XE.< % < = = < 2 < & % * & % % o > J f.I.J.K.K.K.K.K.J.L.I.L L 0.q.2 = = = * o = 5 < : & & % & & & ",
"C.W.D..X%X%X%X%X[.W.%X X%X%X%X_.: o & % * 1 4 2 2 ; & & & = w G L.L.J.K.K.K.K.K.K.K.J.x.k.:.0 Q.3 & : < < : < 3 : o %   % % * = ",
"~..X%X%X%X%X%X%X%X%X%X~.|.%X%X_.< % * = = 2 b 3 < n 2 & * O 2.I.H.K.K.K.K.K.K.K.J.L.G.u.s.:.g Q.< & * = = < 3 < = & o X % & & X ",
"%X{.XX%X%X%X%X%X.XR.%X%XXX[.XX_.< & : : * * : 3 n < : , # ;.f.L.J.K.K.K.K.K.K.J.L.l.h.l.h.&.g Q.b < 4 < 2 1 % % & * % % %   X   ",
"%X%X%X%X%X%X%X%X~.E.%X%X%X%XW.A.1 & ; = * ; < b B : = # 7 f.I.J.K.K.K.K.K.K.K.K.x.j.h.z.h.&.g W.N B n < 2 < : & & & & & * * * * ",
"%X%X%X%X%X%X%X XXX/.%X%X%X%X%X_.2 % = < ; = = < < : # 7 8 g.L.J.K.K.K.K.K.J.J.K.y.l.J.u.s.:.z P.5 2 = : < 2 2 : = = < < : = = * ",
"%X%X%X%X%X%X%X%X.XB.%X%X%X%X%XW.< % * < b < * = ; @ d ! I e 9.U.J.K.K.K.J.L.z.y.x.j.y.s.V >.T.Z.b * < 2 5 < * * = = ; * %     o ",
"%X%X%X%X%X%X%X%X%X%X%X%X%XXX%X_.; % = * * * * - > d ! *.a.P F 1.K.L.J.K.L.z.j.l.j.h.t.K 3.v.%XQ.< X % = 2 = < = = % % % % %     ",
"_.Q._._._./._._.{.N.W.}._.Q.W.W.b 2 b 3 < 2 = > p ' ] e.G.*.u w g.H.K.J.G.h.h.J.y.t.4.h S.%X_.W.3 = 1 1 < < 1 1 4 5 < 1 4 3 : : ",
"= < < 1 < ; ; : : = : < 1 2 < n Z.R.{._.).].v i ] ) a.p.) ` ' ^ q d.L.x.u.z.z.u.s.K @ Z M 2 < 5 W.{.P.D._._._._./._._.}.~.Q._._.",
"%     % X o o & o % & % * % o : Z.%X%X%X(.J P ! ` l.e.=.( ` ` _ I S ;.k.x.j.s.s.A j , * & %   2 _.%XA.}.%X%X%X%X%X%X%X%X%X%X%XoX",
"* X X X X o & * % % % ; * = * < /.%X%XS.6.i ! =.e.p.=.) ` ` ` ` ] u p 4.z.h.t.:.w j n < = & & : E.%XB.%X%X%X%X%X%X%X%X%X%X/././.",
"% < 3 1 * = : % % % % & & & % < _.F.Q.>.+ %.) -.l.) ( ` ` ` ` ( / $.U w r.t.&.7 1 2 1 : * < * 1 {.%X.X%X%X%X%X%X%X%X%X%X%X}.|.%X",
"% = 3 2 < < & X % & * % % & o : [.[.v a +._ ` ` _ ` ` ` ` ` ' / [ / o.E q 7 w 3 < & % % * : * < _.%X%X%X%X%X%X%X%X%X%X%X%X%X%X%X",
"% o   . X % % o % X % % % & * < }.%Xc t #.` ` ( ( ` ` ` ` ' o. .o.X.O.Y 7 9 - X   X % * % = : 2 _.%X%X%X%X%XW./.%X%X%X%X%X%X%X%X",
"o   = 3 < * = ; < < = % o % & 2 A.%Xc t #.~ ( ` ` ` ` ` ` / X...$. .R s # - o % % % % = * & % 2 m.%X%X%X.X}.F.F.%X%X%X%X%X%X%X%X",
"% * 1 n 1 * % 2 b 5 < < = & X = E.|.c a { T $.` ( ` ` ` ` [ o.` T +.s @ * o % % % % % = & = < m Q.%X%X%X[.W..X_.%X%X%X%X%X%X%X%X",
"& 1 4 1 < < % : : & % * 2 1 ; : {.|.k t #.T | o.` | / / [ / X.| +.p 9 & * = % & & % & o * 5 m 5 _.%X|.%X%X%X/. X%X%X%X%X%X%X/.[.",
"2 N 2 & 3 5 = ; ; & % % : < = 3 _.%Xc.F r @.} | X.o.X.X.o.X. .Y p > $ & % * & % & % = = = = % 1 {.%X[.%X%X%X|.XX%X%X%X%XoX.X|.E.",
"M m = * < < 3 4 % % % * : < < 4 P.%X%X8.e E Q } [ (  .| ` | Y W 8 , * % % % % & * < m < * * & 3 [.%XXX%X%XoXXX%X%X%X%X%XXX X%X%X",
"m ; * % % % & 5 ; % % = 1 < & 4 Q.%XoX%XY.0 E +.T T [ [ T +.p h ; : 3 * = ; ; = < 5 < * = * = b {.|.}.%X%X%X%X%X%X%X%X/.oX%X%X%X",
"* % % % * & % : = * * & : = < 3 _.%XoX%X.XV.S r #.{ { { +.6 <.S.= X : * * = < 1 < 2 = = = = % 1 W.~. X%X%X%X%X%X%XXXXX%X%X%X%X%X",
"& & & & & * * ; = < < < : 3 3 5 {.%X%X%X%X%X8.F y s s y f H v.%X< = 1 : 3 & & = < < 2 = * = = 3 W.%X%X}.%X%X%X%X%X%X%X/.%X%X%X%X",
"< < % X = = = 1 < : = * = 5 : b Q. X%X%X%X+X%Xc.h z h g c !.[.Q.: % * < < % % % & * < < & & % < _.%X%X%Xm.Z.%X%X%X%X%X%X%X%X%X%X",
"C M 2 2 M C 3 2 1 3 5 : 3 3 1 M A.Q.Q.{.{._._.Q.W.Q.w.b.(.Q._.E.3 ; 1 2 2 4 b b 3 3 3 b 3 < : b W.{._.[.C.D._._./.Q.{._./._.R.R.",
"/.W./.{.{.{._.~.R.W.P.D._._._.R.C M n M A C M 3 1 3 3 < 1 < : b A.Q._._..X}.[.N.n.P.{.R./.W._.W.n 1 3 1 3 5 2 1 2 2 2 2 3 2 < 1 ",
"%X%X%X.X%X%X%X X%X%X%X%X%X%X%X_.n 3 5 b : = ; & o % % % & & o = Q.%X%X%XA.P.%X}.|.oX[.%X%XoX%X_.< * : 1 : < = % & % % % * = & & ",
"R.%X.XW.%XoX|.%X%X%X%XXXoX%X%X_.< ; < 1 2 : < : * & & & & & & 3 [.%X}. XA.{.%X%X%XoX[.%X.X_.%X_.< : 3 2 < 1 2 < = = = * : ; & * ",
"%X%X%X%X%X%X[.%X%X%X%X%X%X|. X{.< o % 1 N 3 1 = * & & * ; < 2 Z }.%X|.|./.%X.XoXoXXX%X%X%X%X%X_.: o < 2 3 2 2 : * = = ; < * & & ",
"R.%X%X%X%X|.W.%X%X%X%X%XoXP.D.R.< & * 3 3 : < = & & = = 3 < * 3 Q.%X%X%X%X XA.oX%X%X.X%X%X%X%X_.; o & ; < = = = * = * & % * * = ",
"R.%X%X%X%X/.}.%X%X%X%X%X%XB./.Q.2 * ; : 2 2 : : * : 2 3 : : * 5 Q.%X%X%X%X%X%X%X%X%XoX%X%X%X%X_.= X < = < & % = < : * & % % & = ",
" X%X%X%X%XoX%X%X%X%X%X%X%X%XE.C.3 1 2 = = < < : : < = < : = & 2 {.%X X X%X%X%X%X%X%X%X%X%X%X%X{.= o * % & % * % % & & & & & = : ",
"/.[.%X%X%XoX%X%X%X%X%X%X%X%X{.R.< < 2 : = * 2 3 < = = : < 1 : 3 _.%XC.R.%X XE.Q.XX%X%X%X%X%X%X_.= % % & & % % * = * & % % = < 2 ",
"[.C..X%X%X%X%X%XXX%X%X%X%X%X%X_.< 2 2 * 1 2 : < < < ; ; ; = < B _.%Xb.w.%X%X X[.{.%X%X%X%X%X%X_.1 o & * & = & * = & & % & = * 5 ",
"%Xn.W.%X.X}.%X%X%X%X|.oX%X%X%X_.< & = ; m A m < * = 1 4 2 : : C {.%XD.q.%X%X%XXX}.%X%X%X%X%X%X_.= o % % % % & % % & = < = % % & ",
"%XQ.A.%X_./.%XoX%X%XXX}. X%X%X_.2 * * : = 5 Z Z 4 < = = = = * b {.%X|./.%X%X%X.XW.%X%XQ.P.W.Z.Z.< X X % % % % % & 1 = % & % % % ",
"%X_.C.%XR.~.%X|.%X%X%X%XF.|.%X_.2 3 b = * * 2 Z M 1 * & * * % 1 {.%X[.Q.%X%X%X%XXX%X%XR./.~.R.Q.=   % & % % % % % & o & < < & & ",
"%X%X X%X[.~.%X%X%X.XXX}.~.Q.%X_.< 1 2 ; = = = 2 m m 3 : * = & < }.%X.XQ.%X%X%XXX~.%X%X%X%X%X%X_.* . o X o o % & * < 1 = 2 n = & ",
"%X%X.X|.{.oX%X%X%X%X%X X.X.X%X_.3 * * * * = = = 2 2 2 3 = ; & < _.%X.X~.%X%X%X%X%X%X%X%X%X%X%X_.= . o % & % * 3 n 3 5 < = 2 < * ",
"oX%X/.P. X%X%XoX%X%X%X%X%X%X%X_.b < : = * * = : 1 M 5 = = = % < _.%X%X.X%X%X%XXX/.%X%X%X.XXX%X_.=   % = = : < 3 1 1 < % * < 3 = ",
"%X%X%XXX%X/.oXoXW.D./.W.XX|.%X_.< & : < < & & * * 1 M < = * & : /.%X%X%X%X%X%X%X%X%XoX{.%X%X%X_.= o * & % * < < = & = & = = < % "
};
