/* XPM */
static char *_c748f3298da45fec08ca6880b8ba52167WB9532DbklDHrN[] = {
/* columns rows colors chars-per-pixel */
"64 64 190 2 ",
"   c #040403",
".  c #0A0402",
"X  c #090807",
"o  c #02070A",
"O  c #060B0F",
"+  c #0C0C0C",
"@  c #180500",
"#  c #170B03",
"$  c #110E0C",
"%  c #170901",
"&  c #10100F",
"*  c #1A1007",
"=  c #0A0F13",
"-  c #0F1418",
";  c #141413",
":  c #191917",
">  c #1D1C1B",
",  c #161B1E",
"<  c #270D01",
"1  c #241204",
"2  c #2B1403",
"3  c #2E1E0E",
"4  c #27170A",
"5  c #311602",
"6  c #3F1500",
"7  c #3C1A02",
"8  c #3C1E08",
"9  c #301A09",
"0  c #201F1E",
"q  c #3F240F",
"w  c #21211F",
"e  c #29221B",
"r  c #342212",
"t  c #1A1F23",
"y  c #1D2225",
"u  c #252422",
"i  c #282725",
"p  c #2A2826",
"a  c #2D2C2A",
"s  c #21262A",
"d  c #302F2D",
"f  c #32312F",
"g  c #262C31",
"h  c #292F32",
"j  c #2C3135",
"k  c #343432",
"l  c #383735",
"z  c #373837",
"x  c #3A3836",
"c  c #34373A",
"v  c #35393B",
"b  c #3D3C3A",
"n  c #411E05",
"m  c #432007",
"M  c #4C2205",
"N  c #40220C",
"B  c #4C280D",
"V  c #532606",
"C  c #532A0C",
"Z  c #5C2C0A",
"A  c #562707",
"S  c #432A15",
"D  c #452E19",
"F  c #402611",
"G  c #57371B",
"H  c #622E0A",
"J  c #673008",
"K  c #6A3109",
"L  c #72360D",
"P  c #7B3B0D",
"I  c #74380E",
"U  c #7F3E10",
"Y  c #5B3E22",
"T  c #403F3D",
"R  c #73421B",
"E  c #42403E",
"W  c #6B4C2C",
"Q  c #72502D",
"!  c #3A3F42",
"~  c #353C40",
"^  c #444342",
"/  c #484745",
"(  c #4A4846",
")  c #43474B",
"_  c #4C4C4B",
"`  c #46494D",
"'  c #504E4C",
"]  c #51504F",
"[  c #4F5050",
"{  c #535353",
"}  c #585755",
"|  c #575758",
" . c #5B5B5B",
".. c #605F5F",
"X. c #646464",
"o. c #696867",
"O. c #6B6B6B",
"+. c #646669",
"@. c #727272",
"#. c #787776",
"$. c #797877",
"%. c #7B7A7A",
"&. c #757778",
"*. c #853E0E",
"=. c #803F10",
"-. c #87410F",
";. c #89410F",
":. c #90440F",
">. c #854111",
",. c #8B4413",
"<. c #8E4816",
"1. c #854B1D",
"2. c #914611",
"3. c #964B16",
"4. c #9D4E16",
"5. c #9F5017",
"6. c #A15016",
"7. c #814B20",
"8. c #8F5020",
"9. c #87582D",
"0. c #925322",
"q. c #975927",
"w. c #9A5926",
"e. c #975C2B",
"r. c #995F2E",
"t. c #985522",
"y. c #915F32",
"u. c #9E602D",
"i. c #9C6737",
"p. c #9F6837",
"a. c #9E6B3A",
"s. c #A2622D",
"d. c #A26430",
"f. c #A36A37",
"g. c #A56C39",
"h. c #AB6E3A",
"j. c #AB723D",
"k. c #807F7E",
"l. c #82807F",
"z. c #838281",
"x. c #AFAFAF",
"c. c #C6C5C2",
"v. c #CCC9C6",
"b. c #CDCCCA",
"n. c #C8C5C0",
"m. c #D2CFCC",
"M. c #D4D1CD",
"N. c #D6D4D2",
"B. c #D8D6D2",
"V. c #DCD9D6",
"C. c #DDDCDA",
"Z. c #E1DEDB",
"A. c #E3E1DE",
"S. c #E5E4E2",
"D. c #E8E6E3",
"F. c #EBE9E6",
"G. c #EEECEA",
"H. c #EFEEED",
"J. c #ECEBEA",
"K. c #F1EFEC",
"L. c #F2F1EF",
"P. c #F5F2EE",
"I. c #F3F1EF",
"U. c #F3F3F3",
"Y. c #F3F2F3",
"T. c #F2F2F0",
"R. c #F5F3F1",
"E. c #F6F5F2",
"W. c #F5F5F4",
"Q. c #F7F6F5",
"!. c #F3F3F2",
"~. c #F8F7F6",
"^. c #F8F7F4",
"/. c #FAF8F6",
"(. c #FAF8F6",
"). c #FBFAF9",
"_. c #FBFBFA",
"`. c #F9F8F8",
"'. c #FCFBFA",
"]. c #FCFCFB",
"[. c #FEFDFB",
"{. c #FDFDFC",
"}. c #FDFCFC",
"|. c #FEFDFD",
" X c #FEFEFD",
".X c #FEFEFE",
"XX c #FFFFFE",
"oX c white",
"OX c #FFFEFE",
"+X c #FEFEFE",
/* pixels */
"p i p d x l f p f a p u p x l k U.oXoXoXoXoXoX].oXoX].oXoXoXI.Z.l i p i u u a x p w u w u p u d A.).oXoXoXoXG.).oXoXoXoXS.oX(.oX",
"x d k / b k a u u u u u a p u l U.oXoXoXoXoXoXoXoXE.Q.oXoX!.F.U.^ k b b x f k ^ ^ x l p f l i d A.'.oXoXoXoXE.I.].oXoXoXoXoXoX!.",
"x a a a i u u i u u u p p p u a Z.oXoXoXoX].].oXoX(.].~.oXG.oXQ./ l f a k l x ^ ' b b k p u 0 d D.oXoXoXoXU.D.E.A.oXoXoXoXoX].K.",
"a a a a a u u u p a l a u u w k I.oXoXU.E.!.A.oXoXoXoXoXoX(.oXE.k a x l p u a a i u i u w w w p C.oXoXoXoXE.v.P.oXoXoXE.oXoXoXoX",
"a f k f x x x T ^ b k a u u w k C.).oXZ.!.oXA.I.oXoXoXoX).oXoXQ.x d d a p p i a a u p i u u > f I.oXoXoXoX(.).(.].oXH.A.oXoXoXoX",
"i p f p a f l ^ T E b d a u > k A.].oXc.H.oXoX).oXoXoXoXG.).oX!.k u i u u u u i f i p a u u u k U.oXoXoXoXoX).oXoXoXF.F.oXoXoXoX",
"p f f p p p i i p x b ^ l l k f S.oXoX~.oXoXoXoX^.oXoX].E.oXoXU.f w u i p p a u k l u a p i i f U.oXoXoXoXoXoXoXoXoXA.K.oXoXoXoX",
"a f p p p p a p a x k f a x b b D.oX].E.oXoXoXoX'.I.oXoXoXoXoXU.f 0 a a a p p u p k u u p i w f H.oXoXG.).oXoXoXoXoXoXA.I.oXoXoX",
"k T x f p p i i p i p u u u 0 k Q.oXoXE.'.oXoXoXoXP.oXoXoX).oXU.a w a u u u u u i a i i u i w l M.S.U.I.).oXoXoX~.].oXD.m.N.).oX",
"x k d l k d a p u u u u u u 0 f U.oX].oX).'.oXoXK.Z.'.].oXoXoXU.f i i i u i i u u u p i u u u x b.E.oXoXoXoXoXoXoXoXoXoXG.F.].P.",
"a p a a f a p a p p i i u p 0 f Q.Q.E.oXoX).Q.oXQ.].oXoX).@.O.X.+ X ; + > a i p i i u u u i u f U.oXoXoXoXoXoXoXoXoXoXoXoXoXoXoX",
"u u u i u i i w w w u i u i u l Q.oX).oXoXoXoXoXoXC.@.O.O.a   a x ^ + u w   X > p p p u p p u k U.oXoXoXoXoXoXoXoXoXoXoXoXoXoXoX",
"u u u u w u u a p a u w w p a f U.oX~.oXoX).oXv.$.{   p p o.x x @.^ a  ._ l >   X ; p u p i u f U.oXoXoXoXoXoXoX).M.V.Q.oX).oXoX",
"u u w w u > > u p i p i u i 0 a U.oXoXoXoXoXC. .: i k _ $.@.#.l b k X.#.#. .l a a u ; p p p u f !.oXoXoXoXoXoXoXZ.N._.).].D.S.].",
"u a i : : > : : > > u 0 > > : p U.oXoXoXoXN. .b #.@.X.d b c v v   a v c b a [ @.@. .u : k u i k U.oXoXoXoXoXoXoXI.).oXoXoXoXoXQ.",
"a a b f a p a a p p a k k a a b D.Q.K.Q.C.^ i $.o.O.O.!   3 1 1 2 3 2 1 . y X.O.O.X.x > u ^ b E C.U.U.U.U.U.U.H.Z.U.U.U.U.U.U.U.",
"U.H.U.U.I.U.U.U.I.Q.U.H.U.U.Q.J.x a k p 0 : a  .X.) b 1 9 a.3.,.,.f.t.2.C 1 x ` _ l l  .z x.U.F.E x k k f f f b k f k a k a k f ",
"Q.oX).oXoXoXoX].'.I.oXoXoXoXoXU.k > u   k $.^ a ^ * 5 ,.<.a.<.,.,.i.0.>.;.d.Y % . i O.O.{ i ).Q.k i p u u u p k i u w 0 > > > > ",
"E.oXoXQ.oXoXoXF.~.~.].oXoX(.oXK.k u u ; b O.o.f S p.>.>.<.a.<.,.,.i.0.>.;.r.e.;.Z e  .O.{ : b.U.E x k d u w u i p i i i u u i i ",
"].U.(.V.D.oXoXS.Q.oX].oXoXoXoXU.p p ; x @.@.! 5 w.i.>.,.<.a.<.,.,.i.0.>.;.r.e.*.3.V > O.{   > S.l p k a i w u u i 0 w 0 w u > > ",
"P.!.oXQ.v.oXoXJ.Q.'.oXoXoXoXoX!.k p + k O.O.v 7 w.i.,.,.<.a.<.,.,.i.0.>.;.r.e.*.3.Z u _ i { : S.x a a u u i u d b f k x l k l a ",
"oXoXoXoXK.).oXoXoXoXoXoXoXoXoXQ.x p ;   ^ v 5 ,.0.i.,.,.<.a.<.,.,.i.0.>.;.r.e.;.>.w.W ; O. .u C.x u i i p u p x x b k k l k ^ l ",
"oXoX).F.oXoXoXoXoXoXoXoXoXoXoXK.k X x o.l   8 2.0.i.,.,.<.a.<.,.,.i.0.>.;.r.e.;.>.w.Q ; o.o. .p i p i i p i k _ b b a a a w a u ",
"].A.n.~.oXoXoXoX).!.oXoXoXoXoXD.k   ^ %.h 5 <.-.0.i.,.,.<.a.<.,.,.i.0.>.;.r.e.;.>.0.p.H > O.X.X p f a a p w a E k f i i u i i i ",
"B.F.C.).oXoXoXoXE.F.oX(.oXoXoXU.k   ^ $.h 7 3.-.0.i.,.,.<.a.<.,.,.i.0.>.;.r.e.;.>.0.f.J ; O.X.+ p a d k k f k b f w u > u u p a ",
"K.).oXoXoXoXoXoXoXoXoXK.^.oXoXU.k   ^ %.j 7 3.-.0.i.,.,.<.a.<.,.,.i.0.>.;.r.e.;.>.0.f.J ; O.o.+ u p p a a k b k a i w 0 u i i 0 ",
"oXQ.'.oXoXoXoXoX).S.oXoX'.E.'.U.k X ; i O n 3.-.0.i.,.,.<.a.<.,.,.i.0.>.;.r.e.;.>.0.f.J X u > X k x b k x l u u i p u u u > 0 > ",
"oXoXoXoXoXoXoXoXK.D.oXoXoXoXF.V.l X i _ , 7 3.-.0.i.,.,.<.a.<.,.,.i.0.>.;.r.e.;.>.0.f.J + ^ b + T } ^ k x k f i i i i i p p p p ",
"oXoXoXoXoXoXoX(.'.I.oXoXoXoXoXU.x   ^ z.j 7 3.-.0.i.,.,.<.a.<.,.,.i.0.>.;.r.e.;.>.0.f.H ; @.O.= f b a f k x x f a a k k f a a p ",
"oXoXoXoXoXoXoXoX).M.oXoXoXoXoXF.k   b #.h 7 3.-.0.i.,.,.<.a.<.,.,.i.0.>.;.r.e.;.3.u.j.L ; o. .+ f f f x E k p p a a d p u > > w ",
"oXoXoXoXoXoXoXoXoXoXoXoXoX'.oXU.f   ^ z.j 7 3.-.0.i.,.,.<.a.<.,.,.i.0.>.;.r.e.K n B G < ; @.O.+ u u u a x a k a a u u u u u > > ",
"U.H.U.U.U.I.U.U.Q.m.J.!.U.H.J.J.^ + > b - n 3.-.0.i.,.,.<.a.<.,.,.i.0.>.;.r.s.n g b > _ X k a X d k k l k k l l T E k l T b f f ",
"a k k l k d d f f a f k l x k ^ C.^ X p O n 3.-.0.i.,.,.<.a.<.,.,.i.0.>.;.r.s.6 ~ { u +.  u : + S.~.A.C.U.L.U.U.I.U.U.!.K.G.U.U.",
"u > > u 0 w w i w u i u p u w d C.{ l l.j 7 3.-.0.i.,.,.<.a.<.,.,.i.0.>.;.r.r.H < 9 r @ ; @.X.; F.oXV.!.oXoXoXoXoXoXoXoXoXoXoX].",
"p 0 0 0 0 w i p u u u d p a p k (.| k $.h 7 3.-.0.i.,.,.<.a.<.,.,.i.0.>.;.r.e.;.,.q.g.K ; O.X.& Z.oXM.oXoXoXoXoXoXoXoXoXoXP.P.P.",
"u k b l p a f u u u u i i i u k ~._ l k.j 7 3.-.0.i.,.,.<.a.<.,.,.i.0.>.;.r.e.;.>.0.f.J ; O.X.; G.oX).oXoXoXoXoXoXoXoXoXoX!.~.oX",
"u a b x k k i 0 u i p u u i 0 d ).{ p o.s 7 3.-.0.i.,.,.<.a.<.,.,.i.0.>.;.r.e.;.>.0.f.J ;  ._ ; J.oXoXoXoXoXoXoXoXoXoXoXoXoXoXoX",
"u w > > 0 u u w u 0 u u u i p k ). .  : o m 3.;.t.p.,.,.<.a.<.,.,.i.0.>.;.r.e.;.>.0.f.J   ; + + J.oXoXoXoXoXG.I.oXoXoXoXoXoXoXoX",
"w > a b k p a d k k a u w u i l A.{ k #.h 7 3.*.1.y.U =.<.a.<.,.,.i.0.>.;.r.e.;.>.0.f.J ; o. .; c.oXoXoX).!.Z.Z.oXoXoXoXoXoXoXoX",
"u p l ^ l p u x ^ E k k a i 0 a G.] l %.j 7 4.C . .   1 <.a.<.,.,.i.0.>.;.r.e.;.>.0.f.J ; O.X.; S.oXoXoXE.F.).U.oXoXoXoXoXoXoXoX",
"i l T l k k u f f i u p x l d f ).{ k %.h 7 3.>.C   # I <.a.<.,.,.i.0.>.;.r.e.;.>.0.f.J ; O...; J.oX~.oXoXoXP.(.oXoXoXoXoXoXP.E.",
"x ' x i b E a d d i u u f k p b ).{ k %.h 7 5.V r y.H 2 <.a.<.,.,.i.0.>.;.r.e.;.>.0.f.J ; O...; J.oXE.oXoXoX~.'.oXoXoXoX].).^.D.",
"_ ( a p k k b T u u u p f k k b F.{   w o n 6.n e h.L # <.a.<.,.,.i.0.>.;.r.e.;.>.0.f.K   : ; $ G.oX'.oXoX].'.oXoXoXoXoX'.(.oXoX",
"( d p u u u i E d u u a l k i b ~.| > } t 7 3.P C 4 2 K <.a.<.,.,.i.0.>.;.r.e.;.>.0.f.J + _ ^ ; H.(.!.oXoXoXoXoXoXoXoXP.].oXoXoX",
"p u u u p i u f a p p i f a k b ).{ l z.j 7 3.,.1.Y Z ,.<.a.<.,.,.i.0.>.;.r.e.;.>.0.f.J ; @.o.; Z.I.(.oXoXoXoXoXoX'.'.oXoXoXoXoX",
"i i i i i p p d a k k k f b b T oX{ k $.h 7 3.-.0.g.2.>.<.a.<.,.,.i.0.>.;.u.e.;.>.0.f.J ; O. .; A.oXoX!.oXoXoXoXoXoXoXP.oXoXoXoX",
"k k u 0 a a a l k f a p a E f E Q.] x z.j 7 3.-.0.i.>.,.<.a.<.,.,.i.0.>.;.u.e.;.>.0.f.J ; @.o.; J.oXoXoXb.B.oXoXoXoXoXoXoXoXoXoX",
"{ _ x x _ { b x l b E f b b l _ A._ + k = n 3.-.0.i.,.,.<.a.<.,.,.i.0.>.;.r.e.;.>.0.f.J X p u ; S.Q.U.E.B.C.U.U.I.G.Q.U.I.U.S.S.",
"I.J.I.Q.Q.Q.U.K.D.F.A.C.U.U.U.S.{ : ; a = n 3.-.0.i.,.,.<.a.<.,.,.i.0.>.;.r.e.;.>.0.f.J X i u X x b x l b E x l x x x x b x k l ",
"oXoXoX).oXoXoX(.oXoXoXoXoXoXoXU.( ; ^ z.j 7 3.-.0.i.,.,.<.a.<.,.,.i.0.>.;.r.e.;.>.0.f.J ; @.O.+ u a f l f k a u i u u u p a i i ",
"S.oX).F.oX].^.oXoXoXoX'.].oXoXU.k X b #.h 7 3.-.0.i.,.,.<.a.<.,.,.i.0.>.;.r.e.;.>.0.f.J ; O.X.+ u k b x k l x k a a a p f d i p ",
"oXoXoXoXoXoXE.oXoXoXoXoXoX~.(.Q.k   ^ k.j 7 3.-.0.i.,.,.<.a.<.,.,.i.0.>.;.r.e.;.>.0.f.J ; @.o.+ w u f x b x x f p a a d k p i i ",
"S.oXoXoXoX~.F.oXoXoXoXoX].A.V.S.l   k  .y 7 3.-.0.i.,.,.<.a.<.,.,.i.0.>.;.r.e.;.,.w.g.K $ { _ + w u i d k a a a p a p i u p p a ",
"S.oXoXoXoXP.!.oXoXoXoXoXoXM.I.G.b X + > o m 3.-.0.i.,.,.<.a.<.,.,.i.0.>.;.r.e.P J R 9.V   : ; X w u k a k i u a k f p i u u i a ",
"(.oXoXoXoX].oXoXoXoXoXoXoXoXD.B.E X b $.h 7 3.-.0.i.,.,.<.a.<.,.,.i.0.>.;.r.s.M o $ X + ; O.X.+ > u p u i u p u u i i i i i a f ",
"I.E.oXoXoX].oXoXoXoXoXoXoXoXQ.S.x X ^ $.h 7 3.-.0.i.,.,.<.a.<.,.,.i.0.>.;.r.s.6 ) X.a &.; O.X.+ > i u i i u u p a p i u u a k x ",
"E.B.).oXoXoXoXoX'.oXoXoXoXoXoXU.x X ^ $.j 7 3.-.0.i.,.,.<.a.<.,.,.i.0.>.;.r.s.M   $ X X ; O.X.+ p u u p i a i p a i i u i a p E ",
"oXv.F.oX).!.oXoXoXoX~.].oXoXoXU.l   b @.g 7 3.-.0.i.,.,.<.a.<.,.,.i.0.>.;.r.e.*.P 7.y.A ; o. .+ w u u u u u i u u i a k a u u i ",
"oXH.V.oXU.P.oX].oXoX'.!.(.oXoXU.x +   ;   m 3.-.0.i.,.,.<.a.<.,.,.i.0.>.;.r.e.;.,.q.f.K   + +   u u 0 u u u u u i l a u i u u u ",
"oXU.N.oXS.K.oX~.oXoXoXoXZ.~.oXU.b + k ..y 7 3.-.0.i.,.,.<.a.<.,.,.i.0.>.;.r.e.;.>.0.f.J & { _ + > u w i u u u u u i w i k k i i ",
"oXoX(.oXE.K.oXoXoX).'.!.K.G.oXU.l X ^ %.j 7 3.-.0.i.,.,.<.a.<.,.,.i.0.>.;.r.e.;.>.0.f.J ; O.o.+ : > 0 0 w w u i p k l a x / a i ",
"oXoX).~.Q.].oXoXoXoXoX(.).).oXU.b X b $.h 7 3.-.0.i.>.>.<.a.<.>.>.i.8.>.;.r.e.;.>.0.f.J ; O.X.+ > > 0 u i u p b / b E k a x k p ",
"].oXI.A.(.oXoX].oXoXoXoXoXoXoXU./ + ^ k.j 7 4.;.w.g.2.2.3.j.3.2.2.g.t.2.:.d.u.:.2.w.h.K ; @.o.+ > u u a a f k b l l k u p k b a ",
"oXoXoX'.oXI.].].F.C.I.F.'.^.oXU.l X : k ; # N 8 q S 8 8 8 D 8 8 8 D N 8 8 S S 8 8 F D 2 X a p + 0 u p i u p k k a i a i a a k u "
};
