/* XPM */
static char *_05b70021ace4579ed7e644acc5b7d35m5NvCPqKMOJdPb4u[] = {
/* columns rows colors chars-per-pixel */
"64 64 234 2 ",
"   c #1E1D1B",
".  c #1A1917",
"X  c #2E1609",
"o  c #331301",
"O  c #3B1A02",
"+  c #321A0C",
"@  c #3A1609",
"#  c #380C15",
"$  c #2C1C13",
"%  c #201F1D",
"&  c #2D1718",
"*  c #351717",
"=  c #330E05",
"-  c #22211F",
";  c #2B221C",
":  c #32241B",
">  c #362316",
",  c #3D2106",
"<  c #3A0A24",
"1  c #2B1D23",
"2  c #361725",
"3  c #252422",
"4  c #292725",
"5  c #2A2926",
"6  c #2D2C2A",
"7  c #312E2D",
"8  c #382A27",
"9  c #32312F",
"0  c #3A322D",
"q  c #3B2B32",
"w  c #353432",
"e  c #393735",
"r  c #3A3836",
"t  c #3D3C3A",
"y  c #441A08",
"u  c #420E1B",
"i  c #4A1618",
"p  c #541D15",
"a  c #4B2402",
"s  c #492505",
"d  c #532B02",
"f  c #572A0A",
"g  c #5D3303",
"h  c #5A350D",
"j  c #492B1C",
"k  c #592719",
"l  c #4B311E",
"z  c #593917",
"x  c #633303",
"c  c #6C3D01",
"v  c #66390A",
"b  c #713F01",
"n  c #642D19",
"m  c #683915",
"M  c #693512",
"N  c #420C26",
"B  c #461624",
"V  c #541929",
"C  c #521927",
"Z  c #582324",
"A  c #4A3B29",
"S  c #553A27",
"D  c #58253B",
"F  c #413E3C",
"G  c #463D32",
"H  c #573634",
"J  c #49282C",
"K  c #63272B",
"L  c #6D3524",
"P  c #763B2B",
"I  c #753C2A",
"U  c #5D411D",
"Y  c #6E4108",
"T  c #734304",
"R  c #7A4907",
"E  c #74440A",
"W  c #7C4C0A",
"Q  c #76480B",
"!  c #764818",
"~  c #7E531E",
"^  c #6B4517",
"/  c #42413E",
"(  c #4B443B",
")  c #58493A",
"_  c #58462E",
"`  c #7B4030",
"'  c #6C573C",
"]  c #745E3C",
"[  c #704B2C",
"{  c #7A623C",
"}  c #3D3F41",
"|  c #5B2642",
" . c #693B56",
".. c #643749",
"X. c #444343",
"o. c #494645",
"O. c #4C4A45",
"+. c #4D4C4C",
"@. c #454648",
"#. c #544D43",
"$. c #55524D",
"%. c #4F4F51",
"&. c #525252",
"*. c #5C5C5C",
"=. c #595650",
"-. c #4F5153",
";. c #6B5647",
":. c #6D5B52",
">. c #7A665A",
",. c #756452",
"<. c #6C6C6C",
"1. c #646465",
"2. c #727273",
"3. c #7A7A7A",
"4. c #767778",
"5. c #797063",
"6. c #7D5F67",
"7. c #814C18",
"8. c #855312",
"9. c #8D5A1B",
"0. c #895714",
"q. c #925E1A",
"w. c #9A671E",
"e. c #98651D",
"r. c #844B2D",
"t. c #945E29",
"y. c #8A5735",
"u. c #996826",
"i. c #896A3B",
"p. c #9C6434",
"a. c #97723A",
"s. c #A26E24",
"d. c #A5722A",
"f. c #A97529",
"g. c #A97529",
"h. c #B17B2D",
"j. c #A26936",
"k. c #A87B38",
"l. c #B27D34",
"z. c #B17A39",
"x. c #8D6D4F",
"c. c #815A73",
"v. c #815D6F",
"b. c #86766A",
"n. c #807E7B",
"m. c #AE7C51",
"M. c #BA8434",
"N. c #B3843D",
"B. c #BD893B",
"V. c #B88438",
"C. c #AE813D",
"Z. c #C38C3C",
"A. c #C7903D",
"S. c #C8913E",
"D. c #BE8841",
"F. c #BC8E49",
"G. c #B18C5B",
"H. c #94847B",
"J. c #8B8170",
"K. c #AC8D69",
"L. c #C79243",
"P. c #CA9342",
"I. c #CD994C",
"U. c #C8964B",
"Y. c #CE9D54",
"T. c #C39856",
"R. c #C08D44",
"E. c #D5A967",
"W. c #D7AE72",
"Q. c #D9B376",
"!. c #CAA165",
"~. c #9A7B8D",
"^. c #848484",
"/. c #8C8C8C",
"(. c #878888",
"). c #939494",
"_. c #9A9A9A",
"`. c #9C8E84",
"'. c #A79995",
"]. c #A6968C",
"[. c #B3A492",
"{. c #B39DA8",
"}. c #AB95A0",
"|. c #A2A2A2",
" X c #ADADAD",
".X c #B6ABA4",
"XX c #B8A9AA",
"oX c #B9BABA",
"OX c #BBADB0",
"+X c #DCBA87",
"@X c #C5AF8E",
"#X c #C5BCB9",
"$X c #C1B7AF",
"%X c #E1C291",
"&X c #E3C79C",
"*X c #E0C08F",
"=X c #D8C6AC",
"-X c #E6CDA5",
";X c #E6CEA8",
":X c #E8CFA8",
">X c #E8D0AB",
",X c #E7D1AB",
"<X c #DFC090",
"1X c #C3C3C3",
"2X c #CCC4C4",
"3X c #CCCAC8",
"4X c #D3CCCA",
"5X c #D5D1CD",
"6X c #D9D4CF",
"7X c #D4D3D2",
"8X c #D9D6D3",
"9X c #DCD9D6",
"0X c #DDDCDA",
"qX c #D7D8D8",
"wX c #DACDD4",
"eX c #E1DEDA",
"rX c #E0DAD7",
"tX c #E4E1DE",
"yX c #E7DFE1",
"uX c #E5E4E2",
"iX c #E9E5E4",
"pX c #EBE8E6",
"aX c #EDECEA",
"sX c #E7E8E8",
"dX c #F1EEEC",
"fX c #F2F1EE",
"gX c #F3F3F2",
"hX c #F8F7F5",
"jX c #F9F8F7",
"kX c white",
"lX c #FEFEFE",
"zX c #FEFEFD",
"xX c #FEFEFE",
"cX c #F7F9F8",
/* pixels */
"5 4 5 7 r e 9 5 9 6 5 3 5 r e w gXkXkXkXkXkXkXzXkXkXzXkXkXkXgXeXe 4 5 5 3 4 6 r 5 - 3 - 3 5 3 7 tXjXkXkXkXkXaXjXkXkXkXkXuXkXjXkX",
"r 7 w o.t w 6 3 3 3 3 3 6 5 3 e gXkXkXkXkXkXkXkXkXhX4XOXXX{.}.{.J q q q 8 4 w X.X.t e 6 9 e 4 7 tXzXkXkXkXkXhXfXzXkXkXkXkXkXkXgX",
"r 6 6 6 4 3 3 4 3 3 3 5 5 5 3 6 eXkXkXkXkXzXjXjXjXdX].S J D | | N N N < @ > e X.+.t F w 5 3 % 7 iXkXkXkXkXgXiXhXtXkXkXkXkXkXzXdX",
"6 6 6 6 6 3 3 3 5 6 e 6 3 3 - w fXkXkXfXgXhX=X.X'.'.x.! L P P P P P P ` ^ z 2 1 $ % 3 3 - - - 5 0XkXkXkXkXhX2XfXkXkXkXhXkXkXkXkX",
"6 9 w 9 r r r F X.t w 6 3 3 - w 0XjXkXeXfXhX'.S j D y.N.D.D.D.D.D.D.D.D.D.y.V # @ $ 5 4 3 3   9 fXkXkXkXkXjXjXjXzXkXaXtXkXkXkXkX",
"4 5 9 5 6 9 e X.F / t 7 6 3   w tXzXkX2X5X[.,.f M r.m.W.Q.Q.Q.Q.Q.Q.Q.Q.Q.G.y.m d , : 4 3 3 3 9 gXkXkXkXkXkXjXkXkXkXpXpXkXkXkXkX",
"5 9 9 5 5 5 4 4 5 r t X.e e w 9 uXkXkXjX#X) s Y u.R.Q.-X>X:X:X:X:X:X:X:X;X+XY.d.W d o ; 5 3 4 9 gXkXkXkXkXkXkXkXkXkXtXdXkXkXkXkX",
"6 9 5 5 5 5 6 5 6 r w 9 6 r t t iXkXjXzX2XH k u.F.Q.%X;X>X>X>X>X>X>X>X>X>X&X+XT.d.m # & 4 4 - 9 aXkXkXaXjXkXkXkXkXkXkXtXfXkXkXkX",
"w F r 9 5 5 4 4 5 4 5 3 3 3 % w gXkXjXtXXX..L V.E.-X>X>X>X>X>X>X>X>X>X>X>X>X>XQ.L.r.B * - 3 - e 5XuXgXfXjXkXkXkXhXzXkXiX4X7XjXkX",
"r w 7 e w 7 6 5 3 3 3 3 3 3 % 9 gXkXeX`.;.n 7.V.E.-X>X>X>X>X>X>X>X>X>X>X>X>X>XQ.L.t.h y $ ; 3 r 3XhXkXkXkXkXkXkXkXkXkXkXaXaXzXfX",
"6 5 6 6 9 6 5 6 5 5 4 4 3 5 % 9 gXjX2X) y E w.B.E.+X-X:X>X>X>X>X>X>X>X>X>X-X&XW.L.d.W f X & 3 9 gXkXkXkXkXkXkXkXkXkXkXkXkXkXkXkX",
"3 3 3 4 3 4 4 - - - 3 4 3 4 3 e gXkX4X .k u.M.Z.I.!.+X:X>X>X>X>X>X>X>X>X>X*XE.I.L.M.d.L # 1 3 w gXkXkXkXkXkXkXkXkXkXkXkXkXkXkXkX",
"3 3 3 3 - 3 3 6 5 6 3 - - 5 6 9 gXkX4X .K z.S.A.S.S.E.+X%X%X%X%X%X%X%X%X%XW.P.S.S.S.Z.` N 2 3 9 gXkXkXkXkXkXkXkXjX5X9XgXkXjXkXkX",
"3 3 - - 3     3 5 4 5 4 3 4 % 6 gXkXwX .K z.S.A.S.S.I.Y.Y.Y.Y.Y.Y.Y.Y.Y.Y.I.P.S.S.S.Z.` N 2 3 9 gXkXkXkXkXkXkXkXeX8XzXjXzXiXuXzX",
"3 6 4 . .   . .     3 %     . 5 gXkXwX .K z.S.A.S.S.S.A.A.A.A.A.A.A.A.A.A.S.S.S.S.S.Z.` N 1 4 w gXkXkXkXkXkXkXkXfXjXkXkXkXkXkXgX",
"6 6 t 9 6 5 6 6 5 5 6 w w 6 6 t iXcX2X .K z.S.A.S.S.S.S.S.S.S.S.S.S.S.S.S.S.S.S.S.S.Z.` N q t / 0XgXgXgXgXgXgXaXeXgXgXgXgXgXgXgX",
"gXaXgXgXfXfXgXgXfXgXgXgXgXgXgXsXr 6 8 < K z.S.A.S.S.S.S.S.S.S.S.S.S.S.S.S.S.S.S.S.S.Z.P D {.jXiX/ r w w 9 9 9 r w 9 w 6 w 6 w 9 ",
"gXkXjXkXkXkXkXzXzXfXkXkXkXkXkXgXw   % < K z.S.A.S.S.S.S.S.S.S.S.S.S.S.S.S.S.S.S.S.S.Z.P D OXkXgXw 4 5 3 3 3 5 w 4 3 - %         ",
"hXkXkXgXkXkXkXaXhXhXzXkXkXjXkXdXw 3 1 < K z.S.A.S.S.S.S.S.S.S.S.S.S.S.S.S.S.S.S.S.S.Z.P | OXkXgXF r w 7 3 - 3 4 5 4 4 4 3 3 4 4 ",
"zXgXjX9XiXkXkXuXgXkXzXkXkXkXkXgX5 3 q < K z.S.A.S.S.S.S.S.S.S.S.S.S.S.S.S.S.S.S.S.S.Z.P D {.jXsXw 6 w 6 4 - 3 3 4 % - % - 3     ",
"fXgXkXgX3XkXkXsXgXzXkXkXkXkXkXgXw 3 0 * k z.P.A.S.S.S.S.S.S.S.S.S.S.S.S.S.S.S.A.S.S.Z.! B :._.).e w w 4 3 4 3 7 t 9 w r e w e 6 ",
"kXkXkXkXdXjXkXkXkXkXkXkXkXkXkXgXr 5 ; X h f.Z.A.S.S.S.S.S.S.S.S.S.S.S.S.S.S.A.A.A.Z.M.^ + 0 X.@.X.t e 6 5 3 5 r r t w w e w X.e ",
"kXkXjXpXkXkXkXkXkXkXkXkXkXkXkXfXw 4 5 X s 8.g.Z.P.S.S.S.S.S.S.S.S.S.S.S.S.S.S.S.S.h.e.U 8 9 X.1.<.o.e w 9 5 w +.t t 6 6 6 - 6 3 ",
"zXtX2XhXkXkXkXkXjXgXkXkXkXkXkXiXw 3 8 + y g 8.l.Z.A.S.S.S.S.S.S.S.S.S.S.S.Z.B.N.N.u.Y S / X.&.(./.*.X.t e 3 6 / w 9 4 4 3 4 4 4 ",
"8XpX0XjXkXkXkXkXhXaXkXjXkXkXkXgX9 - 4 ; * i n 8.d.Z.S.S.S.S.S.S.S.S.S.S.S.k.] ' ' _ A ( %.<.^.)._.(.<.o.r w w t 9 - 3   3 3 5 6 ",
"dXjXkXkXkXkXkXkXkXkXkXdXhXkXkXgX9 1 4 4 1 < p E w.Z.S.S.S.S.S.S.S.S.S.Z.N.x.$.X.t t X.o.&.3.)._._.).3.O.w w t w 6 4 -   3 4 4 % ",
"kXgXzXkXkXkXkXkXjXuXkXkXzXhXzXgX9 2 2 * X = h u.M.Z.S.S.S.S.S.S.S.S.S.C.] ,.n.1.} X.O.o.o.*.2.).).<.&.X.t e 3 3 4 5 3 3 3   %   ",
"kXkXkXkXkXkXkXkXdXiXkXkXkXkXtX#Xq u i S S S y.B.S.A.S.S.S.S.S.S.S.S.S.k.) &.^.4.&.+.+.o.X.o.&.3.3.+.r r r w 9 4 4 4 4 4 5 5 5 5 ",
"kXkXkXkXkXkXkXjXzXfXkXkXkXkXdX~.B f ! K.@X@X!.L.A.S.S.S.S.S.S.S.S.A.S.k.( X.+.<.(.1.o.o.+.o.X.+.+.X.e w w r r 9 6 6 w w 9 6 6 5 ",
"kXkXkXkXkXkXkXkXjX5XkXkXjXrX.X .B m a.+X>X>X+XI.Z.S.S.S.S.S.S.S.S.B.k.i.#.X.X.*.3.2.*.&.O.X.r t r 0 0 e / w 5 5 6 6 6 5 3     - ",
"kXkXkXkXkXkXkXkXkXkXkXkXgX`.S N V t.U.+X,X,X+XI.A.S.S.S.S.S.S.A.S.C.' O.+.+.+.+.+.<.(.1.t t t t e > + 5 r 6 w 6 6 3 3 3 3 3     ",
"gXaXgXgXgXfXgXgXgX4XsXgXiXb.o y n j.I.W.+X+XE.P.S.S.Y.E.E.E.E.E.E.G.#.} +.*.<.<.1.<.3.<.*.O.t A l O + 0 e w e e F / w e F t 9 9 ",
"6 w w e w 7 7 9 9 6 9 w w > O d E f.P.P.I.I.P.P.S.P.E.&X&X&X&X&X&X[.=.X.&.<./._._.2.+.2.(.*.G z g O ) $XgXaXgXgXfXgXgXgXdXaXgXgX",
"3     3 % - - 4 - 3 3 ; $ X @ d W h.S.S.A.S.S.S.S.P.Q.:X>X>X>X=X[.J.=.&.<.(.|._.(.*.X.*.<.%.G v x y J n.2XgXkXkXkXkXkXkXkXkXkXzX",
"5 % % % % - 4 5 3 3 3 ; o # u f W g.Z.Z.Z.Z.Z.A.S.P.E.&X;X;X;X@X5.+.&.1./._.|.(.*.O.t X.X.F G v x i u j b.iXkXkXkXkXkXkXkXfXfXfX",
"3 w t e 5 6 9 3 3 3 3 $ o y f x T 9.w.w.t.r.p.Z.S.S.Y.W.%X&X[.b.=.+.<.(._._.^.<.&.o.t t r A z v c f p o >.iXkXkXkXkXkXkXkXgXhXkX",
"3 6 t r w w 4 % 3 4 4 $ o d c T T R R R M i L z.Z.A.S.P.Q.@X5.o.&.<.).|.|.(.*.&.&.o.F / ( U T T T b g O >.iXkXkXkXkXkXkXkXkXkXkX",
"3 -     % 3 3 - 3 % 3 $ o d T q.s.s.s.s.9.M M 9.g.Z.S.L.G.5.=.+.2.).3X1X(.1.O.X.o._ U [ i.u.s.s.e.W g O >.iXdXfXkXkXkXkXkXkXkXkX",
"-   6 t w 5 6 7 w w 6 $ o a E d.S.S.S.S.h.W c c 9.M.B.N.] X.%.<._.oXuX1X<.o.F r r z T s.A.S.A.S.l.7.d O >.9XtX0XkXkXkXkXkXkXkXkX",
"3 5 e o.e 5 3 r X./ w : o y k p.S.S.S.P.h.W x p m 0.~ ' #.&.2.).3X7X|.3.%.G z j B k T s.S.S.S.P.z.L y o ,.5XkXfXkXkXkXkXkXkXkXkX",
"4 e F e w w 3 9 9 4 3 $ + # B r.z.l.M.M.s.E f i k v S X.&.<._.oXqX1X2.O.#.[ W M i f v e.l.M.V.l.p.Z B S H.aXhXhXkXkXkXkXkXkXfXhX",
"r +.r 4 t / 6 7 7 4 3 - : * @ Z L 7.0.0.E d a f z A ( +.<.).3XqX|.4.%.#.i.k.f.9.v a a v 0.0.8.I Z @ H '.8XgXjXzXkXkXkXkXzXjXhXiX",
"O.o.6 5 w w t F 3 3 3 5 7 : + # u f x x d O s h U X.*.3.'.oX7X1X2.O.) { N.S.S.g.0.g o a g x g i B H b.uXkXzXzXkXkXkXkXkXzXjXkXkX",
"o.7 5 3 3 3 4 / 7 3 3 6 w 7 ; * o O O O O o > A ( +.).7XsXeX|.<.%.) a.N.Z.S.S.Z.l.! O o O O O o H '.6XjXkXkXkXkXkXkXkXfXzXkXkXkX",
"5 3 3 3 5 4 3 9 6 5 5 4 9 6 w : ;.:.;.:.) > 8 F *.^.1XgXsXoX4.O.) { N.S.S.S.S.S.Z.~ O X + + X + b.4XkXkXkXkXkXkXkXzXzXkXkXkXkXkX",
"4 4 4 4 4 5 5 7 6 w w w 9 t t F 8XrX9XtXOX&.t +./.qXgXgX X<.+.( a.N.Z.S.S.S.S.S.Z.~ O $ ; 4 4 0 5XjXkXgXkXkXkXkXkXkXkXfXkXkXkXkX",
"w w 3 % 6 6 6 e w 9 6 5 6 / w X.gXkXgX7X_.*.*.(.1XgXiXoX3.O.) { N.S.S.S.S.S.S.S.Z.~ O : 5 5 4 w gXkXkXkX3X8XkXkXkXkXkXkXkXkXkXkX",
"&.+.r r +.&.t r e t / 9 t t e +.9XaX1X3.&.&.(.qXgXgX X<.+.#.i.N.Z.A.A.S.S.S.S.A.Z.~ O 8 t w 9 X.sXgXgXhX8X0XgXgXfXaXgXgXfXgXuXuX",
"fXsXfXgXgXgXgXdXiXpXtX0XgXgXgXuX&.o.+.*.2.).1XgXuXoX3.+.;.{ u.s.s.g.B.S.S.S.S.M.s.Q f ;.].2XgXsXo.e t e t / r e r r r r t r w e ",
"kXkXkXjXkXkXkXjXkXkXkXkXkXkXkXgXX.r +.^. X0XaXgXoX<.+.( i.l.9.T T 8.h.Z.Z.Z.Z.s.W T c f _ OXkXgXw 5 9 e 9 w 6 3 4 3 3 3 5 6 4 4 ",
"uXkXjXaXkXzXhXkXkXkXkXzXzXkXkXgXe r *.).oX5X1X X3.+.G z ~ q.m p p n 9.w.w.w.w.0.T c c y j [.kXgXw 9 t r w e r w 6 6 6 5 9 7 4 5 ",
"kXkXkXkXkXkXhXkXkXkXkXkXkXhXjXgXr t 1./.|.|.(.*.o./ z c T c p < < i v T T T T T b T c a l .XkXgX9 3 w r t r r 9 5 6 6 7 w 5 4 4 ",
"uXkXkXkXkXhXaXkXkXkXkXkXzXtX9XuXt X.*.<.2.<.*.@.G z v c c x y # # y x c c c c c c c c a j .XkXgX7 - 4 7 w 6 6 6 5 6 5 4 3 5 5 6 ",
"uXkXkXkXkXfXgXkXkXkXkXkXkX5XfXaXt / +.+.O.( ( ( U Q R R R T a o o y c R R R R R R R E a j .XkXgX6 % w 6 w 4 3 6 w 9 5 4 3 3 4 6 ",
"jXkXkXkXkXzXkXkXkXkXkXkXkXkXiX8X/ t F 8 S i.a.a.a.f.g.d.g.u.h o o s 9.g.g.g.g.g.g.g.s.v l .XkXgX6 - 5 3 4 3 5 3 3 4 4 4 4 4 6 9 ",
"fXhXkXkXkXzXkXkXkXkXkXkXkXkXgXuXw w 0 X h l.S.S.S.S.S.A.S.V.^ o o f d.S.A.S.S.S.A.S.Z.^ l .XkXgX6 3 3 4 4 3 3 5 6 5 4 3 3 6 w r ",
"hX8XjXkXkXkXkXkXzXkXkXkXkXkXkXgXw r 0 X h l.S.A.S.S.S.A.S.V.m o o f d.S.A.S.S.S.A.S.Z.^ l .XkXgXe - 4 5 4 6 4 5 6 4 4 3 4 6 5 / ",
"kX3XpXkXjXgXkXkXkXkXhXzXkXkXkXgXw 5 4 X f u.M.Z.S.S.S.Z.M.d.h o o s u.M.Z.S.S.S.A.B.h.v l .XkXgX6 - 3 3 3 3 4 3 3 4 6 w 6 3 3 4 ",
"kXaX9XkXgXfXkXzXkXkXzXgXjXkXkXgXr 5 ; + a E w.Z.S.S.S.Z.s.W a o o y Y e.M.S.S.S.A.d.8.d j '.qX8Xw % % 3 3 3 3 3 4 e 6 3 4 3 3 3 ",
"kXgX7XkXuXdXkXhXkXkXkXkXeXhXkXgXr t F $ O d E p.j.p.j.p.! d O + ;.' h v t.j.j.j.p.~ g O l '.iXaX6   3 4 3 3 3 3 3 4 - 4 w w 4 4 ",
"kXkXjXkXhXdXkXkXkXjXzXgXdXaXkXgXw e r 6 : O y C V V V V i O $ 7 8X$X_ y C V C C C i O o j .XkXgX5 . - % - - 3 4 5 w e 6 r o.6 4 ",
"kXkXjXhXgXzXkXkXkXkXkXjXjXjXkXgXt 5 5 5 4 $ * 2 2 2 2 2 * $ ; w gXaXH.:.v.c.c.c.c.6.>.>.b.3XkXgX6 . - 3 4 3 5 t o.t / w 6 r w 5 ",
"zXkXfXtXjXkXkXzXkXkXkXkXkXkXkXgXX.w 9 6 4 4 4 7 e O.F 7 7 5 3 w gXzXpXuXiXiXiXyX9XiXtXtXtXfXkXgX6   3 6 6 9 w t e e w 3 5 w t 6 ",
"kXkXkXzXkXfXzXzXpX0XfXpXzXhXkXgXw 4 9 w w 5 4 5 5 r +.w 6 5 4 9 fXkXkXkXkXkXkXkXkXkXzXgXkXkXkXgX6 - 5 4 3 5 w w 6 4 6 4 6 6 w 3 "
};
