/* XPM */
static char *_c47b6a8212f4920970196e2d0e456d570JdNZfD5gITpxKK[] = {
/* columns rows colors chars-per-pixel */
"16 16 3 1 ",
"  c None",
". c black",
"X c #FFEC00",
/* pixels */
"     XXXXXX     ",
"   XXXXXXXXXX   ",
"  XXXXXXXXXXXX  ",
" XXXXXXXX..XXXX ",
" XXXXXXXX..XXXX ",
"    XXXXXXXXXXXX",
"       XXXXXXXXX",
"         XXXXXXX",
"         XXXXXXX",
"       XXXXXXXXX",
"    XXXXXXXXXXXX",
" XXXXXXXXXXXXXX ",
" XXXXXXXXXXXXXX ",
"  XXXXXXXXXXXX  ",
"   XXXXXXXXXX   ",
"     XXXXXX     "
};
