/* XPM */
static char *d34663d2203740fbda75d3bd7dc36efbuoPhszjWKfOHwGmM[] = {
/* columns rows colors chars-per-pixel */
"64 64 231 2 ",
"   c #010000",
".  c #05090E",
"X  c #0A0B05",
"o  c #1E1C00",
"O  c #1C130C",
"+  c #070D14",
"@  c #0C131B",
"#  c #1D1711",
"$  c #110D09",
"%  c #22170D",
"&  c #231B13",
"*  c #1D2112",
"=  c #2C2900",
"-  c #2C241B",
";  c #2C2317",
":  c #322519",
">  c #35281C",
",  c #35281A",
"<  c #3A3A1A",
"1  c #382F0C",
"2  c #0D1623",
"3  c #0E1929",
"4  c #121A26",
"5  c #141D2B",
"6  c #131922",
"7  c #0F1E33",
"8  c #18212B",
"9  c #162439",
"0  c #352D24",
"q  c #392E23",
"w  c #3D352C",
"e  c #3C3329",
"r  c #242F2E",
"t  c #443819",
"y  c #45392C",
"u  c #433C32",
"i  c #4A3E32",
"p  c #3B4A3C",
"a  c #4C4600",
"s  c #5F5800",
"d  c #5D5504",
"f  c #4A4717",
"g  c #585317",
"h  c #665C0A",
"j  c #6D6501",
"k  c #69640C",
"l  c #786B09",
"z  c #666517",
"x  c #786D17",
"c  c #7C7219",
"v  c #7C7200",
"b  c #4D4135",
"n  c #494439",
"m  c #544839",
"M  c #565B38",
"N  c #52522B",
"B  c #655931",
"V  c #5A6539",
"C  c #5C6128",
"Z  c #6C6628",
"A  c #767726",
"S  c #747A34",
"D  c #6E6E34",
"F  c #132643",
"G  c #162844",
"H  c #1A2C45",
"J  c #152B4C",
"K  c #1A2D4B",
"L  c #1E324C",
"P  c #162E53",
"I  c #182F52",
"U  c #173154",
"Y  c #1B3254",
"T  c #1A345A",
"R  c #1C385E",
"E  c #0E264C",
"W  c #2A3444",
"Q  c #2A364A",
"!  c #283A48",
"~  c #253A57",
"^  c #313D4D",
"/  c #1D3A63",
"(  c #233D63",
")  c #263F69",
"_  c #2E424A",
"`  c #384846",
"'  c #294259",
"]  c #384D58",
"[  c #28436A",
"{  c #2B4977",
"}  c #45574A",
"|  c #5C5143",
" . c #5F564C",
".. c #455952",
"X. c #574E43",
"o. c #635A4E",
"O. c #625546",
"+. c #655D53",
"@. c #6B5F51",
"#. c #5B6A46",
"$. c #79714A",
"%. c #6B6256",
"&. c #6D655A",
"*. c #746B5D",
"=. c #756957",
"-. c #6E6D47",
";. c #756D61",
":. c #796F61",
">. c #7C7365",
",. c #7E7669",
"<. c #7B7467",
"1. c #837807",
"2. c #877B19",
"3. c #887B29",
"4. c #897C3A",
"5. c #857A4D",
"6. c #867B57",
"7. c #817668",
"8. c #847B6D",
"9. c #897E6E",
"0. c #847A65",
"q. c #857E71",
"w. c #897F71",
"e. c #7D8432",
"r. c #8F8400",
"t. c #958C07",
"y. c #9E9200",
"u. c #98900F",
"i. c #8B8114",
"p. c #978B16",
"a. c #98951B",
"s. c #A79A06",
"d. c #A99C15",
"f. c #AEA203",
"g. c #BAAC01",
"h. c #B5A50A",
"j. c #B3A405",
"k. c #BEB107",
"l. c #AAA51C",
"z. c #B6A918",
"x. c #BDB515",
"c. c #B9B41B",
"v. c #8A8B26",
"b. c #9C9925",
"n. c #838935",
"m. c #9E9137",
"M. c #958B30",
"N. c #A79B37",
"B. c #A2922B",
"V. c #B5A928",
"C. c #B5A83C",
"Z. c #B1A72C",
"A. c #CBBC01",
"S. c #C5B50A",
"D. c #C4B71A",
"F. c #D1BF12",
"G. c #CCBD23",
"H. c #CBBB2B",
"J. c #C5B629",
"K. c #C6B837",
"L. c #D4C401",
"P. c #DBCC0A",
"I. c #D5C80B",
"U. c #D8C919",
"Y. c #D6CC13",
"T. c #E1CF00",
"R. c #E0CE0E",
"E. c #E4D201",
"W. c #EDDB03",
"Q. c #E5D50B",
"!. c #ECDB0B",
"~. c #E7D809",
"^. c #F1DF01",
"/. c #F1DF0C",
"(. c #E5D514",
"). c #E9D713",
"_. c #EBDA13",
"`. c #E4D41C",
"'. c #E8D716",
"]. c #F5E304",
"[. c #F9E605",
"{. c #FFEC00",
"}. c #F4E20B",
"|. c #F9E608",
" X c #FAEA0E",
".X c #FFF700",
"XX c #FFF800",
"oX c #F4E212",
"OX c #DBCB24",
"+X c #D4C529",
"@X c #CFC137",
"#X c #D6C730",
"$X c #E4D425",
"%X c #E0CF20",
"&X c #9E9245",
"*X c #8D8356",
"=X c #948A59",
"-X c #9C935B",
";X c #918547",
":X c #A69A4B",
">X c #A59A55",
",X c #AEA246",
"<X c #B6A946",
"1X c #BDB142",
"2X c #BBB04B",
"3X c #ADA255",
"4X c #B3A856",
"5X c #BBB15F",
"6X c #8C8265",
"7X c #8C836C",
"8X c #87816B",
"9X c #938A6A",
"0X c #9E9463",
"qX c #9B926C",
"wX c #8B8274",
"eX c #8D8679",
"rX c #8B8478",
"tX c #908676",
"yX c #928974",
"uX c #938A7C",
"iX c #948A77",
"pX c #9C9377",
"aX c #A49A65",
"sX c #A39977",
"dX c #AAA070",
"fX c #C3B645",
"gX c #C0B351",
"hX c #988E80",
"jX c #9B9284",
"kX c #9E9589",
"lX c #A29A89",
/* pixels */
"&.*.%.%.%.%.;.w 4 ^ Q W ^ Q L H | 7.$.M.B.d.h.h.h.h.h.h.h.h.h.s.s.j.h.j.h.h.h.h.h.h.d.B.4.-.%.m +.wX7.o.>.eX>.+.G J J T J 9 Q 9 ",
"eXjXlXuXeXuXjXi 6 [ { [ [ [ / T o.uXsXgX#X XXX.X.X.X.X.X.X.X.XXXXX.X.X.X.X.X.X.X.XXX X#X2XqXuXm  .>.wXuXuX7.*.>.Y J P P R ( [ ( ",
"wXwXuXwXwX7.>.e @ Y / [ ~ ' ' ! M 9X=XC.G.!.{.{.{.{.{.{.{.{.{.{.{.{.{.{.{.{.{.{.{.{.!.G.C.=X6Xm m 0.6XyXtX>.>.;.Y J U J P U T J ",
"9.wXwX9.9.wXuXi 2 R ~ ] ..#.#.V 3.4X<XJ.U.].{.{.{.{.{.{.{.{.{.{.{.{.{.{.{.{.{.{.{.{.}.U.H.C.:X3.M.4X:X-X9X7X9.q.( P P U T U R Y ",
"m 9.wXwXw.uXiXi 2 R ' } -.v.b.a.d.H.#XU.Q.[.{.{.{.{.{.{.{.{.{.{.{.{.{.{.{.{.{.{.{.{.[._.U.G.H.d.z.H.K.,X-X6Xw.wX/ T T T Y T R 9 ",
"w wXeX7.wXuXiXb 3 R ' #.M.x.Y.L.P._._./.].{.{.{.{.{.{.{.{.{.{.{.{.{.{.{.{.{.{.{.{.{.{.]./.!._.P.P.).U.K.:XqX9.8./ / / T I R / 3 ",
"u 7.7.7.8.wXwXb 6 ' p S V.~.{.{.{.{.{.{.{.{.{.{.{.{.{.{.{.{.{.{.{.{.{.{.{.{.{.{.{.{.{.{.{.{.{.{.{.{./.+XC.0X6X0.' R R T I Y ( 5 ",
"& : : : : : , 1 1 f k t.k.W.{.{.{.{.{.{.{.{.{.{.{.{.{.{.{.{.{.{.{.{.{.{.{.{.{.{.{.{.{.{.{.{.{.{.{.{.].U.V.B.;XZ 0 8 + + 3 2 @ + ",
"8 ^ Q W Q Q ` f c Z.D.Y.Q.].{.{.{.{.{.{.{.{.{.{.{.{.{.{.{.{.{.{.{.{.{.{.{.{.{.{.{.{.{.{.{.{.{.{.{.{.].P.x.d.v.h Z 6.+. .&.*.*.i ",
"8 [ [ ( ) ( ] C d.$XoXoX|.{.{.{.{.{.{.{.{.{.{.{.{.{.{.{.{.{.{.{.{.{.{.{.{.{.{.{.{.{.{.{.{.{.{.{.{.{.[.W.Q.R.D.2.c pXhXtXq.hXlX| ",
"3 I T Y H L p x h./.{.{.{.{.{.{.{.{.{.{.{.{.{.{.{.{.{.{.{.{.{.{.{.{.{.[.].^.^.^.^.^.^.].[.{.{.{.{.{.{.{.{.{.~.s.i.-X9X0.wXiXyXb ",
"4 T L ^ p M S u.S.}.{.{.{.{.{.{.{.{.{.{.{.{.{.{.{.{.{.{.{.{.{.{.{.{.].E.A.g.f.f.f.f.g.A.E.].{.{.{.{.{.{.{.{.!.k.l.<X>X-X=X7XtXb ",
"3 T ! n D v.l.k.P.|.{.{.{.{.{.{.{.{.{.{.{.{.{.{.{.{.{.{.{.{.{.{.{.{.W.A.s.1.j j j j 1.s.A.W.{.{.{.{.{.{.{.{.].L.S.+XK.2X>XiXhXm ",
"3 P ! V v.x.P.E.^.{.{.{.{.{.{.{.{.{.{.{.{.{.{.{.{.{.{.{.{.{.{.{.{.{.E.f.v a = = = = a v f.E.{.{.{.{.{.{.{.{.[.W.!._.%XK.4XqXiXm ",
"5 F _ S l.Q.{.{.{.{.{.{.{.{.{.{.{.{.{.{.{.{.{.{.{.{.{.{.{.{.{.{.{.{.T.y.s o         o s y.T.{.{.{.{.{.{.{.{.{.{.{.{./.G.C.6.7.| ",
"+ + - z s.T.{.{.{.{.{.{.{.{.{.{.{.{.{.{.{.{.{.{.{.{.{.{.{.{.{.{.{.{.T.y.s o         o s y.T.{.{.{.{.{.{.{.{.{.{.{.{.E.h.x t : > ",
"0 %.5.B.D.!.{.{.{.{.{.{.{.{.{.{.{.{.{.{.{.{.{.{.{.{.{.{.{.{.{.{.{.{.T.y.s o         o s y.T.{.{.{.{.{.{.{.{.{.{.{.{.!.x.c f  .- ",
"u wX=X<X+X/.{.{.{.{.{.{.{.{.{.{.{.{.{.{.{.{.{.{.{.{.{.{.{.{.{.{.{.{.T.y.s o         o s y.T.{.{.{.{.{.{.{.{.{.{.{.{.oX#X,X9X7.e ",
"e *.5.:XJ.).[.].[.[.[.|.|.[.[.[.[.{.{.{.{.{.{.{.{.{.{.{.{.{.{.{.{.{.E.s.j = X X X X = j s.E.{.{.{.{.{.{.{.{.{.{.{.{./.G.N.*X=.t ",
"w ,.6.:X1X+XOXU.OXOXOXOXOXOX%XP.!.{.{.{.{.{.{.{.{.{.{.{.{.{.{.{.{.{.W.g.r.s a a a a s r.g.W.{.{.{.{.{.{.{.{.{.{.{.{.}.U.J.N.m.c ",
"w >.7X0X3X<XfX1XC.C.C.fX1X1XK.D.(.|.{.{.{.{.{.{.{.{.{.{.{.{.{.{.{.{.^.L.g.y.r.r.r.r.y.g.L.^.{.{.{.{.{.{.{.{.{.{.{.{.[._.U.G.J.d.",
"u >.7XpXqX0XdX-X-X-X=XaXaX-X3XZ.U.}.{.{.{.{.{.{.{.{.{.{.{.{.{.{.{.{.[.W.E.L.L.L.L.L.L.E.W.[.{.{.{.{.{.{.{.{.{.{.{.{.{.]./.~.(.P.",
"u ,.7.uXeXeXeX9.wX,.q.wXwX8.qXm.J._.[.[.[.[.|.|.].^.].].[.{.{.{.{.{.{.{.{.{.{.{.{.{.{.{.{.{.{.{.{.{.{.{.{.{.{.{.{.{.{.{.{.{.{.{.",
"w ,.>.wXtX8.9.wX9.>.,.q.wXwXpXM.N.H.U.OXOXOXOXU.c.c.D.I.Q.].{.{.{.{.{.{.{.{.{.{.{.{.{.{.{.{.{.{.{.{.{.{.{.{.{.{.{.{.{.{.{.{.{.{.",
"w wXeXwXwX8.%.>.9.9.8.9.w.8.pX*XV S n.n.n.n.n.n.C.1XK.#X'.].{.{.{.{.{.{.{.{.{.{.{.{.{.{.{.{.{.{.{.{.{.{.{.{.{.{.{.{.{.{.{.{.{.{.",
"0 7.wXeXwXeX>.>.tX9.>.q.8.8.yXB ! ` ` } ..p p ..-XaX4XfXOX}.{.{.{.{.{.{.{.{.{.{.{.{.{.{.{.{.{.{.{.{.{.{.{.{.{.{.{.{.{.{.{.{.{.{.",
"0 ;.7.>.8.9.7.7.9.9.9.8.>.>.eXm G T U T U J K 9 | 8.qX,XH.(.[.].^.].].].[.{.{.{.{.{.{.{.{.{.{.{.{.{.{.{.{.{.{.{.{.{.{.{.{.{.{.{.",
"e 8.rX:.eX7.>.7.7.wXwX*.wX8.9.b F Y T Y Y Y Y + q 8.9X>XC.H.OXS.j.c.x.Y.Q.].{.{.{.{.{.{.{.{.{.{.{.{.{.{.{.{.{.{.{.{.{.{.{.{.{.{.",
"q ,.uX,.uXw.7.9.9.wXeX>.9.7.7.b F K J U Y J L @ w q.yX*X:X<X1Xp.c e.v.l.Y.W.{.{.{.{.{.{.{.{.{.{.{.{.{.{.{.{.{.{.{.{.{.{.{.{.{.{.",
"; *.| ;.wXeXeX9.7.7.wXeXwXwX8.b 7 Y J J J J Y 2 w rXwX0.6.*XaXZ < ..#.n.c.!.{.{.{.{.{.{.{.{.{.{.{.{.{.{.{.{.{.{.{.{.{.{.{.{.{.{.",
"& i > m O.:.yX7.wXwX8.tXuXeX7.i 3 I L K K K ~ 4 w >.7.>.*.:.8.i 2 T ` S l.Q.{.{.{.{.{.{.{.{.{.{.{.{.{.{.{.{.{.{.{.{.{.{.{.{.{.{.",
"$ O O O % ; > > : : > : q > > % 4 8 . . + . . . # : ; ; ; ; : & . + o k s.E.{.{.{.{.{.{.{.{.{.{.{.{.{.{.{.{.{.{.{.{.{.{.{.{.{.{.",
"# 0 q i e q m +.%.&.&.%.%.%.&.u +.9.o.o.+.+.&.w 4 Q W W W Q ^ 4 e ;.$.2.G.!.{.{.{.{.{.{.{.{.{.{.{.{.{.{.{.{.{.{.{.{.{.{.{.{.{.{.",
"- q.kXlXlXwXeXuXjXlXlXuXuXjXpX| +.iXuXuXuXuXjXm 4 ~ ( ~ ( [ [ 8 - &.*X,X#XoX{.{.{.{.{.{.{.{.{.{.{.{.{.{.{.{.{.{.{.{.{.{.{.{.{.{.",
"# &.tX8.>.>.:.>.q.eXuXtXuX9.7.i m eX8.8.9.9.uXy 3 Y Y K H W r * y =.*X1X+X}.{.{.{.{.{.{.{.{.{.{.{.{.{.{.{.{.{.{.{.{.{.{.{.{.{.{.",
"# *.eX7.>.,.>.7.8.uXuXtXeXwXtXi y uXwX7.9.uXiXi 3 ~ L _ } M D g A 4X2XH.`.}.{.{.{.{.{.{.{.{.{.{.{.{.{.{.{.{.{.{.{.{.{.{.{.{.{.{.",
"& *.9.*.>.wX7.:.>.eXq.eXwXuXiXm | wX9.w.wXwXuXb 3 R ! n D v.b.u.d.J.G.U.).[.{.{.{.{.{.{.{.{.{.{.{.{.{.{.{.{.{.{.{.{.{.{.{.{.{.{.",
"; *.9.>.&.:.,.;.*.>.tXuXwX7.tXm +.wXwX8.eXeXuXi 2 / _ V v.x.Y.L.P._._./.].{.{.{.{.{.{.{.{.{.{.{.{.{.{.{.{.{.{.{.{.{.{.{.{.{.{.{.",
"b wX9.9.>.&.,.uXrXq.wX9.7.9.pXm =.sX6X0.pX9X9XB r ~ ` A l.~.{.{.{.{.{.{.{.{.{.{.{.{.{.{.{.{.{.{.{.{.{.{.{.{.{.{.{.{.{.{.{.{.{.{.",
"n uXq.,.,.>.8.q.eXwXq.wXw.wXyXB D >Xc 3.3.c x c C C k u.S.W.{.{.{.{.{.{.{.{.{.{.{.{.{.{.{.{.{.{.{.{.{.{.{.{.{.{.{.{.{.{.{.{.{.{.",
"n ,.<.>.q.eXwXq.rXq.uXuX9.w.6Xz z v.u.a.a.a.a.a.z.V.z.F.Q.].{.{.{.{.{.{.{.{.{.{.{.{.{.{.{.{.{.{.{.{.{.{.{.{.{.{.{.{.{.{.{.{.{.{.",
"u 8.q.q.q.wXq.q.q.rXrXjXeXeX6.h i.x.I.Y.Y.Y.Y.I.(._._.}.|.{.{.{.{.{.{.{.{.{.{.{.{.{.{.{.{.{.{.{.{.{.{.{.{.{.{.{.{.{.{.{.{.{.{.{.",
"w w.eX7X7X0.0.8X6.yXlXpXpXiX*Xl s.~.{.{.{.{.{.{.{.{.{.{.{.{.{.{.{.{.{.{.{.{.{.{.{.{.{.{.{.{.{.{.{.{.{.{.{.{.{.{.{.{.{.{.[.[.|.].",
"u rX7XqX>X:X&X:X3X4X5X4X4X4XN.s.S.W.{.{.{.{.{.{.{.{.{.{.{.{.{.{.{.{.{.{.{.{.{.{.{.{.{.{.{.{.{.{.{.{.{.{.{.{.{.{.{.{.[./.(.OXOXS.",
"u wX9X>X<XK.H.J.K.@X@X@XH.H.H.S.I.].{.{.{.{.{.{.{.{.{.{.{.{.{.{.{.{.{.{.{.{.{.{.{.{.{.{.{.{.{.{.{.{.{.{.{.{.{.{.{.{.|.(.+XK.C.i.",
"- ;.pX3XK.U._.).).(.)._._._.!.E.W.[.{.{.{.{.{.{.{.{.{.{.{.{.{.{.{.{.{.{.{.{.{.{.{.{.{.{.{.{.{.{.{.{.{.{.{.{.{.{.{.{.}.OXK.>X5.f ",
"0 @.6.,X+X/.{.{.{.{.{.{.{.{.{.{.{.{.{.{.{.{.{.{.{.{.{.{.{.{.{.{.{.{.{.{.{.{.{.{.{.{.{.{.{.{.{.{.{.{.{.{.{.{.{.{.{.{.!.D.B.D m ; ",
"O % 1 l h.~.{.{.{.{.{.{.{.{.{.{.{.{.{.{.{.{.{.{.{.{.{.{.{.{.{.{.{.{.{.{.{.{.{.{.{.{.{.{.{.{.{.{.{.{.{.{.{.{.{.{.{.{.E.s.j = % O ",
"u &.$.m.D./.{.{.{.{.{.{.{.{.{.{.{.{.{.{.{.{.{.{.{.{.{.{.{.{.{.{.{.{.{.{.{.{.{.{.{.{.{.{.{.{.{.{.{.{.{.{.{.{.{.{.{.{.Q.s.A } 8 4 ",
"u jXdXgX#X}.{.{.{.{.{.{.{.{.{.{.{.{.{.{.{.{.{.{.{.{.{.{.{.{.{.{.{.{.{.{.{.{.{.{.{.{.{.{.{.{.{.{.{.{.{.{.{.{.{.{.{..X~.l.A p ~ 9 ",
"q *.qXN.J._.[.[.[.{.{.{.{.{.{.{.{.{.{.{.{.{.{.{.{.{.{.{.{.{.{.{.{.{.{.{.{.{.{.{.{.{.{.{.{.{.{.{.{.{.{.{.{.{.{.[.].].I.b.D - K 4 ",
"i 9.9X;XZ.H.U.I.E.].{.{.{.{.{.{.{.{.{.{.{.{.{.{.{.{.{.{.{.{.{.{.{.{.{.{.{.{.{.{.{.{.{.{.{.{.{.{.{.{.{.{.{.{.{.~.L.D.d.A V ! 9 5 ",
"u wX0.*X&XN.V.h.A.^.{.{.{.{.{.{.{.{.{.{.{.{.{.{.{.{.{.{.{.{.{.{.{.{.{.{.{.{.{.{.{.{.{.{.{.{.{.{.{.{.{.{.{.{.|.I.f.v.D V p Q G @ ",
"i w.7.9X6.5.&Xp.j.!.{.{.{.{.{.{.{.{.{.{.{.{.{.{.{.{.{.{.{.{.{.{.{.{.{.{.{.{.{.{.{.{.{.{.{.{.{.{.{.{.{.{.{.{.}.S.2.M ` _ ! Y Y 5 ",
"w *.0.9.7.%.5.2.u.P.].].[.{.{.{.{.{.{.{.{.{.{.{.{.{.{.{.{.{.{.{.{.{.{.{.{.{.{.{.{.{.{.{.{.{.{.{.{.{.{.{.[.[._.z.z _ P G K Y ~ 4 ",
"& : : , ; % 1 g j t.g.A.T.].{.{.{.{.{.{.{.{.{.{.{.{.{.{.{.{.{.{.{.{.{.{.{.{.{.{.{.{.{.{.{.{.{.{.{.{.].E.L.S.s.1.f r + . . + . . ",
"5 W W Q ^ Q ` < Z N.V.G.R.].{.{.{.{.{.{.{.{.{.{.{.{.{.{.{.{.{.{.{.{.{.{.{.{.{.{.{.{.{.{.{.{.{.{.{.{.W.I.z.b.e.C $.wXO.o.+. .+.u ",
"5 ~ ( ( { [ [ r N 0X>XfXOX}.{.{.{.{.{.{.{.{.{.{.{.{.{.{.{.{.{.{.{.{.{.{.{.{.{.{.{.{.{.{.{.{.{.{.{.{.!.c.v.#...` 8XeXlXjXjXwXeXb ",
"@ G F F J J K @ e ,.6X,XH.).[.].^.].[.[.{.{.{.{.{.{.{.{.{.{.{.{.{.{.{.{.{.{.{.{.{.{.{.{.[.[.].].^.].I.a.D ^ E K ,.,.rXwXiX*.*.e ",
"@ F F F J I Y 2 w 8.6X>XC.#XOXS.g.U.%X).oX[.{.{.{.{.{.{.{.{.{.{.{.{.{.{.{.{.{.{.{.{.[./.(.U.OXS.z.c.b.S M ! P G ;.*.wXeXtX>.>.y ",
"2 K F F J J Y 2 w wX7X=X:X<XfXp.1.Z.K.+X'.}.{.{.{.{.{.{.{.{.{.{.{.{.{.{.{.{.{.{.{.{.|.(.+XK.fXb.A e.S M p ~ J G >.>.8.eX7XwX7.y ",
"2 K F G J J Y 4 w q.8X6XqXaXaXC f 5.3XK.OX}.{.{.{.{.{.{.{.{.{.{.{.{.{.{.{.{.{.{.{.{.}.OXC.>X0XD p } ` _ ! Y F G >.,.>.9.9.8.9.y ",
"6 K H 9 H K L 2 w >.*.o.>.wXtXy u w.qX2X#X}.{.{.{.{.{.{.{.{.{.{.{.{.{.{.{.{.{.{.{.{.!.G.,X*X8.m F T P P J Y J Y ,.q.8.uXwX>.>.i ",
"+ + + + + + @ + & q > & : q m i ; b N 2.h.E.{.{.{.{.{.{.{.{.{.{.{.{.{.{.{.{.{.{.{.{.E.h.2.f q : 9 Y J 3 3 F J 9 X.,.wX*.y 0 q ; "
};
