/* XPM */
static char *_541596bd1d044b8f48f1ba9c58f3ee6eZwecCifJiXVVaGM[] = {
/* columns rows colors chars-per-pixel */
"64 64 231 2 ",
"   c #010000",
".  c #05080D",
"X  c #1E1C00",
"o  c #19140C",
"O  c #0A0E13",
"+  c #060C15",
"@  c #0C131C",
"#  c #0C1116",
"$  c #10151B",
"%  c #23180E",
"&  c #231B12",
"*  c #291D13",
"=  c #1F2108",
"-  c #3B3604",
";  c #2D231A",
":  c #2B2518",
">  c #32261A",
",  c #34281D",
"<  c #332617",
"1  c #352F11",
"2  c #0D1622",
"3  c #0E192B",
"4  c #0E1826",
"5  c #131A25",
"6  c #141D2B",
"7  c #101620",
"8  c #1A2329",
"9  c #13233A",
"0  c #1B2839",
"q  c #362C22",
"w  c #392E22",
"e  c #342F28",
"r  c #3E3225",
"t  c #3C342A",
"y  c #39352A",
"u  c #2B3835",
"i  c #242D2F",
"p  c #463B16",
"a  c #403E0C",
"s  c #44392E",
"d  c #44392D",
"f  c #433B32",
"g  c #493E32",
"h  c #34423A",
"j  c #5E5700",
"k  c #5F5800",
"l  c #5C5714",
"z  c #4C4716",
"x  c #635D04",
"c  c #726A00",
"v  c #77690A",
"b  c #686718",
"n  c #7C7516",
"m  c #756C10",
"M  c #4C4135",
"N  c #45493D",
"B  c #53483B",
"V  c #4A5638",
"C  c #544C27",
"Z  c #63592F",
"A  c #636A2C",
"S  c #6E7229",
"D  c #777827",
"F  c #646939",
"G  c #6D7636",
"H  c #737B3A",
"J  c #73662F",
"K  c #132644",
"L  c #162845",
"P  c #192B45",
"I  c #152B4C",
"U  c #192D4B",
"Y  c #1D324C",
"T  c #1E3047",
"R  c #152E53",
"E  c #182F53",
"W  c #173155",
"Q  c #1C3354",
"!  c #1B345B",
"~  c #19355D",
"^  c #0D254C",
"/  c #29354A",
"(  c #2C3A4A",
")  c #283847",
"_  c #263B56",
"`  c #2A3648",
"'  c #1D3A63",
"]  c #223C63",
"[  c #2C414A",
"{  c #324444",
"}  c #34464A",
"|  c #36494B",
" . c #2B4356",
".. c #364B55",
"X. c #3D5255",
"o. c #26416A",
"O. c #2A4567",
"+. c #2B4977",
"@. c #594E42",
"#. c #4C5A44",
"$. c #5D5144",
"%. c #5E554A",
"&. c #645B4D",
"*. c #645849",
"=. c #675E53",
"-. c #50614B",
";. c #7C734C",
":. c #6B6256",
">. c #6C645A",
",. c #716759",
"<. c #746B5D",
"1. c #776C5A",
"2. c #776D47",
"3. c #756D61",
"4. c #786F61",
"5. c #7B7365",
"6. c #7E7669",
"7. c #7C7568",
"8. c #867A1B",
"9. c #817637",
"0. c #81764C",
"q. c #857B54",
"w. c #847A56",
"e. c #827666",
"r. c #817769",
"t. c #847B6C",
"y. c #877E68",
"u. c #867E71",
"i. c #897F71",
"p. c #8D8508",
"a. c #9E9200",
"s. c #978818",
"d. c #978C17",
"f. c #AB9E02",
"g. c #A3980B",
"h. c #A69A16",
"j. c #ACA207",
"k. c #B3A50E",
"l. c #BAAA08",
"z. c #A9A41B",
"x. c #A6A117",
"c. c #BAAA13",
"v. c #B5AB17",
"b. c #B5B11E",
"n. c #858529",
"m. c #96882A",
"M. c #949423",
"N. c #989728",
"B. c #9F9237",
"V. c #8A8B34",
"C. c #A69A3A",
"Z. c #A79A38",
"A. c #A39523",
"S. c #A9A722",
"D. c #BAAD3B",
"F. c #B4A636",
"G. c #BFB23F",
"H. c #B4AA28",
"J. c #C3B502",
"K. c #C8B90A",
"L. c #C5B719",
"P. c #D0BF09",
"I. c #CCBD25",
"U. c #C7B828",
"Y. c #C9BA33",
"T. c #DBCA01",
"R. c #D3C20B",
"E. c #CBC114",
"W. c #CFC21B",
"Q. c #DACA16",
"!. c #DED00C",
"~. c #E1CF00",
"^. c #E4D202",
"/. c #E9D605",
"(. c #ECDB04",
"). c #E4D50A",
"_. c #E6D80B",
"`. c #ECDB0A",
"'. c #F1DF0C",
"]. c #F1DE03",
"[. c #E3D219",
"{. c #EDDA16",
"}. c #E5D415",
"|. c #F4E203",
" X c #FAE705",
".X c #FFEC00",
"XX c #F4E20B",
"oX c #F9E60B",
"OX c #F3E110",
"+X c #F9E611",
"@X c #D5C523",
"#X c #D3C42B",
"$X c #D9CA28",
"%X c #D4C52D",
"&X c #F0DF26",
"*X c #958A49",
"=X c #8D835A",
"-X c #91875E",
";X c #968C59",
":X c #9E9352",
">X c #958A41",
",X c #A79B45",
"<X c #A19654",
"1X c #A59A5A",
"2X c #ADA248",
"3X c #B1A443",
"4X c #B9AD4A",
"5X c #B4A849",
"6X c #B4A851",
"7X c #BDB147",
"8X c #8B8262",
"9X c #8C836B",
"0X c #958B63",
"qX c #948B6C",
"wX c #948A66",
"eX c #9C936D",
"rX c #989061",
"tX c #878074",
"yX c #8B8274",
"uX c #8D8679",
"iX c #8F887B",
"pX c #918676",
"aX c #938B7C",
"sX c #948B76",
"dX c #9E9574",
"fX c #A2976F",
"gX c #ABA168",
"hX c #C4B74A",
"jX c #988F81",
"kX c #9C9384",
"lX c #A39A8A",
/* pixels */
",.<.:.:.:.:.3.t 5 ( ( ` ( / T P $.t.0.Z.I.`..X.X.X.X.X.X.X.X.X.X.X.X.X.X.X.X.X.X.X.X`.U.Z.2.:.M =.yXt.&.5.iX5.=.L I I ! L 0 / 0 ",
"uXkXlXaXiXaXkXg 5 O.+.o.o.o.' ! &.aXfX4X#X'..X.X.X.X.X.X.X.X.X.X.X.X.X.X.X.X.X.X.X.XOX#X4XwXaXB &.5.yXaXaXt.<.5.Q I R R ~ ] o.] ",
"yXyXaXyXyXr.5.r @ W ~ O. .....{ F 0X:XD.@X`..X.X.X.X.X.X.X.X.X.X.X.X.X.X.X.X.X.X.X.XXX@XF.:X0XZ Z -X0XqXpX5.5.4.W I W I R W ! L ",
"t.yXyXt.t.yXaXg 4 ! _ X.-.F H G m.4XD.I.Q.|..X.X.X.X.X.X.X.X.X.X.X.X.X.X.X.X.X.X.X.XXX[.I.D.3Xs.B.4X,X<XrX9Xt.u.] R R W ! W ~ Q ",
"B t.yXyXi.aXaXg 4 !  .-.H N.S.h.c.#X$X[._. X.X.X.X.X.X.X.X.X.X.X.X.X.X.X.X.X.X.X.X.X X`.[.@X#Xc.L.#XY.3X<X8Xi.tX' ~ ! ! W ! ~ 9 ",
"t u.yXr.yXaXaXM 4 ~  .F N.E.).^./.'.'.|. X.X.X.X.X.X.X.X.X.X.X.X.X.X.X.X.X.X.X.X.X.X.X XXX'.'././.'.[.Y.2XeXt.t.] ' ' ! R ~ ' 5 ",
"f r.e.e.t.yXpXB 8 ..V n.b./..X.X.X.X.X.X.X.X.X.X.X.X.X.X.X.X.X.X.X.X.X.X.X.X.X.X.X.X.X.X.X.X.X.X.X.X'.@XF.1X0X8X .~ ~ ! E W ] 6 ",
"& < < < < < 1 p a l m g.J.(..X.X.X.X.X.X.X.X.X.X.X.X.X.X.X.X.X.X.X.X.X.X.X.X.X.X.X.X.X.X.X.X.X.X.X.X|.Q.U.A.B.J y 8 + + 3 2 @ O ",
"8 ( / ` / / { z 8.H.L.R.). X.X.X.X.X.X.X.X.X.X.X.X.X.X.X.X.X.X.X.X.X.X.X.X.X.X.X.X.X.X.X.X.X.X.X.X.X|.!.K.k.N.b J w.&.%.>.1.1.g ",
"9 O.o.] o.] X.b h.&X+XoX X.X.X.X.X.X.X.X.X.X.X.X.X.X.X.X.X.X.X.X.X.X.X.X.X.X.X.X.X.X.X.X.X.X.X.X.X.X.X|.(./.W.p.D fXjXaXu.jXlX$.",
"4 E W Y ) ) V n l.XX.X.X.X.X.X.X.X.X.X.X.X.X.X.X.X.X.X.X.X.X.X.X.X.X.X.X.X.X.X.X.X.X.X.X.X.X.X.X.X.X.X.X.X.X/.j.s.<XwX8X9XsXsXM ",
"5 ! Y { V F n.g.P.oX.X.X.X.X.X.X.X.X.X.X.X.X.X.X.X.X.X.X.X.X.X.X.X.X.X.X.X.X.X.X.X.X.X.X.X.X.X.X.X.X.X.X.X.X(.J.c.G.5X<X;X9XpXM ",
"3 ! ) V S M.v.K.^. X.X.X.X.X.X.X.X.X.X.X.X.X.X.X.X.X.X.X.X.X.X.X.X.X.X.X.X.X.X.X.X.X.X.X.X.X.X.X.X.X.X.X.X.X|.T.R.$XY.4X1XeXjXB ",
"4 R [ F M.K./.(.|..X.X.X.X.X.X.X.X.X.X.X.X.X.X.X.X.X.X.X.X.X.X.X.X.X.X.X.X.X.X.X.X.X.X.X.X.X.X.X.X.X.X.X.X.X.X|.].XX[.Y.6XeXaXB ",
"6 L } G z.)..X.X.X.X.X.X.X.X.X.X.X.X.X.X.X.X.X.X.X.X.X.X.X.X.X.X.X.X.X.X.X.X.X.X.X.X.X.X.X.X.X.X.X.X.X.X.X.X.X.X.X.X'.I.F.q.r.$.",
"+ + : b g.~..X.X.X.X.X.X.X.X.X.X.X.X.X.X.X.X.X.X.X.X.X.X.X.X.X.X.X.X.X.X.X.X.X.X.X.X.X.X.X.X.X.X.X.X.X.X.X.X.X.X.X.X^.k.m p > , ",
"e :.0.Z.L./..X.X.X.X.X.X.X.X.X.X.X.X.X.X.X.X.X.X.X.X.X.X.X.X.X.X.X.X.X.X.X.X.X.X.X.X.X.X.X.X.X.X.X.X.X.X.X.X.X.X.X.X`.c.n C %.; ",
"f yX0X5X#X'..X.X.X.X.X.X.X.X.X.X.X.X.X.X.X.X.X.X.X.X.X.X.X.X.X.X.X.X.X.X.X.X.X.X.X.X.X.X.X.X.X.X.X.X.X.X.X.X.X.X.X.XXX#X3X0Xr.r ",
"C q.*XF.@X'..X.X.X.X.X.X.X.X.X.X.X.X.X.X.X.X.X.X.X.X.X.X.X.X.X.X.X.X.X.X.X.X.X.X.X.X.X|.(.^.~.~.~.~.^.(.|..X.X.X.X.X'.W.F.*X;.z ",
"8.3XF.#X[.XX.X.X.X.X.X.X.X.X.X.X.X.X.X.X.X.X.X.X.X.X.X.X.X.X.X.X.X.X.X.X.X.X.X.X.X.X|.T.J.f.a.a.a.a.f.J.T.|..X.X.X.XXX[.I.F.C.8.",
"k.I.@X[.'. X.X.X.X.X.X.X.X.X.X.X.X.X.X.X.X.X.X.X.X.X.X.X.X.X.X.X.X.X.X.X.X.X.X.X.X.X(.J.a.c j k k j c a.J.(..X.X.X.X X`.[.W.I.c.",
"/.`.'.oX X.X.X.X.X.X.X.X.X.X.X.X.X.X.X.X.X.X.X.X.X.X.X.X.X.X.X.X.X.X.X.X.X.X.X.X.X.X^.f.c - X X X X - c f.^..X.X.X.X.X X|.'.`./.",
".X.X.X.X.X.X.X.X.X.X.X.X.X.X.X.X.X.X.X.X.X.X.X.X.X.X.X.X.X.X.X.X.X.X.X.X.X.X.X.X.X.X~.a.j X         X j a.~..X.X.X.X.X.X.X.X.X.X",
".X.X.X.X.X.X.X.X.X.X.X.X.X.X.X.X.X.X.X.X.X.X.X.X.X.X.X.X.X.X.X.X.X.X.X.X.X.X.X.X.X.X~.a.k X         X k a.~..X.X.X.X.X.X.X.X.X.X",
".X.X.X.X.X.X.X.X.X.X.X.X.X.X.X.X.X.X.X.X.X.X.X.X.X.X.X.X.X.X.X.X.X.X.X.X.X.X.X.X.X.X~.a.k X         X k a.~..X.X.X.X.X.X.X.X.X.X",
".X.X.X.X.X.X.X.X.X.X.X.X.X.X.X.X.X.X.X.X.X.X.X.X.X.X.X.X.X.X.X.X.X.X.X.X.X.X.X.X.X.X~.a.j X         X j a.~..X.X.X.X.X.X.X.X.X.X",
".X.X.X.X.X.X.X.X.X.X.X.X.X.X.X.X.X.X.X.X.X.X.X.X.X.X.X XXX`.'./.^.)._.(.|..X.X.X.X.X^.f.c - X X X X - c f.^..X.X.X.X.X.X.X.X.X.X",
".X.X.X.X.X.X.X.X.X.X.X.X.X.X.X.X.X.X.X.X.X.X.X.X.X.X X`.[.@X#Xc.g.z.b.E.!.|..X.X.X.X(.J.a.c j k k j c a.J.(..X.X.X.X.X.X.X.X.X.X",
".X.X.X.X.X.X.X.X.X.X.X.X.X.X.X.X.X.X.X.X.X.X.X.X.X.XXXQ.I.D.5X8.b G D S.E.(..X.X.X.X|.T.J.f.a.a.a.a.f.J.T.|..X.X.X.X.X.X.X.X.X.X",
".X.X.X.X.X.X.X.X.X.X.X.X.X.X.X.X.X.X.X.X.X.X.X.X.X.XXX@XF.:XrXZ e ..#.V.b._..X.X.X.X.X|.(.^.~.~.~.~.^.(.|..X.X.X.X.X.X.X.X.X.X.X",
".X.X.X.X.X.X.X.X.X.X.X.X.X.X.X.X.X.X.X.X.X.X.X.X.X.X'.I.C.q.t.g 2 ! } G S.)..X.X.X.X.X.X.X.X.X.X.X.X.X.X.X.X.X.X.X.X.X.X.X.X.X.X",
".X.X.X.X.X.X.X.X.X.X.X.X.X.X.X.X.X.X.X.X.X.X.X.X.X.X^.f.v p < & . + = x g.^..X.X.X.X.X.X.X.X.X.X.X.X.X.X.X.X.X.X.X.X.X.X.X.X.X.X",
".X.X.X.X.X.X.X.X.X.X.X.X.X.X.X.X.X.X.X.X.X.X.X.X.X.X/.z.D N ( 5 y 3.;.8.I.`..X.X.X.X.X.X.X.X.X.X.X.X.X.X.X.X.X.X.X.X.X.X.X.X.X.X",
".X.X.X.X.X.X.X.X.X.X.X.X.X.X.X.X.X.X.X.X.X.X.X.X.X.X).S.H X.O.8 ; 1.=X3X%XXX.X.X.X.X.X.X.X.X.X.X.X.X.X.X.X.X.X.X.X.X.X.X.X.X.X.X",
".X.X.X.X.X.X.X.X.X.X.X.X.X.X.X.X.X.X.X.X.X.X.X|.(./.E.M.A u 9 @ y ,.=X6XY.[.XX].|..X.X.X.X.X.X.X.X.X.X.X.X.X.X.X.X.X.X.X.X.X.X.X",
".X.X.X.X.X.X.X.X.X.X.X.X.X.X.X.X.X.X.X.X.X.X X^.K.b.M.G #.) Q 4 f uXqX:X4XY.$XR.T.|..X.X.X.X.X.X.X.X.X.X.X.X.X.X.X.X.X.X.X.X.X.X",
".X.X.X.X.X.X.X.X.X.X.X.X.X.X.X.X.X.X.X.X.X.XoXR.g.V.F V | _ Q 2 y 6.y.-X*X,XD.c.J.(..X.X.X.X.X.X.X.X.X.X.X.X.X.X.X.X.X.X.X.X.X.X",
".X.X.X.X.X.X.X.X.X.X.X.X.X.X.X.X.X.X.X.X.X.XXXK.n -.[ ) _ Y Q @ t tXyXy.8X8X1Xd.j./..X.X.X.X.X.X.X.X.X.X.X.X.X.X.X.X.X.X.X.X.X.X",
".X.X.X.X.X.X.X.X.X.X.X.X.X.X.X.X.X.X.X.X.X.XXXL.S | R U I L Y 2 d yXuXt.e.6.0Xn.g.)..X.X.X.X.X.X.X.X.X.X.X.X.X.X.X.X.X.X.X.X.X.X",
".X.X.X.X.X.X.X.X.X.X.X.X.X.X.X.X.X.X.X.X.X.X/.k.b u # @ 7 @ @ # & q w r < ; p v a.^..X.X.X.X.X.X.X.X.X.X.X.X.X.X.X.X.X.X.X.X.X.X",
".X.X.X.X.X.X.X.X.X.X.X.X.X.X.X.X.X.X.X.X.X.X).h.B.;.@.%.<.=.,.&.0 9 L U 0 T N b k.`..X.X.X.X.X.X.X.X.X.X.X.X.X.X.X.X.X.X.X.X.X.X",
".X.X.X.X.X.X.X.X.X.X.X.X.X.X.X.X.X.X.X.X.X.X_.x.C.0X6.r.yXyXyXtX_ ~ ' ~ _ ] X.b k.OX.X.X.X.X.X.X.X.X.X.X.X.X.X.X.X.X.X.X.X.X.X.X",
"/.'.XXXX X.X.X.X.X.X.X.X.X.X.X.X.X.X.X.X.X.X).x.C.wXt.5.t.u.yX6.P W W L K R { b k.'..X.X.X.X.X.X.X.X.X.X.X.X.X.X.X.X.X X|.XX'./.",
"c.#X$X[.`. X.X.X.X.X.X.X.X.X.X.X.X.X.X.X.X.X).z.3XwX6.6.yXt.t.5.Y R R I ! W } b k.OX.X.X.X.X.X.X.X.X.X.X.X.X.X.X.X.X X`.[.@XI.k.",
"8.5X7X#X[.oX.X.X.X.X.X.X.X.X.X.X.X.X.X.X.X.X).S.3X=Xt.t.6.5.5.3.Y K I W R R | b k.OX.X.X.X.X.X.X.X.X.X.X.X.X.X.X.X.XoX[.I.D.C.8.",
"p w.gXG.$XXX.X.X.X.X.X.X.X.X.X.X.X.X.X.X.X.X).z.C.=Xt.uX6.<.6.7.Q R I K I ~ ..b k.XX.X.X.X.X.X.X.X.X.X.X.X.X.X.X.X.XXX@XD.1X0.p ",
", =.q.3X#X'..X.X.X.X.X.X.X.X.X.X.X.X.X|.(./.K.M.B.0XuXi.5.6.yX4.P ! U L W ! } b h.[.'.oX X.X.X.X.X.X.X.X.X.X.X.X.X.X`.L.m.F @.; ",
"o % 1 m k./..X.X.X.X.X.X.X.X.X.X.X.X|.T.J.j.p.x l Z $.B B B B w + 4 4 3 2 . o - c a.l.P.~.|..X.X.X.X.X.X.X.X.X.X.X.X^.f.c 1 % o ",
"f >.;.B.L.'..X.X.X.X.X.X.X.X.X.X.X.X].P.f.s.n 9.;.,.*.%.$.*.=.q y >.:.&.=.=.&.0.>Xm.h.c.R.]..X.X.X.X.X.X.X.X.X.X.X.X_.g.S #.8 6 ",
"g jXfXhX%XXX.X.X.X.X.X.X.X.X.X.X.X.XXX@XD.:X;.w.pXaXt.6.t.uXuXg f u.aXu.u.yXaXdXqX=X1XhX$XXX.X.X.X.X.X.X.X.X.X.X.X.X_.z.S h _ 0 ",
"q <.fXC.U.[.'.|.|..X.X.X.X.X.X.X.X.X`.I.C.;.>.<.4.4.4.4.6.5.5.t q 5.>.<.4.5.t.5.<.7.eX4X#X'..X.X.X.X.X.X.X.X.X|.(./.K.M.A : U 5 ",
"f t.wX*XC.U.@XR.T.|..X.X.X.X.X.X.X.X`.L.C.q.5.<.4.4.<.6.t.5.t.d q r.<.5.5.4.<.t.t.5.fX4X#X'..X.X.X.X.X.X.X.X X^.K.b.M.S #.) 9 6 ",
"g yXy.=X*X,XF.k.J.(..X.X.X.X.X.X.X.X'.I.B.q.r.4.4.<.<.5.<.5.r.t d aXyXt.t.5.5.t.yXu.-X3X#X'..X.X.X.X.X.X.X.XoXR.g.n.A V h T L @ ",
"f i.5.9Xw.w.*Xs.j./..X.X.X.X.X.X.X.X`.I.C.;.>.5.5.<.5.7.4.<.5.t M kXyX6.t.6.yXt.yXyX-X3X#X'..X.X.X.X.X.X.X.XXXK.n V ) ) T W Q 6 ",
"t 1.e.i.5.:.0.8.p.E./.(.|..X.X.X.X.X`.I.3X0X5.<.5.5.5.u.6.4.<.t t pXt.5.5.t.t.yXaXyX0X5X#XXX.X.X.X.X.X XoXXX{.h.l { R L U Q _ 5 ",
"& < ; < ; & 1 z x p.f.J.T.|..X.X.X.X'.I.3X=X5.5.4.5.<.4.5.7.4.w M jXpXu.t.t.t.uXjXyX-X5X#XXX.X.X.X.X|.~.K.l.g.v z i + . . + . . ",
"6 ` ` / ( / } y Z >XZ.U.Q.|..X.X.X.X`.#X3X-Xt.5.,.r.5.>.t.5.<.t B jXaXpXyXaXyXuXuXiXwX4X%X'..X.X.X.X(.E.z.n.H C 2.yX*.&.=.&.=.f ",
"6 _ ] ] +.o.O.8 C eX1XhX$XXX.X.X.X.X'.#X4X0X6.t.pXt.4.<.pX5.t.d g kXaXyXt.uXyXuXyXyXeX4X#XXX.X.X.X.X/.v.n.-...} y.uXlXkXkXtXuXM ",
"@ L K K I I U @ t 6.8X,XY.[.XX/.^.'.{.Y.2XwX5.5.5.<.<.>.4.t.aXt y aXpXt.t.aXuXu.tXiXdX6XY.[.'./.^.).E.M.F ( ^ U 6.6.uXyXaX<.<.t ",
"@ L K L L R Q 2 t t.9X:X3XY.%Xc.f.I.Y.4XgXwX4.5.4.5.<.4.,.5.5.w y yXyXt.yXaXuXt.t.i.qX1X3XY.#Xc.x.S.M.G #.( R P 4.<.uXpXpX5.5.d ",
"2 U K K L L Q 2 t yX9X-X:X2X4X8.v C.2X<X;Xy.t.5.4.,.5.5.,.5.e.w q t.pXt.i.t.t.uXt.t.9XrX<X5X4Xm.S H F V { Q I L 5.5.t.uX9XyXt.d ",
"2 U K L I I Q 5 d tXt.y.qXdXfXC p q.eXqX9XyXyXr.<.4.t.u.4.6.5.; q t.yXyXyXyXyXyXt.t.t.9X8X0XrXF { } [ ( Y Q K L 5.6.5.t.i.t.t.d ",
"7 U P 9 P U T 2 t 5.<.&.5.yXpXd g i.pXuXuXaXe.=.,.5.5.<.<.<.1.> ; *.$.4.yXyXyX5.5.<.,.5.e.5.t.B K ! R R I W U Q 6.u.t.aXyX5.5.f ",
"O # O O O # @ O & w , & < q B g ; M d g r q , * < q q > > , r o o & % < q w q , , , < , w q r < 9 E L 3 3 K I 9 @.6.yX<.d q w ; "
};
