/* XPM */
static char *b00dcdc9ac544b35a70206b361b3ac86aLF8D7pUhpcSU7a5[] = {
/* columns rows colors chars-per-pixel */
"16 16 3 1 ",
"  c None",
". c black",
"X c #FFEC00",
/* pixels */
"     XXXXXX     ",
"   XXXXXXXXXX   ",
"  XXXXXXXXXXXX  ",
" XXXXXXXXXXXXXX ",
" XXXXXXXXXXXXXX ",
"XXXXXXXXXXX..XXX",
"XXXXXXXXXXX..XXX",
"XXXXXXX  XXXXXXX",
"XXXXXXX  XXXXXXX",
"XXXXXX    XXXXXX",
"XXXXXX    XXXXXX",
" XXXXX    XXXXX ",
" XXXX      XXXX ",
"  XXX      XXX  ",
"   XX      XX   ",
"                "
};
